G04 #@! TF.GenerationSoftware,KiCad,Pcbnew,(5.0.2)-1*
G04 #@! TF.CreationDate,2021-04-12T18:59:32+02:00*
G04 #@! TF.ProjectId,Squick,53717569-636b-42e6-9b69-6361645f7063,rev?*
G04 #@! TF.SameCoordinates,Original*
G04 #@! TF.FileFunction,Legend,Top*
G04 #@! TF.FilePolarity,Positive*
%FSLAX45Y45*%
G04 Gerber Fmt 4.5, Leading zero omitted, Abs format (unit mm)*
G04 Created by KiCad (PCBNEW (5.0.2)-1) date 12.04.2021 18:59:32*
%MOMM*%
%LPD*%
G01*
G04 APERTURE LIST*
%ADD10C,0.120000*%
%ADD11C,0.150000*%
%ADD12C,0.250000*%
G04 APERTURE END LIST*
D10*
G04 #@! TO.C,R9*
X17959000Y-4722873D02*
X17959000Y-4757127D01*
X18061000Y-4722873D02*
X18061000Y-4757127D01*
G04 #@! TO.C,J8*
X18604000Y-7740000D02*
X18816000Y-7740000D01*
X18604000Y-7740000D02*
X18604000Y-8746000D01*
X18604000Y-8746000D02*
X18816000Y-8746000D01*
X18816000Y-7740000D02*
X18816000Y-8746000D01*
X18816000Y-7534000D02*
X18816000Y-7640000D01*
X18710000Y-7534000D02*
X18816000Y-7534000D01*
G04 #@! TO.C,J7*
X17416000Y-8530000D02*
X17204000Y-8530000D01*
X17416000Y-8530000D02*
X17416000Y-7524000D01*
X17416000Y-7524000D02*
X17204000Y-7524000D01*
X17204000Y-8530000D02*
X17204000Y-7524000D01*
X17204000Y-8736000D02*
X17204000Y-8630000D01*
X17310000Y-8736000D02*
X17204000Y-8736000D01*
D11*
G04 #@! TO.C,U8*
X19122000Y-4879000D02*
X19122000Y-6659000D01*
X17852000Y-4879000D02*
X19122000Y-4879000D01*
X17852000Y-4879000D02*
X16582000Y-4879000D01*
X16581000Y-4881000D02*
X16581000Y-6661000D01*
X16582000Y-6659000D02*
X19122000Y-6659000D01*
D10*
G04 #@! TO.C,SW4*
X15620000Y-11417000D02*
X15753000Y-11417000D01*
X15753000Y-11417000D02*
X15753000Y-11550000D01*
X15753000Y-11677000D02*
X15753000Y-12191000D01*
X15487000Y-12191000D02*
X15753000Y-12191000D01*
X15487000Y-11677000D02*
X15487000Y-12191000D01*
X15487000Y-11677000D02*
X15753000Y-11677000D01*
G04 #@! TO.C,R31*
X18268127Y-11921000D02*
X18233873Y-11921000D01*
X18268127Y-12023000D02*
X18233873Y-12023000D01*
G04 #@! TO.C,R30*
X18869000Y-11962873D02*
X18869000Y-11997127D01*
X18971000Y-11962873D02*
X18971000Y-11997127D01*
G04 #@! TO.C,R28*
X14628952Y-10538373D02*
X14653173Y-10514152D01*
X14556827Y-10466248D02*
X14581048Y-10442027D01*
G04 #@! TO.C,R25*
X21218624Y-5574301D02*
X21242845Y-5550080D01*
X21146499Y-5502176D02*
X21170720Y-5477955D01*
G04 #@! TO.C,R22*
X17319000Y-4745373D02*
X17319000Y-4779627D01*
X17421000Y-4745373D02*
X17421000Y-4779627D01*
G04 #@! TO.C,R12*
X20877920Y-6129955D02*
X20853699Y-6154176D01*
X20950045Y-6202080D02*
X20925824Y-6226301D01*
G04 #@! TO.C,R11*
X19262627Y-4732000D02*
X19228373Y-4732000D01*
X19262627Y-4834000D02*
X19228373Y-4834000D01*
G04 #@! TO.C,R10*
X18635000Y-4880373D02*
X18635000Y-4914627D01*
X18737000Y-4880373D02*
X18737000Y-4914627D01*
G04 #@! TO.C,R8*
X16680873Y-4872000D02*
X16715127Y-4872000D01*
X16680873Y-4770000D02*
X16715127Y-4770000D01*
G04 #@! TO.C,R7*
X15033699Y-6265824D02*
X15057920Y-6290045D01*
X15105824Y-6193699D02*
X15130045Y-6217920D01*
G04 #@! TO.C,R5*
X20029000Y-10865627D02*
X20029000Y-10831373D01*
X19927000Y-10865627D02*
X19927000Y-10831373D01*
G04 #@! TO.C,R4*
X17679627Y-11928000D02*
X17645373Y-11928000D01*
X17679627Y-12030000D02*
X17645373Y-12030000D01*
G04 #@! TO.C,R3*
X17292627Y-11922000D02*
X17258373Y-11922000D01*
X17292627Y-12024000D02*
X17258373Y-12024000D01*
G04 #@! TO.C,R2*
X16904127Y-11920000D02*
X16869873Y-11920000D01*
X16904127Y-12022000D02*
X16869873Y-12022000D01*
G04 #@! TO.C,Q1*
X14836663Y-10877183D02*
X14733425Y-10980420D01*
X14613217Y-10653737D02*
X14389771Y-10877183D01*
X14613217Y-10653737D02*
X14678978Y-10719498D01*
X14836663Y-10877183D02*
X14770902Y-10811422D01*
G04 #@! TO.C,D11*
X18435500Y-12440500D02*
X18681500Y-12440500D01*
X18435500Y-12293500D02*
X18435500Y-12440500D01*
X18681500Y-12293500D02*
X18435500Y-12293500D01*
G04 #@! TO.C,D10*
X18830500Y-12440500D02*
X19076500Y-12440500D01*
X18830500Y-12293500D02*
X18830500Y-12440500D01*
X19076500Y-12293500D02*
X18830500Y-12293500D01*
G04 #@! TO.C,D3*
X17834500Y-12446500D02*
X18080500Y-12446500D01*
X17834500Y-12299500D02*
X17834500Y-12446500D01*
X18080500Y-12299500D02*
X17834500Y-12299500D01*
G04 #@! TO.C,D2*
X17294000Y-12442500D02*
X17540000Y-12442500D01*
X17294000Y-12295500D02*
X17294000Y-12442500D01*
X17540000Y-12295500D02*
X17294000Y-12295500D01*
G04 #@! TO.C,D1*
X16774500Y-12445500D02*
X17020500Y-12445500D01*
X16774500Y-12298500D02*
X16774500Y-12445500D01*
X17020500Y-12298500D02*
X16774500Y-12298500D01*
G04 #@! TO.C,C26*
X16197000Y-10006627D02*
X16197000Y-9972373D01*
X16095000Y-10006627D02*
X16095000Y-9972373D01*
G04 #@! TO.C,C25*
X16009500Y-10224750D02*
X16009500Y-9816250D01*
X15822500Y-10224750D02*
X16009500Y-10224750D01*
X15822500Y-9816250D02*
X15822500Y-10224750D01*
G04 #@! TO.C,C24*
X15458000Y-9489500D02*
X15049500Y-9489500D01*
X15049500Y-9489500D02*
X15049500Y-9676500D01*
X15049500Y-9676500D02*
X15458000Y-9676500D01*
G04 #@! TO.C,C23*
X15198873Y-9430000D02*
X15233127Y-9430000D01*
X15198873Y-9328000D02*
X15233127Y-9328000D01*
G04 #@! TO.C,C21*
X17451000Y-9874500D02*
X17451000Y-9181000D01*
X17109000Y-9874500D02*
X17451000Y-9874500D01*
X17109000Y-9181000D02*
X17109000Y-9874500D01*
G04 #@! TO.C,C18*
X18263373Y-11759000D02*
X18297627Y-11759000D01*
X18263373Y-11657000D02*
X18297627Y-11657000D01*
G04 #@! TO.C,C2*
X20101000Y-10829373D02*
X20101000Y-10863627D01*
X20203000Y-10829373D02*
X20203000Y-10863627D01*
G04 #@! TO.C,R33*
X15289000Y-11740373D02*
X15289000Y-11774627D01*
X15391000Y-11740373D02*
X15391000Y-11774627D01*
G04 #@! TO.C,R32*
X15190045Y-11419920D02*
X15165824Y-11395699D01*
X15117920Y-11492045D02*
X15093699Y-11467824D01*
G04 #@! TO.C,Q2*
X15116663Y-11150183D02*
X15013425Y-11253420D01*
X14893217Y-10926737D02*
X14669771Y-11150183D01*
X14893217Y-10926737D02*
X14958978Y-10992498D01*
X15116663Y-11150183D02*
X15050902Y-11084422D01*
G04 #@! TO.C,J10*
X14395752Y-10003357D02*
X14583843Y-10191448D01*
X14395752Y-10003357D02*
X13852694Y-10546415D01*
X13852694Y-10546415D02*
X14040785Y-10734506D01*
X14583843Y-10191448D02*
X14040785Y-10734506D01*
X14767690Y-10007600D02*
X14673645Y-10101645D01*
X14673645Y-9913555D02*
X14767690Y-10007600D01*
D11*
G04 #@! TO.C,U2*
X18007500Y-6072500D02*
X18007500Y-6225000D01*
X19035000Y-6072500D02*
X19035000Y-5517500D01*
X17980000Y-6072500D02*
X17980000Y-5517500D01*
X19035000Y-6072500D02*
X18999500Y-6072500D01*
X19035000Y-5517500D02*
X18999500Y-5517500D01*
X17980000Y-5517500D02*
X18015500Y-5517500D01*
X17980000Y-6072500D02*
X18007500Y-6072500D01*
G04 #@! TO.C,U4*
X16742500Y-6072500D02*
X16770000Y-6072500D01*
X16742500Y-5517500D02*
X16778000Y-5517500D01*
X17797500Y-5517500D02*
X17762000Y-5517500D01*
X17797500Y-6072500D02*
X17762000Y-6072500D01*
X16742500Y-6072500D02*
X16742500Y-5517500D01*
X17797500Y-6072500D02*
X17797500Y-5517500D01*
X16770000Y-6072500D02*
X16770000Y-6225000D01*
D10*
G04 #@! TO.C,SW1*
X20452761Y-6590063D02*
X20542563Y-6500261D01*
X20622938Y-6590535D02*
X20537614Y-6505211D01*
X20614453Y-6599020D02*
X20529128Y-6513696D01*
X20605967Y-6607505D02*
X20520643Y-6522181D01*
X20597482Y-6615991D02*
X20512158Y-6530666D01*
X20588997Y-6624476D02*
X20503673Y-6539152D01*
X20580512Y-6632961D02*
X20495187Y-6547637D01*
X20572026Y-6641446D02*
X20486702Y-6556122D01*
X20563541Y-6649932D02*
X20478217Y-6564607D01*
X20555056Y-6658417D02*
X20469731Y-6573093D01*
X20546570Y-6666902D02*
X20461246Y-6581578D01*
X20282112Y-6419415D02*
X20538085Y-6675388D01*
X20371915Y-6329612D02*
X20282112Y-6419415D01*
X20627888Y-6585585D02*
X20371915Y-6329612D01*
X20538085Y-6675388D02*
X20627888Y-6585585D01*
X20546924Y-6926764D02*
X20644717Y-6828971D01*
X20546924Y-6926764D02*
X20449131Y-6828971D01*
X20270445Y-6204808D02*
X20363076Y-6112177D01*
X20064677Y-6410576D02*
X20157308Y-6317945D01*
X20752692Y-6687055D02*
X20845323Y-6594424D01*
X20546924Y-6892823D02*
X20639555Y-6800192D01*
X20845323Y-6594424D02*
X20363076Y-6112177D01*
X20546924Y-6892823D02*
X20064677Y-6410576D01*
G04 #@! TO.C,SW2*
X15554677Y-6151924D02*
X16036924Y-5669677D01*
X15853076Y-6450323D02*
X16335323Y-5968076D01*
X15554677Y-6151924D02*
X15647308Y-6244555D01*
X15760445Y-6357692D02*
X15853076Y-6450323D01*
X16036924Y-5669677D02*
X16129555Y-5762308D01*
X16242692Y-5875445D02*
X16335323Y-5968076D01*
X15520736Y-6151924D02*
X15618529Y-6054131D01*
X15520736Y-6151924D02*
X15618529Y-6249717D01*
X15772112Y-6143085D02*
X15861915Y-6232888D01*
X15861915Y-6232888D02*
X16117888Y-5976915D01*
X16117888Y-5976915D02*
X16028085Y-5887112D01*
X16028085Y-5887112D02*
X15772112Y-6143085D01*
X15780598Y-6151570D02*
X15865922Y-6066246D01*
X15789083Y-6160056D02*
X15874407Y-6074731D01*
X15797568Y-6168541D02*
X15882892Y-6083217D01*
X15806053Y-6177026D02*
X15891378Y-6091702D01*
X15814539Y-6185511D02*
X15899863Y-6100187D01*
X15823024Y-6193997D02*
X15908348Y-6108672D01*
X15831509Y-6202482D02*
X15916834Y-6117158D01*
X15839995Y-6210967D02*
X15925319Y-6125643D01*
X15848480Y-6219453D02*
X15933804Y-6134128D01*
X15856965Y-6227938D02*
X15942289Y-6142614D01*
X15857437Y-6057761D02*
X15947239Y-6147563D01*
G04 #@! TO.C,SW3*
X19724739Y-5639937D02*
X19634937Y-5729739D01*
X19554562Y-5639465D02*
X19639886Y-5724789D01*
X19563047Y-5630980D02*
X19648372Y-5716304D01*
X19571533Y-5622495D02*
X19656857Y-5707819D01*
X19580018Y-5614009D02*
X19665342Y-5699334D01*
X19588503Y-5605524D02*
X19673828Y-5690848D01*
X19596989Y-5597039D02*
X19682313Y-5682363D01*
X19605474Y-5588554D02*
X19690798Y-5673878D01*
X19613959Y-5580068D02*
X19699283Y-5665392D01*
X19622444Y-5571583D02*
X19707769Y-5656907D01*
X19630930Y-5563098D02*
X19716254Y-5648422D01*
X19895388Y-5810585D02*
X19639415Y-5554612D01*
X19805585Y-5900388D02*
X19895388Y-5810585D01*
X19549612Y-5644415D02*
X19805585Y-5900388D01*
X19639415Y-5554612D02*
X19549612Y-5644415D01*
X19630576Y-5303236D02*
X19532783Y-5401029D01*
X19630576Y-5303236D02*
X19728369Y-5401029D01*
X19907055Y-6025192D02*
X19814424Y-6117823D01*
X20112823Y-5819424D02*
X20020192Y-5912055D01*
X19424808Y-5542945D02*
X19332177Y-5635576D01*
X19630576Y-5337177D02*
X19537945Y-5429808D01*
X19332177Y-5635576D02*
X19814424Y-6117823D01*
X19630576Y-5337177D02*
X20112823Y-5819424D01*
G04 #@! TO.C,D4*
X14841260Y-5708805D02*
G75*
G03X14339547Y-5991981I-211458J-211392D01*
G01*
X14841195Y-5708740D02*
G75*
G02X14558019Y-6210453I-211392J-211458D01*
G01*
X14879803Y-5920197D02*
G75*
G03X14879803Y-5920197I-250000J0D01*
G01*
X14339535Y-5991969D02*
X14558031Y-6210465D01*
G04 #@! TO.C,D5*
X16251260Y-4373805D02*
G75*
G03X15749547Y-4656981I-211458J-211392D01*
G01*
X16251195Y-4373740D02*
G75*
G02X15968019Y-4875453I-211392J-211458D01*
G01*
X16289803Y-4585197D02*
G75*
G03X16289803Y-4585197I-250000J0D01*
G01*
X15749535Y-4656969D02*
X15968031Y-4875465D01*
G04 #@! TO.C,D6*
X17281000Y-4280046D02*
G75*
G03X16726000Y-4125517I-299000J46D01*
G01*
X17281000Y-4279954D02*
G75*
G02X16726000Y-4434483I-299000J-46D01*
G01*
X17232000Y-4280000D02*
G75*
G03X17232000Y-4280000I-250000J0D01*
G01*
X16726000Y-4125500D02*
X16726000Y-4434500D01*
G04 #@! TO.C,D7*
X18666000Y-4135500D02*
X18666000Y-4444500D01*
X19172000Y-4290000D02*
G75*
G03X19172000Y-4290000I-250000J0D01*
G01*
X19221000Y-4289954D02*
G75*
G02X18666000Y-4444483I-299000J-46D01*
G01*
X19221000Y-4290046D02*
G75*
G03X18666000Y-4135517I-299000J46D01*
G01*
G04 #@! TO.C,D8*
X19701305Y-4381240D02*
G75*
G03X19984481Y-4882953I211392J-211458D01*
G01*
X19701240Y-4381305D02*
G75*
G02X20202953Y-4664481I211458J-211392D01*
G01*
X20162697Y-4592697D02*
G75*
G03X20162697Y-4592697I-250000J0D01*
G01*
X19984469Y-4882965D02*
X20202965Y-4664469D01*
G04 #@! TO.C,D9*
X21303031Y-5619535D02*
X21084535Y-5838031D01*
X21624803Y-5909803D02*
G75*
G03X21624803Y-5909803I-250000J0D01*
G01*
X21586260Y-6121195D02*
G75*
G02X21084547Y-5838019I-211458J211392D01*
G01*
X21586195Y-6121260D02*
G75*
G03X21303019Y-5619547I-211392J211458D01*
G01*
G04 #@! TO.C,J1*
X20644200Y-10337800D02*
X20910200Y-10337800D01*
X20644200Y-10337800D02*
X20644200Y-11613800D01*
X20644200Y-11613800D02*
X20910200Y-11613800D01*
X20910200Y-10337800D02*
X20910200Y-11613800D01*
X20910200Y-10077800D02*
X20910200Y-10210800D01*
X20777200Y-10077800D02*
X20910200Y-10077800D01*
G04 #@! TO.C,J2*
X22281800Y-10473000D02*
X22015800Y-10473000D01*
X22281800Y-10473000D02*
X22281800Y-9705000D01*
X22281800Y-9705000D02*
X22015800Y-9705000D01*
X22015800Y-10473000D02*
X22015800Y-9705000D01*
X22015800Y-10733000D02*
X22015800Y-10600000D01*
X22148800Y-10733000D02*
X22015800Y-10733000D01*
G04 #@! TO.C,J3*
X21926200Y-10783000D02*
X21660200Y-10783000D01*
X21926200Y-10783000D02*
X21926200Y-9761000D01*
X21926200Y-9761000D02*
X21660200Y-9761000D01*
X21660200Y-10783000D02*
X21660200Y-9761000D01*
X21660200Y-11043000D02*
X21660200Y-10910000D01*
X21793200Y-11043000D02*
X21660200Y-11043000D01*
G04 #@! TO.C,J4*
X15594045Y-4280955D02*
X15688090Y-4375000D01*
X15688090Y-4375000D02*
X15594045Y-4469045D01*
X15504243Y-4558848D02*
X14422369Y-5640721D01*
X14234279Y-5452631D02*
X14422369Y-5640721D01*
X15316152Y-4370757D02*
X14234279Y-5452631D01*
X15316152Y-4370757D02*
X15504243Y-4558848D01*
G04 #@! TO.C,J5*
X18653000Y-3547000D02*
X18653000Y-3813000D01*
X18653000Y-3547000D02*
X17123000Y-3547000D01*
X17123000Y-3547000D02*
X17123000Y-3813000D01*
X18653000Y-3813000D02*
X17123000Y-3813000D01*
X18913000Y-3813000D02*
X18780000Y-3813000D01*
X18913000Y-3680000D02*
X18913000Y-3813000D01*
G04 #@! TO.C,J6*
X21629243Y-5265955D02*
X21441152Y-5454045D01*
X21629243Y-5265955D02*
X20547369Y-4184081D01*
X20547369Y-4184081D02*
X20359279Y-4372172D01*
X21441152Y-5454045D02*
X20359279Y-4372172D01*
X21625000Y-5637893D02*
X21530955Y-5543848D01*
X21719045Y-5543848D02*
X21625000Y-5637893D01*
G04 #@! TO.C,J9*
X16221000Y-12123000D02*
X16221000Y-12389000D01*
X16221000Y-12123000D02*
X15961000Y-12123000D01*
X15961000Y-12123000D02*
X15961000Y-12389000D01*
X16221000Y-12389000D02*
X15961000Y-12389000D01*
X16481000Y-12389000D02*
X16348000Y-12389000D01*
X16481000Y-12256000D02*
X16481000Y-12389000D01*
G04 #@! TO.C,T1*
X15491265Y-5504431D02*
X15272769Y-5285935D01*
X15450997Y-5576203D02*
G75*
G03X15450997Y-5576203I-250000J0D01*
G01*
X14989605Y-5787660D02*
G75*
G02X15272781Y-5285947I211392J211458D01*
G01*
X14989540Y-5787595D02*
G75*
G03X15491253Y-5504419I211458J211392D01*
G01*
G04 #@! TO.C,T2*
X15975465Y-5068031D02*
X15756969Y-4849535D01*
X15935197Y-5139803D02*
G75*
G03X15935197Y-5139803I-250000J0D01*
G01*
X15473805Y-5351260D02*
G75*
G02X15756981Y-4849547I211392J211458D01*
G01*
X15473740Y-5351195D02*
G75*
G03X15975453Y-5068019I211458J211392D01*
G01*
G04 #@! TO.C,T3*
X17926000Y-4340046D02*
G75*
G03X17371000Y-4185517I-299000J46D01*
G01*
X17926000Y-4339954D02*
G75*
G02X17371000Y-4494483I-299000J-46D01*
G01*
X17877000Y-4340000D02*
G75*
G03X17877000Y-4340000I-250000J0D01*
G01*
X17371000Y-4185500D02*
X17371000Y-4494500D01*
G04 #@! TO.C,T4*
X18016000Y-4185500D02*
X18016000Y-4494500D01*
X18522000Y-4340000D02*
G75*
G03X18522000Y-4340000I-250000J0D01*
G01*
X18571000Y-4339954D02*
G75*
G02X18016000Y-4494483I-299000J-46D01*
G01*
X18571000Y-4340046D02*
G75*
G03X18016000Y-4185517I-299000J46D01*
G01*
G04 #@! TO.C,T5*
X20560605Y-5340940D02*
G75*
G03X20843781Y-5842653I211392J-211458D01*
G01*
X20560540Y-5341005D02*
G75*
G02X21062253Y-5624181I211458J-211392D01*
G01*
X21021997Y-5552397D02*
G75*
G03X21021997Y-5552397I-250000J0D01*
G01*
X20843769Y-5842665D02*
X21062265Y-5624169D01*
G04 #@! TO.C,T6*
X20391969Y-5390465D02*
X20610465Y-5171969D01*
X20570197Y-5100197D02*
G75*
G03X20570197Y-5100197I-250000J0D01*
G01*
X20108740Y-4888805D02*
G75*
G02X20610453Y-5171981I211458J-211392D01*
G01*
X20108805Y-4888740D02*
G75*
G03X20391981Y-5390453I211392J-211458D01*
G01*
D11*
G04 #@! TO.C,U9*
X18441500Y-9205500D02*
X18419000Y-9205500D01*
X18441500Y-9780500D02*
X18411500Y-9780500D01*
X17576500Y-9780500D02*
X17606500Y-9780500D01*
X17576500Y-9205500D02*
X17606500Y-9205500D01*
X18441500Y-9205500D02*
X18441500Y-9780500D01*
X17576500Y-9205500D02*
X17576500Y-9780500D01*
X18419000Y-9205500D02*
X18419000Y-9045500D01*
D10*
G04 #@! TO.C,U10*
X15071500Y-10353500D02*
X15197500Y-10353500D01*
X15753500Y-10353500D02*
X15627500Y-10353500D01*
X15071500Y-9977500D02*
X15071500Y-10353500D01*
X15753500Y-9752500D02*
X15753500Y-10353500D01*
G04 #@! TO.C,R9*
D11*
X18198238Y-4756667D02*
X18150619Y-4790000D01*
X18198238Y-4813810D02*
X18098238Y-4813810D01*
X18098238Y-4775714D01*
X18103000Y-4766190D01*
X18107762Y-4761429D01*
X18117286Y-4756667D01*
X18131571Y-4756667D01*
X18141095Y-4761429D01*
X18145857Y-4766190D01*
X18150619Y-4775714D01*
X18150619Y-4813810D01*
X18198238Y-4709048D02*
X18198238Y-4690000D01*
X18193476Y-4680476D01*
X18188714Y-4675714D01*
X18174429Y-4666190D01*
X18155381Y-4661429D01*
X18117286Y-4661429D01*
X18107762Y-4666190D01*
X18103000Y-4670952D01*
X18098238Y-4680476D01*
X18098238Y-4699524D01*
X18103000Y-4709048D01*
X18107762Y-4713810D01*
X18117286Y-4718571D01*
X18141095Y-4718571D01*
X18150619Y-4713810D01*
X18155381Y-4709048D01*
X18160143Y-4699524D01*
X18160143Y-4680476D01*
X18155381Y-4670952D01*
X18150619Y-4666190D01*
X18141095Y-4661429D01*
G04 #@! TO.C,J8*
X18676667Y-7335238D02*
X18676667Y-7406667D01*
X18671905Y-7420952D01*
X18662381Y-7430476D01*
X18648095Y-7435238D01*
X18638571Y-7435238D01*
X18738571Y-7378095D02*
X18729048Y-7373333D01*
X18724286Y-7368571D01*
X18719524Y-7359048D01*
X18719524Y-7354286D01*
X18724286Y-7344762D01*
X18729048Y-7340000D01*
X18738571Y-7335238D01*
X18757619Y-7335238D01*
X18767143Y-7340000D01*
X18771905Y-7344762D01*
X18776667Y-7354286D01*
X18776667Y-7359048D01*
X18771905Y-7368571D01*
X18767143Y-7373333D01*
X18757619Y-7378095D01*
X18738571Y-7378095D01*
X18729048Y-7382857D01*
X18724286Y-7387619D01*
X18719524Y-7397143D01*
X18719524Y-7416190D01*
X18724286Y-7425714D01*
X18729048Y-7430476D01*
X18738571Y-7435238D01*
X18757619Y-7435238D01*
X18767143Y-7430476D01*
X18771905Y-7425714D01*
X18776667Y-7416190D01*
X18776667Y-7397143D01*
X18771905Y-7387619D01*
X18767143Y-7382857D01*
X18757619Y-7378095D01*
G04 #@! TO.C,J7*
X17251667Y-7340238D02*
X17251667Y-7411667D01*
X17246905Y-7425952D01*
X17237381Y-7435476D01*
X17223095Y-7440238D01*
X17213571Y-7440238D01*
X17289762Y-7340238D02*
X17356429Y-7340238D01*
X17313571Y-7440238D01*
G04 #@! TO.C,U8*
D12*
X17687952Y-6923076D02*
X17687952Y-6723076D01*
X17783190Y-6923076D02*
X17783190Y-6723076D01*
X17849857Y-6865933D01*
X17916524Y-6723076D01*
X17916524Y-6923076D01*
X18011762Y-6723076D02*
X18011762Y-6884981D01*
X18021286Y-6904028D01*
X18030810Y-6913552D01*
X18049857Y-6923076D01*
X18087952Y-6923076D01*
X18107000Y-6913552D01*
X18116524Y-6904028D01*
X18126048Y-6884981D01*
X18126048Y-6723076D01*
G04 #@! TO.C,R31*
D11*
X18186714Y-11890238D02*
X18153381Y-11842619D01*
X18129571Y-11890238D02*
X18129571Y-11790238D01*
X18167667Y-11790238D01*
X18177190Y-11795000D01*
X18181952Y-11799762D01*
X18186714Y-11809286D01*
X18186714Y-11823571D01*
X18181952Y-11833095D01*
X18177190Y-11837857D01*
X18167667Y-11842619D01*
X18129571Y-11842619D01*
X18220048Y-11790238D02*
X18281952Y-11790238D01*
X18248619Y-11828333D01*
X18262905Y-11828333D01*
X18272429Y-11833095D01*
X18277190Y-11837857D01*
X18281952Y-11847381D01*
X18281952Y-11871190D01*
X18277190Y-11880714D01*
X18272429Y-11885476D01*
X18262905Y-11890238D01*
X18234333Y-11890238D01*
X18224810Y-11885476D01*
X18220048Y-11880714D01*
X18377190Y-11890238D02*
X18320048Y-11890238D01*
X18348619Y-11890238D02*
X18348619Y-11790238D01*
X18339095Y-11804524D01*
X18329571Y-11814048D01*
X18320048Y-11818809D01*
G04 #@! TO.C,R30*
X19108238Y-12044286D02*
X19060619Y-12077619D01*
X19108238Y-12101428D02*
X19008238Y-12101428D01*
X19008238Y-12063333D01*
X19013000Y-12053809D01*
X19017762Y-12049048D01*
X19027286Y-12044286D01*
X19041571Y-12044286D01*
X19051095Y-12049048D01*
X19055857Y-12053809D01*
X19060619Y-12063333D01*
X19060619Y-12101428D01*
X19008238Y-12010952D02*
X19008238Y-11949048D01*
X19046333Y-11982381D01*
X19046333Y-11968095D01*
X19051095Y-11958571D01*
X19055857Y-11953809D01*
X19065381Y-11949048D01*
X19089190Y-11949048D01*
X19098714Y-11953809D01*
X19103476Y-11958571D01*
X19108238Y-11968095D01*
X19108238Y-11996667D01*
X19103476Y-12006190D01*
X19098714Y-12010952D01*
X19008238Y-11887143D02*
X19008238Y-11877619D01*
X19013000Y-11868095D01*
X19017762Y-11863333D01*
X19027286Y-11858571D01*
X19046333Y-11853809D01*
X19070143Y-11853809D01*
X19089190Y-11858571D01*
X19098714Y-11863333D01*
X19103476Y-11868095D01*
X19108238Y-11877619D01*
X19108238Y-11887143D01*
X19103476Y-11896667D01*
X19098714Y-11901428D01*
X19089190Y-11906190D01*
X19070143Y-11910952D01*
X19046333Y-11910952D01*
X19027286Y-11906190D01*
X19017762Y-11901428D01*
X19013000Y-11896667D01*
X19008238Y-11887143D01*
G04 #@! TO.C,R28*
X14362931Y-10770845D02*
X14305689Y-10760744D01*
X14322525Y-10811251D02*
X14251814Y-10740540D01*
X14278752Y-10713603D01*
X14288853Y-10710236D01*
X14295588Y-10710236D01*
X14305689Y-10713603D01*
X14315791Y-10723705D01*
X14319158Y-10733806D01*
X14319158Y-10740540D01*
X14315791Y-10750642D01*
X14288853Y-10777579D01*
X14325892Y-10679931D02*
X14325892Y-10673197D01*
X14329259Y-10663095D01*
X14346095Y-10646260D01*
X14356197Y-10642892D01*
X14362931Y-10642892D01*
X14373033Y-10646260D01*
X14379767Y-10652994D01*
X14386501Y-10666463D01*
X14386501Y-10747275D01*
X14430275Y-10703502D01*
X14430275Y-10622689D02*
X14420173Y-10626056D01*
X14413439Y-10626056D01*
X14403337Y-10622689D01*
X14399970Y-10619322D01*
X14396603Y-10609221D01*
X14396603Y-10602486D01*
X14399970Y-10592385D01*
X14413439Y-10578916D01*
X14423540Y-10575549D01*
X14430275Y-10575549D01*
X14440376Y-10578916D01*
X14443743Y-10582283D01*
X14447111Y-10592385D01*
X14447111Y-10599119D01*
X14443743Y-10609221D01*
X14430275Y-10622689D01*
X14426908Y-10632791D01*
X14426908Y-10639525D01*
X14430275Y-10649627D01*
X14443743Y-10663095D01*
X14453845Y-10666463D01*
X14460579Y-10666463D01*
X14470681Y-10663095D01*
X14484150Y-10649627D01*
X14487517Y-10639525D01*
X14487517Y-10632791D01*
X14484150Y-10622689D01*
X14470681Y-10609221D01*
X14460579Y-10605853D01*
X14453845Y-10605853D01*
X14443743Y-10609221D01*
G04 #@! TO.C,R25*
X21080087Y-5502457D02*
X21022845Y-5492355D01*
X21039681Y-5542863D02*
X20968970Y-5472152D01*
X20995907Y-5445215D01*
X21006009Y-5441848D01*
X21012743Y-5441848D01*
X21022845Y-5445215D01*
X21032946Y-5455316D01*
X21036314Y-5465418D01*
X21036314Y-5472152D01*
X21032946Y-5482254D01*
X21006009Y-5509191D01*
X21043048Y-5411543D02*
X21043048Y-5404809D01*
X21046415Y-5394707D01*
X21063251Y-5377871D01*
X21073352Y-5374504D01*
X21080087Y-5374504D01*
X21090188Y-5377871D01*
X21096923Y-5384606D01*
X21103657Y-5398074D01*
X21103657Y-5478887D01*
X21147430Y-5435113D01*
X21140696Y-5300426D02*
X21107024Y-5334098D01*
X21137329Y-5371137D01*
X21137329Y-5364403D01*
X21140696Y-5354301D01*
X21157532Y-5337465D01*
X21167633Y-5334098D01*
X21174368Y-5334098D01*
X21184469Y-5337465D01*
X21201305Y-5354301D01*
X21204672Y-5364403D01*
X21204672Y-5371137D01*
X21201305Y-5381239D01*
X21184469Y-5398074D01*
X21174368Y-5401442D01*
X21167633Y-5401442D01*
G04 #@! TO.C,R22*
X17558238Y-4826786D02*
X17510619Y-4860119D01*
X17558238Y-4883929D02*
X17458238Y-4883929D01*
X17458238Y-4845833D01*
X17463000Y-4836310D01*
X17467762Y-4831548D01*
X17477286Y-4826786D01*
X17491571Y-4826786D01*
X17501095Y-4831548D01*
X17505857Y-4836310D01*
X17510619Y-4845833D01*
X17510619Y-4883929D01*
X17467762Y-4788690D02*
X17463000Y-4783929D01*
X17458238Y-4774405D01*
X17458238Y-4750595D01*
X17463000Y-4741071D01*
X17467762Y-4736310D01*
X17477286Y-4731548D01*
X17486810Y-4731548D01*
X17501095Y-4736310D01*
X17558238Y-4793452D01*
X17558238Y-4731548D01*
X17467762Y-4693452D02*
X17463000Y-4688690D01*
X17458238Y-4679167D01*
X17458238Y-4655357D01*
X17463000Y-4645833D01*
X17467762Y-4641071D01*
X17477286Y-4636310D01*
X17486810Y-4636310D01*
X17501095Y-4641071D01*
X17558238Y-4698214D01*
X17558238Y-4636310D01*
G04 #@! TO.C,R12*
X20989519Y-6356689D02*
X20932277Y-6346588D01*
X20949113Y-6397096D02*
X20878403Y-6326385D01*
X20905340Y-6299447D01*
X20915442Y-6296080D01*
X20922176Y-6296080D01*
X20932277Y-6299447D01*
X20942379Y-6309549D01*
X20945746Y-6319651D01*
X20945746Y-6326385D01*
X20942379Y-6336486D01*
X20915442Y-6363424D01*
X21056863Y-6289346D02*
X21016457Y-6329752D01*
X21036660Y-6309549D02*
X20965949Y-6238838D01*
X20969316Y-6255674D01*
X20969316Y-6269143D01*
X20965949Y-6279244D01*
X21019824Y-6198432D02*
X21019824Y-6191698D01*
X21023191Y-6181596D01*
X21040027Y-6164760D01*
X21050129Y-6161393D01*
X21056863Y-6161393D01*
X21066964Y-6164760D01*
X21073699Y-6171495D01*
X21080433Y-6184963D01*
X21080433Y-6265776D01*
X21124206Y-6222002D01*
G04 #@! TO.C,R11*
X19181214Y-4971238D02*
X19147881Y-4923619D01*
X19124071Y-4971238D02*
X19124071Y-4871238D01*
X19162167Y-4871238D01*
X19171690Y-4876000D01*
X19176452Y-4880762D01*
X19181214Y-4890286D01*
X19181214Y-4904571D01*
X19176452Y-4914095D01*
X19171690Y-4918857D01*
X19162167Y-4923619D01*
X19124071Y-4923619D01*
X19276452Y-4971238D02*
X19219310Y-4971238D01*
X19247881Y-4971238D02*
X19247881Y-4871238D01*
X19238357Y-4885524D01*
X19228833Y-4895048D01*
X19219310Y-4899810D01*
X19371690Y-4971238D02*
X19314548Y-4971238D01*
X19343119Y-4971238D02*
X19343119Y-4871238D01*
X19333595Y-4885524D01*
X19324071Y-4895048D01*
X19314548Y-4899810D01*
G04 #@! TO.C,R10*
X18874238Y-4961786D02*
X18826619Y-4995119D01*
X18874238Y-5018929D02*
X18774238Y-5018929D01*
X18774238Y-4980833D01*
X18779000Y-4971310D01*
X18783762Y-4966548D01*
X18793286Y-4961786D01*
X18807571Y-4961786D01*
X18817095Y-4966548D01*
X18821857Y-4971310D01*
X18826619Y-4980833D01*
X18826619Y-5018929D01*
X18874238Y-4866548D02*
X18874238Y-4923690D01*
X18874238Y-4895119D02*
X18774238Y-4895119D01*
X18788524Y-4904643D01*
X18798048Y-4914167D01*
X18802810Y-4923690D01*
X18774238Y-4804643D02*
X18774238Y-4795119D01*
X18779000Y-4785595D01*
X18783762Y-4780833D01*
X18793286Y-4776071D01*
X18812333Y-4771310D01*
X18836143Y-4771310D01*
X18855190Y-4776071D01*
X18864714Y-4780833D01*
X18869476Y-4785595D01*
X18874238Y-4795119D01*
X18874238Y-4804643D01*
X18869476Y-4814167D01*
X18864714Y-4818929D01*
X18855190Y-4823690D01*
X18836143Y-4828452D01*
X18812333Y-4828452D01*
X18793286Y-4823690D01*
X18783762Y-4818929D01*
X18779000Y-4814167D01*
X18774238Y-4804643D01*
G04 #@! TO.C,R8*
X16681333Y-4723238D02*
X16648000Y-4675619D01*
X16624190Y-4723238D02*
X16624190Y-4623238D01*
X16662286Y-4623238D01*
X16671809Y-4628000D01*
X16676571Y-4632762D01*
X16681333Y-4642286D01*
X16681333Y-4656571D01*
X16676571Y-4666095D01*
X16671809Y-4670857D01*
X16662286Y-4675619D01*
X16624190Y-4675619D01*
X16738476Y-4666095D02*
X16728952Y-4661333D01*
X16724190Y-4656571D01*
X16719428Y-4647048D01*
X16719428Y-4642286D01*
X16724190Y-4632762D01*
X16728952Y-4628000D01*
X16738476Y-4623238D01*
X16757524Y-4623238D01*
X16767048Y-4628000D01*
X16771809Y-4632762D01*
X16776571Y-4642286D01*
X16776571Y-4647048D01*
X16771809Y-4656571D01*
X16767048Y-4661333D01*
X16757524Y-4666095D01*
X16738476Y-4666095D01*
X16728952Y-4670857D01*
X16724190Y-4675619D01*
X16719428Y-4685143D01*
X16719428Y-4704190D01*
X16724190Y-4713714D01*
X16728952Y-4718476D01*
X16738476Y-4723238D01*
X16757524Y-4723238D01*
X16767048Y-4718476D01*
X16771809Y-4713714D01*
X16776571Y-4704190D01*
X16776571Y-4685143D01*
X16771809Y-4675619D01*
X16767048Y-4670857D01*
X16757524Y-4666095D01*
G04 #@! TO.C,R7*
X15139215Y-6160958D02*
X15149316Y-6103716D01*
X15098809Y-6120552D02*
X15169519Y-6049842D01*
X15196457Y-6076779D01*
X15199824Y-6086881D01*
X15199824Y-6093615D01*
X15196457Y-6103716D01*
X15186355Y-6113818D01*
X15176254Y-6117185D01*
X15169519Y-6117185D01*
X15159418Y-6113818D01*
X15132480Y-6086881D01*
X15233496Y-6113818D02*
X15280636Y-6160958D01*
X15179621Y-6201365D01*
G04 #@! TO.C,R5*
X19880238Y-10865167D02*
X19832619Y-10898500D01*
X19880238Y-10922310D02*
X19780238Y-10922310D01*
X19780238Y-10884214D01*
X19785000Y-10874690D01*
X19789762Y-10869929D01*
X19799286Y-10865167D01*
X19813571Y-10865167D01*
X19823095Y-10869929D01*
X19827857Y-10874690D01*
X19832619Y-10884214D01*
X19832619Y-10922310D01*
X19780238Y-10774690D02*
X19780238Y-10822310D01*
X19827857Y-10827071D01*
X19823095Y-10822310D01*
X19818333Y-10812786D01*
X19818333Y-10788976D01*
X19823095Y-10779452D01*
X19827857Y-10774690D01*
X19837381Y-10769929D01*
X19861190Y-10769929D01*
X19870714Y-10774690D01*
X19875476Y-10779452D01*
X19880238Y-10788976D01*
X19880238Y-10812786D01*
X19875476Y-10822310D01*
X19870714Y-10827071D01*
G04 #@! TO.C,R4*
X17663333Y-11895238D02*
X17630000Y-11847619D01*
X17606190Y-11895238D02*
X17606190Y-11795238D01*
X17644286Y-11795238D01*
X17653810Y-11800000D01*
X17658571Y-11804762D01*
X17663333Y-11814286D01*
X17663333Y-11828571D01*
X17658571Y-11838095D01*
X17653810Y-11842857D01*
X17644286Y-11847619D01*
X17606190Y-11847619D01*
X17749048Y-11828571D02*
X17749048Y-11895238D01*
X17725238Y-11790476D02*
X17701429Y-11861905D01*
X17763333Y-11861905D01*
G04 #@! TO.C,R3*
X17253333Y-11900238D02*
X17220000Y-11852619D01*
X17196190Y-11900238D02*
X17196190Y-11800238D01*
X17234286Y-11800238D01*
X17243810Y-11805000D01*
X17248571Y-11809762D01*
X17253333Y-11819286D01*
X17253333Y-11833571D01*
X17248571Y-11843095D01*
X17243810Y-11847857D01*
X17234286Y-11852619D01*
X17196190Y-11852619D01*
X17286667Y-11800238D02*
X17348571Y-11800238D01*
X17315238Y-11838333D01*
X17329524Y-11838333D01*
X17339048Y-11843095D01*
X17343810Y-11847857D01*
X17348571Y-11857381D01*
X17348571Y-11881190D01*
X17343810Y-11890714D01*
X17339048Y-11895476D01*
X17329524Y-11900238D01*
X17300952Y-11900238D01*
X17291429Y-11895476D01*
X17286667Y-11890714D01*
G04 #@! TO.C,R2*
X16863333Y-11870238D02*
X16830000Y-11822619D01*
X16806190Y-11870238D02*
X16806190Y-11770238D01*
X16844286Y-11770238D01*
X16853810Y-11775000D01*
X16858571Y-11779762D01*
X16863333Y-11789286D01*
X16863333Y-11803571D01*
X16858571Y-11813095D01*
X16853810Y-11817857D01*
X16844286Y-11822619D01*
X16806190Y-11822619D01*
X16901429Y-11779762D02*
X16906190Y-11775000D01*
X16915714Y-11770238D01*
X16939524Y-11770238D01*
X16949048Y-11775000D01*
X16953810Y-11779762D01*
X16958571Y-11789286D01*
X16958571Y-11798809D01*
X16953810Y-11813095D01*
X16896667Y-11870238D01*
X16958571Y-11870238D01*
G04 #@! TO.C,Q1*
X14373743Y-11088188D02*
X14370376Y-11078087D01*
X14370376Y-11064618D01*
X14370376Y-11044415D01*
X14367009Y-11034313D01*
X14360274Y-11027579D01*
X14346806Y-11047782D02*
X14343438Y-11037681D01*
X14343438Y-11024212D01*
X14353540Y-11007376D01*
X14377110Y-10983806D01*
X14393946Y-10973704D01*
X14407415Y-10973704D01*
X14417516Y-10977071D01*
X14430985Y-10990540D01*
X14434352Y-11000642D01*
X14434352Y-11014110D01*
X14424251Y-11030946D01*
X14400680Y-11054516D01*
X14383845Y-11064618D01*
X14370376Y-11064618D01*
X14360274Y-11061251D01*
X14346806Y-11047782D01*
X14444454Y-11145430D02*
X14404048Y-11105024D01*
X14424251Y-11125227D02*
X14494961Y-11054516D01*
X14478125Y-11057884D01*
X14464657Y-11057884D01*
X14454555Y-11054516D01*
G04 #@! TO.C,D11*
X18480071Y-12269238D02*
X18480071Y-12169238D01*
X18503881Y-12169238D01*
X18518167Y-12174000D01*
X18527690Y-12183524D01*
X18532452Y-12193048D01*
X18537214Y-12212095D01*
X18537214Y-12226381D01*
X18532452Y-12245428D01*
X18527690Y-12254952D01*
X18518167Y-12264476D01*
X18503881Y-12269238D01*
X18480071Y-12269238D01*
X18632452Y-12269238D02*
X18575310Y-12269238D01*
X18603881Y-12269238D02*
X18603881Y-12169238D01*
X18594357Y-12183524D01*
X18584833Y-12193048D01*
X18575310Y-12197809D01*
X18727690Y-12269238D02*
X18670548Y-12269238D01*
X18699119Y-12269238D02*
X18699119Y-12169238D01*
X18689595Y-12183524D01*
X18680071Y-12193048D01*
X18670548Y-12197809D01*
G04 #@! TO.C,D10*
X18875071Y-12269238D02*
X18875071Y-12169238D01*
X18898881Y-12169238D01*
X18913167Y-12174000D01*
X18922690Y-12183524D01*
X18927452Y-12193048D01*
X18932214Y-12212095D01*
X18932214Y-12226381D01*
X18927452Y-12245428D01*
X18922690Y-12254952D01*
X18913167Y-12264476D01*
X18898881Y-12269238D01*
X18875071Y-12269238D01*
X19027452Y-12269238D02*
X18970310Y-12269238D01*
X18998881Y-12269238D02*
X18998881Y-12169238D01*
X18989357Y-12183524D01*
X18979833Y-12193048D01*
X18970310Y-12197809D01*
X19089357Y-12169238D02*
X19098881Y-12169238D01*
X19108405Y-12174000D01*
X19113167Y-12178762D01*
X19117929Y-12188286D01*
X19122690Y-12207333D01*
X19122690Y-12231143D01*
X19117929Y-12250190D01*
X19113167Y-12259714D01*
X19108405Y-12264476D01*
X19098881Y-12269238D01*
X19089357Y-12269238D01*
X19079833Y-12264476D01*
X19075071Y-12259714D01*
X19070310Y-12250190D01*
X19065548Y-12231143D01*
X19065548Y-12207333D01*
X19070310Y-12188286D01*
X19075071Y-12178762D01*
X19079833Y-12174000D01*
X19089357Y-12169238D01*
G04 #@! TO.C,D3*
X17926690Y-12275238D02*
X17926690Y-12175238D01*
X17950500Y-12175238D01*
X17964786Y-12180000D01*
X17974310Y-12189524D01*
X17979071Y-12199048D01*
X17983833Y-12218095D01*
X17983833Y-12232381D01*
X17979071Y-12251428D01*
X17974310Y-12260952D01*
X17964786Y-12270476D01*
X17950500Y-12275238D01*
X17926690Y-12275238D01*
X18017167Y-12175238D02*
X18079071Y-12175238D01*
X18045738Y-12213333D01*
X18060024Y-12213333D01*
X18069548Y-12218095D01*
X18074310Y-12222857D01*
X18079071Y-12232381D01*
X18079071Y-12256190D01*
X18074310Y-12265714D01*
X18069548Y-12270476D01*
X18060024Y-12275238D01*
X18031452Y-12275238D01*
X18021929Y-12270476D01*
X18017167Y-12265714D01*
G04 #@! TO.C,D2*
X17386190Y-12271238D02*
X17386190Y-12171238D01*
X17410000Y-12171238D01*
X17424286Y-12176000D01*
X17433810Y-12185524D01*
X17438571Y-12195048D01*
X17443333Y-12214095D01*
X17443333Y-12228381D01*
X17438571Y-12247428D01*
X17433810Y-12256952D01*
X17424286Y-12266476D01*
X17410000Y-12271238D01*
X17386190Y-12271238D01*
X17481429Y-12180762D02*
X17486190Y-12176000D01*
X17495714Y-12171238D01*
X17519524Y-12171238D01*
X17529048Y-12176000D01*
X17533810Y-12180762D01*
X17538571Y-12190286D01*
X17538571Y-12199809D01*
X17533810Y-12214095D01*
X17476667Y-12271238D01*
X17538571Y-12271238D01*
G04 #@! TO.C,D1*
X16866690Y-12274238D02*
X16866690Y-12174238D01*
X16890500Y-12174238D01*
X16904786Y-12179000D01*
X16914310Y-12188524D01*
X16919071Y-12198048D01*
X16923833Y-12217095D01*
X16923833Y-12231381D01*
X16919071Y-12250428D01*
X16914310Y-12259952D01*
X16904786Y-12269476D01*
X16890500Y-12274238D01*
X16866690Y-12274238D01*
X17019071Y-12274238D02*
X16961929Y-12274238D01*
X16990500Y-12274238D02*
X16990500Y-12174238D01*
X16980976Y-12188524D01*
X16971452Y-12198048D01*
X16961929Y-12202809D01*
G04 #@! TO.C,C26*
X16114286Y-9610714D02*
X16109524Y-9605952D01*
X16104762Y-9591667D01*
X16104762Y-9582143D01*
X16109524Y-9567857D01*
X16119048Y-9558333D01*
X16128571Y-9553571D01*
X16147619Y-9548810D01*
X16161905Y-9548810D01*
X16180952Y-9553571D01*
X16190476Y-9558333D01*
X16200000Y-9567857D01*
X16204762Y-9582143D01*
X16204762Y-9591667D01*
X16200000Y-9605952D01*
X16195238Y-9610714D01*
X16195238Y-9648810D02*
X16200000Y-9653571D01*
X16204762Y-9663095D01*
X16204762Y-9686905D01*
X16200000Y-9696429D01*
X16195238Y-9701190D01*
X16185714Y-9705952D01*
X16176190Y-9705952D01*
X16161905Y-9701190D01*
X16104762Y-9644048D01*
X16104762Y-9705952D01*
X16204762Y-9791667D02*
X16204762Y-9772619D01*
X16200000Y-9763095D01*
X16195238Y-9758333D01*
X16180952Y-9748810D01*
X16161905Y-9744048D01*
X16123809Y-9744048D01*
X16114286Y-9748810D01*
X16109524Y-9753571D01*
X16104762Y-9763095D01*
X16104762Y-9782143D01*
X16109524Y-9791667D01*
X16114286Y-9796429D01*
X16123809Y-9801190D01*
X16147619Y-9801190D01*
X16157143Y-9796429D01*
X16161905Y-9791667D01*
X16166667Y-9782143D01*
X16166667Y-9763095D01*
X16161905Y-9753571D01*
X16157143Y-9748810D01*
X16147619Y-9744048D01*
G04 #@! TO.C,C25*
X15884286Y-9515714D02*
X15879524Y-9510952D01*
X15874762Y-9496667D01*
X15874762Y-9487143D01*
X15879524Y-9472857D01*
X15889048Y-9463333D01*
X15898571Y-9458571D01*
X15917619Y-9453810D01*
X15931905Y-9453810D01*
X15950952Y-9458571D01*
X15960476Y-9463333D01*
X15970000Y-9472857D01*
X15974762Y-9487143D01*
X15974762Y-9496667D01*
X15970000Y-9510952D01*
X15965238Y-9515714D01*
X15965238Y-9553810D02*
X15970000Y-9558571D01*
X15974762Y-9568095D01*
X15974762Y-9591905D01*
X15970000Y-9601429D01*
X15965238Y-9606190D01*
X15955714Y-9610952D01*
X15946190Y-9610952D01*
X15931905Y-9606190D01*
X15874762Y-9549048D01*
X15874762Y-9610952D01*
X15974762Y-9701429D02*
X15974762Y-9653810D01*
X15927143Y-9649048D01*
X15931905Y-9653810D01*
X15936667Y-9663333D01*
X15936667Y-9687143D01*
X15931905Y-9696667D01*
X15927143Y-9701429D01*
X15917619Y-9706190D01*
X15893809Y-9706190D01*
X15884286Y-9701429D01*
X15879524Y-9696667D01*
X15874762Y-9687143D01*
X15874762Y-9663333D01*
X15879524Y-9653810D01*
X15884286Y-9649048D01*
G04 #@! TO.C,C24*
X15628964Y-9615714D02*
X15624202Y-9620476D01*
X15609917Y-9625238D01*
X15600393Y-9625238D01*
X15586107Y-9620476D01*
X15576583Y-9610952D01*
X15571821Y-9601429D01*
X15567059Y-9582381D01*
X15567059Y-9568095D01*
X15571821Y-9549048D01*
X15576583Y-9539524D01*
X15586107Y-9530000D01*
X15600393Y-9525238D01*
X15609917Y-9525238D01*
X15624202Y-9530000D01*
X15628964Y-9534762D01*
X15667059Y-9534762D02*
X15671821Y-9530000D01*
X15681345Y-9525238D01*
X15705155Y-9525238D01*
X15714678Y-9530000D01*
X15719440Y-9534762D01*
X15724202Y-9544286D01*
X15724202Y-9553810D01*
X15719440Y-9568095D01*
X15662298Y-9625238D01*
X15724202Y-9625238D01*
X15809917Y-9558571D02*
X15809917Y-9625238D01*
X15786107Y-9520476D02*
X15762298Y-9591905D01*
X15824202Y-9591905D01*
G04 #@! TO.C,C23*
X15461714Y-9384714D02*
X15456952Y-9389476D01*
X15442667Y-9394238D01*
X15433143Y-9394238D01*
X15418857Y-9389476D01*
X15409333Y-9379952D01*
X15404571Y-9370429D01*
X15399809Y-9351381D01*
X15399809Y-9337095D01*
X15404571Y-9318048D01*
X15409333Y-9308524D01*
X15418857Y-9299000D01*
X15433143Y-9294238D01*
X15442667Y-9294238D01*
X15456952Y-9299000D01*
X15461714Y-9303762D01*
X15499809Y-9303762D02*
X15504571Y-9299000D01*
X15514095Y-9294238D01*
X15537905Y-9294238D01*
X15547428Y-9299000D01*
X15552190Y-9303762D01*
X15556952Y-9313286D01*
X15556952Y-9322810D01*
X15552190Y-9337095D01*
X15495048Y-9394238D01*
X15556952Y-9394238D01*
X15590286Y-9294238D02*
X15652190Y-9294238D01*
X15618857Y-9332333D01*
X15633143Y-9332333D01*
X15642667Y-9337095D01*
X15647428Y-9341857D01*
X15652190Y-9351381D01*
X15652190Y-9375190D01*
X15647428Y-9384714D01*
X15642667Y-9389476D01*
X15633143Y-9394238D01*
X15604571Y-9394238D01*
X15595048Y-9389476D01*
X15590286Y-9384714D01*
G04 #@! TO.C,C21*
X17060714Y-9545286D02*
X17065476Y-9550048D01*
X17070238Y-9564333D01*
X17070238Y-9573857D01*
X17065476Y-9588143D01*
X17055952Y-9597667D01*
X17046429Y-9602429D01*
X17027381Y-9607190D01*
X17013095Y-9607190D01*
X16994048Y-9602429D01*
X16984524Y-9597667D01*
X16975000Y-9588143D01*
X16970238Y-9573857D01*
X16970238Y-9564333D01*
X16975000Y-9550048D01*
X16979762Y-9545286D01*
X16979762Y-9507190D02*
X16975000Y-9502429D01*
X16970238Y-9492905D01*
X16970238Y-9469095D01*
X16975000Y-9459571D01*
X16979762Y-9454810D01*
X16989286Y-9450048D01*
X16998810Y-9450048D01*
X17013095Y-9454810D01*
X17070238Y-9511952D01*
X17070238Y-9450048D01*
X17070238Y-9354810D02*
X17070238Y-9411952D01*
X17070238Y-9383381D02*
X16970238Y-9383381D01*
X16984524Y-9392905D01*
X16994048Y-9402429D01*
X16998810Y-9411952D01*
G04 #@! TO.C,C18*
X18216214Y-11600714D02*
X18211452Y-11605476D01*
X18197167Y-11610238D01*
X18187643Y-11610238D01*
X18173357Y-11605476D01*
X18163833Y-11595952D01*
X18159072Y-11586428D01*
X18154310Y-11567381D01*
X18154310Y-11553095D01*
X18159072Y-11534048D01*
X18163833Y-11524524D01*
X18173357Y-11515000D01*
X18187643Y-11510238D01*
X18197167Y-11510238D01*
X18211452Y-11515000D01*
X18216214Y-11519762D01*
X18311452Y-11610238D02*
X18254310Y-11610238D01*
X18282881Y-11610238D02*
X18282881Y-11510238D01*
X18273357Y-11524524D01*
X18263833Y-11534048D01*
X18254310Y-11538809D01*
X18368595Y-11553095D02*
X18359072Y-11548333D01*
X18354310Y-11543571D01*
X18349548Y-11534048D01*
X18349548Y-11529286D01*
X18354310Y-11519762D01*
X18359072Y-11515000D01*
X18368595Y-11510238D01*
X18387643Y-11510238D01*
X18397167Y-11515000D01*
X18401929Y-11519762D01*
X18406691Y-11529286D01*
X18406691Y-11534048D01*
X18401929Y-11543571D01*
X18397167Y-11548333D01*
X18387643Y-11553095D01*
X18368595Y-11553095D01*
X18359072Y-11557857D01*
X18354310Y-11562619D01*
X18349548Y-11572143D01*
X18349548Y-11591190D01*
X18354310Y-11600714D01*
X18359072Y-11605476D01*
X18368595Y-11610238D01*
X18387643Y-11610238D01*
X18397167Y-11605476D01*
X18401929Y-11600714D01*
X18406691Y-11591190D01*
X18406691Y-11572143D01*
X18401929Y-11562619D01*
X18397167Y-11557857D01*
X18387643Y-11553095D01*
G04 #@! TO.C,C2*
X20330714Y-10863167D02*
X20335476Y-10867928D01*
X20340238Y-10882214D01*
X20340238Y-10891738D01*
X20335476Y-10906024D01*
X20325952Y-10915548D01*
X20316429Y-10920309D01*
X20297381Y-10925071D01*
X20283095Y-10925071D01*
X20264048Y-10920309D01*
X20254524Y-10915548D01*
X20245000Y-10906024D01*
X20240238Y-10891738D01*
X20240238Y-10882214D01*
X20245000Y-10867928D01*
X20249762Y-10863167D01*
X20249762Y-10825071D02*
X20245000Y-10820309D01*
X20240238Y-10810786D01*
X20240238Y-10786976D01*
X20245000Y-10777452D01*
X20249762Y-10772690D01*
X20259286Y-10767928D01*
X20268810Y-10767928D01*
X20283095Y-10772690D01*
X20340238Y-10829833D01*
X20340238Y-10767928D01*
G04 #@! TO.C,R33*
X15255238Y-11854286D02*
X15207619Y-11887619D01*
X15255238Y-11911428D02*
X15155238Y-11911428D01*
X15155238Y-11873333D01*
X15160000Y-11863809D01*
X15164762Y-11859048D01*
X15174286Y-11854286D01*
X15188571Y-11854286D01*
X15198095Y-11859048D01*
X15202857Y-11863809D01*
X15207619Y-11873333D01*
X15207619Y-11911428D01*
X15155238Y-11820952D02*
X15155238Y-11759048D01*
X15193333Y-11792381D01*
X15193333Y-11778095D01*
X15198095Y-11768571D01*
X15202857Y-11763809D01*
X15212381Y-11759048D01*
X15236190Y-11759048D01*
X15245714Y-11763809D01*
X15250476Y-11768571D01*
X15255238Y-11778095D01*
X15255238Y-11806667D01*
X15250476Y-11816190D01*
X15245714Y-11820952D01*
X15155238Y-11725714D02*
X15155238Y-11663809D01*
X15193333Y-11697143D01*
X15193333Y-11682857D01*
X15198095Y-11673333D01*
X15202857Y-11668571D01*
X15212381Y-11663809D01*
X15236190Y-11663809D01*
X15245714Y-11668571D01*
X15250476Y-11673333D01*
X15255238Y-11682857D01*
X15255238Y-11711428D01*
X15250476Y-11720952D01*
X15245714Y-11725714D01*
G04 #@! TO.C,R32*
X14963310Y-11531519D02*
X14973412Y-11474277D01*
X14922904Y-11491113D02*
X14993615Y-11420403D01*
X15020552Y-11447340D01*
X15023920Y-11457441D01*
X15023920Y-11464176D01*
X15020552Y-11474277D01*
X15010451Y-11484379D01*
X15000349Y-11487746D01*
X14993615Y-11487746D01*
X14983513Y-11484379D01*
X14956576Y-11457441D01*
X15057591Y-11484379D02*
X15101365Y-11528152D01*
X15050857Y-11531519D01*
X15060958Y-11541621D01*
X15064326Y-11551722D01*
X15064326Y-11558457D01*
X15060958Y-11568558D01*
X15044123Y-11585394D01*
X15034021Y-11588761D01*
X15027287Y-11588761D01*
X15017185Y-11585394D01*
X14996982Y-11565191D01*
X14993615Y-11555090D01*
X14993615Y-11548355D01*
X15121568Y-11561824D02*
X15128302Y-11561824D01*
X15138403Y-11565191D01*
X15155239Y-11582027D01*
X15158607Y-11592128D01*
X15158607Y-11598863D01*
X15155239Y-11608964D01*
X15148505Y-11615699D01*
X15135036Y-11622433D01*
X15054224Y-11622433D01*
X15097997Y-11666206D01*
G04 #@! TO.C,Q2*
X14663743Y-11368188D02*
X14660376Y-11358087D01*
X14660376Y-11344618D01*
X14660376Y-11324415D01*
X14657009Y-11314313D01*
X14650274Y-11307579D01*
X14636806Y-11327782D02*
X14633438Y-11317680D01*
X14633438Y-11304212D01*
X14643540Y-11287376D01*
X14667110Y-11263806D01*
X14683946Y-11253704D01*
X14697415Y-11253704D01*
X14707516Y-11257071D01*
X14720985Y-11270540D01*
X14724352Y-11280642D01*
X14724352Y-11294110D01*
X14714251Y-11310946D01*
X14690680Y-11334516D01*
X14673845Y-11344618D01*
X14660376Y-11344618D01*
X14650274Y-11341251D01*
X14636806Y-11327782D01*
X14758024Y-11321048D02*
X14764758Y-11321048D01*
X14774860Y-11324415D01*
X14791696Y-11341251D01*
X14795063Y-11351352D01*
X14795063Y-11358087D01*
X14791696Y-11368188D01*
X14784961Y-11374922D01*
X14771493Y-11381657D01*
X14690680Y-11381657D01*
X14734454Y-11425430D01*
G04 #@! TO.C,J10*
X14764280Y-9759236D02*
X14713773Y-9809743D01*
X14700304Y-9816477D01*
X14686835Y-9816477D01*
X14673367Y-9809743D01*
X14666632Y-9803009D01*
X14764280Y-9900657D02*
X14723874Y-9860251D01*
X14744077Y-9880454D02*
X14814788Y-9809743D01*
X14797952Y-9813110D01*
X14784483Y-9813110D01*
X14774382Y-9809743D01*
X14878764Y-9873719D02*
X14885499Y-9880454D01*
X14888866Y-9890555D01*
X14888866Y-9897290D01*
X14885499Y-9907391D01*
X14875397Y-9924227D01*
X14858561Y-9941063D01*
X14841725Y-9951164D01*
X14831624Y-9954532D01*
X14824890Y-9954532D01*
X14814788Y-9951164D01*
X14808054Y-9944430D01*
X14804687Y-9934329D01*
X14804687Y-9927594D01*
X14808054Y-9917493D01*
X14818155Y-9900657D01*
X14834991Y-9883821D01*
X14851827Y-9873719D01*
X14861929Y-9870352D01*
X14868663Y-9870352D01*
X14878764Y-9873719D01*
G04 #@! TO.C,U2*
X19140238Y-5876190D02*
X19221190Y-5876190D01*
X19230714Y-5871428D01*
X19235476Y-5866667D01*
X19240238Y-5857143D01*
X19240238Y-5838095D01*
X19235476Y-5828571D01*
X19230714Y-5823809D01*
X19221190Y-5819048D01*
X19140238Y-5819048D01*
X19149762Y-5776190D02*
X19145000Y-5771428D01*
X19140238Y-5761905D01*
X19140238Y-5738095D01*
X19145000Y-5728571D01*
X19149762Y-5723809D01*
X19159286Y-5719048D01*
X19168810Y-5719048D01*
X19183095Y-5723809D01*
X19240238Y-5780952D01*
X19240238Y-5719048D01*
G04 #@! TO.C,U4*
X16585238Y-5846190D02*
X16666190Y-5846190D01*
X16675714Y-5841428D01*
X16680476Y-5836667D01*
X16685238Y-5827143D01*
X16685238Y-5808095D01*
X16680476Y-5798571D01*
X16675714Y-5793809D01*
X16666190Y-5789048D01*
X16585238Y-5789048D01*
X16618571Y-5698571D02*
X16685238Y-5698571D01*
X16580476Y-5722381D02*
X16651905Y-5746190D01*
X16651905Y-5684286D01*
G04 #@! TO.C,SW1*
X20095498Y-6639940D02*
X20102232Y-6653409D01*
X20119068Y-6670245D01*
X20129170Y-6673612D01*
X20135904Y-6673612D01*
X20146006Y-6670245D01*
X20152740Y-6663510D01*
X20156107Y-6653409D01*
X20156107Y-6646674D01*
X20152740Y-6636573D01*
X20142638Y-6619737D01*
X20139271Y-6609635D01*
X20139271Y-6602901D01*
X20142638Y-6592800D01*
X20149373Y-6586065D01*
X20159474Y-6582698D01*
X20166209Y-6582698D01*
X20176310Y-6586065D01*
X20193146Y-6602901D01*
X20199880Y-6616370D01*
X20226818Y-6636573D02*
X20172943Y-6724119D01*
X20236919Y-6687080D01*
X20199880Y-6751057D01*
X20287427Y-6697182D01*
X20280693Y-6831869D02*
X20240287Y-6791463D01*
X20260490Y-6811666D02*
X20331200Y-6740955D01*
X20314364Y-6744322D01*
X20300896Y-6744322D01*
X20290794Y-6740955D01*
G04 #@! TO.C,SW2*
X16114140Y-6422102D02*
X16127609Y-6415367D01*
X16144445Y-6398532D01*
X16147812Y-6388430D01*
X16147812Y-6381696D01*
X16144445Y-6371594D01*
X16137710Y-6364860D01*
X16127609Y-6361493D01*
X16120874Y-6361493D01*
X16110773Y-6364860D01*
X16093937Y-6374961D01*
X16083835Y-6378329D01*
X16077101Y-6378329D01*
X16067000Y-6374961D01*
X16060265Y-6368227D01*
X16056898Y-6358125D01*
X16056898Y-6351391D01*
X16060265Y-6341290D01*
X16077101Y-6324454D01*
X16090570Y-6317719D01*
X16110773Y-6290782D02*
X16198319Y-6344657D01*
X16161280Y-6280680D01*
X16225257Y-6317719D01*
X16171382Y-6230173D01*
X16201687Y-6213337D02*
X16201687Y-6206603D01*
X16205054Y-6196501D01*
X16221890Y-6179665D01*
X16231991Y-6176298D01*
X16238725Y-6176298D01*
X16248827Y-6179665D01*
X16255561Y-6186400D01*
X16262296Y-6199868D01*
X16262296Y-6280680D01*
X16306069Y-6236907D01*
G04 #@! TO.C,D4*
X14729797Y-6474179D02*
X14659086Y-6403469D01*
X14675922Y-6386633D01*
X14689391Y-6379898D01*
X14702859Y-6379898D01*
X14712961Y-6383266D01*
X14729797Y-6393367D01*
X14739898Y-6403469D01*
X14750000Y-6420304D01*
X14753367Y-6430406D01*
X14753367Y-6443875D01*
X14746633Y-6457343D01*
X14729797Y-6474179D01*
X14783672Y-6326024D02*
X14830812Y-6373164D01*
X14739898Y-6315922D02*
X14773570Y-6383266D01*
X14817343Y-6339492D01*
G04 #@! TO.C,D5*
X16294797Y-4979179D02*
X16224086Y-4908469D01*
X16240922Y-4891633D01*
X16254391Y-4884898D01*
X16267859Y-4884898D01*
X16277961Y-4888266D01*
X16294797Y-4898367D01*
X16304898Y-4908469D01*
X16315000Y-4925305D01*
X16318367Y-4935406D01*
X16318367Y-4948875D01*
X16311633Y-4962344D01*
X16294797Y-4979179D01*
X16328469Y-4804086D02*
X16294797Y-4837758D01*
X16325101Y-4874797D01*
X16325101Y-4868063D01*
X16328469Y-4857961D01*
X16345304Y-4841125D01*
X16355406Y-4837758D01*
X16362140Y-4837758D01*
X16372242Y-4841125D01*
X16389078Y-4857961D01*
X16392445Y-4868063D01*
X16392445Y-4874797D01*
X16389078Y-4884898D01*
X16372242Y-4901734D01*
X16362140Y-4905102D01*
X16355406Y-4905102D01*
G04 #@! TO.C,D6*
X16908190Y-3929238D02*
X16908190Y-3829238D01*
X16932000Y-3829238D01*
X16946286Y-3834000D01*
X16955810Y-3843524D01*
X16960571Y-3853048D01*
X16965333Y-3872095D01*
X16965333Y-3886381D01*
X16960571Y-3905428D01*
X16955810Y-3914952D01*
X16946286Y-3924476D01*
X16932000Y-3929238D01*
X16908190Y-3929238D01*
X17051048Y-3829238D02*
X17032000Y-3829238D01*
X17022476Y-3834000D01*
X17017714Y-3838762D01*
X17008190Y-3853048D01*
X17003429Y-3872095D01*
X17003429Y-3910190D01*
X17008190Y-3919714D01*
X17012952Y-3924476D01*
X17022476Y-3929238D01*
X17041524Y-3929238D01*
X17051048Y-3924476D01*
X17055810Y-3919714D01*
X17060571Y-3910190D01*
X17060571Y-3886381D01*
X17055810Y-3876857D01*
X17051048Y-3872095D01*
X17041524Y-3867333D01*
X17022476Y-3867333D01*
X17012952Y-3872095D01*
X17008190Y-3876857D01*
X17003429Y-3886381D01*
G04 #@! TO.C,D7*
X18620590Y-3956838D02*
X18620590Y-3856838D01*
X18644400Y-3856838D01*
X18658686Y-3861600D01*
X18668210Y-3871124D01*
X18672971Y-3880648D01*
X18677733Y-3899695D01*
X18677733Y-3913981D01*
X18672971Y-3933028D01*
X18668210Y-3942552D01*
X18658686Y-3952076D01*
X18644400Y-3956838D01*
X18620590Y-3956838D01*
X18711067Y-3856838D02*
X18777733Y-3856838D01*
X18734876Y-3956838D01*
G04 #@! TO.C,D8*
X19548504Y-4852509D02*
X19619214Y-4781798D01*
X19636050Y-4798634D01*
X19642785Y-4812103D01*
X19642785Y-4825571D01*
X19639418Y-4835673D01*
X19629316Y-4852509D01*
X19619214Y-4862610D01*
X19602379Y-4872712D01*
X19592277Y-4876079D01*
X19578808Y-4876079D01*
X19565340Y-4869345D01*
X19548504Y-4852509D01*
X19669722Y-4892915D02*
X19666355Y-4882813D01*
X19666355Y-4876079D01*
X19669722Y-4865977D01*
X19673089Y-4862610D01*
X19683191Y-4859243D01*
X19689925Y-4859243D01*
X19700027Y-4862610D01*
X19713495Y-4876079D01*
X19716863Y-4886180D01*
X19716863Y-4892915D01*
X19713495Y-4903016D01*
X19710128Y-4906383D01*
X19700027Y-4909751D01*
X19693292Y-4909751D01*
X19683191Y-4906383D01*
X19669722Y-4892915D01*
X19659621Y-4889548D01*
X19652886Y-4889548D01*
X19642785Y-4892915D01*
X19629316Y-4906383D01*
X19625949Y-4916485D01*
X19625949Y-4923219D01*
X19629316Y-4933321D01*
X19642785Y-4946790D01*
X19652886Y-4950157D01*
X19659621Y-4950157D01*
X19669722Y-4946790D01*
X19683191Y-4933321D01*
X19686558Y-4923219D01*
X19686558Y-4916485D01*
X19683191Y-4906383D01*
G04 #@! TO.C,D9*
X21200821Y-6389797D02*
X21271531Y-6319086D01*
X21288367Y-6335922D01*
X21295102Y-6349391D01*
X21295102Y-6362859D01*
X21291734Y-6372961D01*
X21281633Y-6389797D01*
X21271531Y-6399898D01*
X21254695Y-6410000D01*
X21244594Y-6413367D01*
X21231125Y-6413367D01*
X21217656Y-6406633D01*
X21200821Y-6389797D01*
X21274898Y-6463875D02*
X21288367Y-6477343D01*
X21298469Y-6480711D01*
X21305203Y-6480711D01*
X21322039Y-6477343D01*
X21338875Y-6467242D01*
X21365812Y-6440304D01*
X21369179Y-6430203D01*
X21369179Y-6423469D01*
X21365812Y-6413367D01*
X21352344Y-6399898D01*
X21342242Y-6396531D01*
X21335508Y-6396531D01*
X21325406Y-6399898D01*
X21308570Y-6416734D01*
X21305203Y-6426836D01*
X21305203Y-6433570D01*
X21308570Y-6443672D01*
X21322039Y-6457140D01*
X21332140Y-6460508D01*
X21338875Y-6460508D01*
X21348976Y-6457140D01*
G04 #@! TO.C,J1*
X20743867Y-9879038D02*
X20743867Y-9950467D01*
X20739105Y-9964752D01*
X20729581Y-9974276D01*
X20715295Y-9979038D01*
X20705771Y-9979038D01*
X20843867Y-9979038D02*
X20786724Y-9979038D01*
X20815295Y-9979038D02*
X20815295Y-9879038D01*
X20805771Y-9893324D01*
X20796248Y-9902848D01*
X20786724Y-9907610D01*
G04 #@! TO.C,J2*
X22115467Y-10822238D02*
X22115467Y-10893667D01*
X22110705Y-10907952D01*
X22101181Y-10917476D01*
X22086895Y-10922238D01*
X22077371Y-10922238D01*
X22158324Y-10831762D02*
X22163086Y-10827000D01*
X22172610Y-10822238D01*
X22196419Y-10822238D01*
X22205943Y-10827000D01*
X22210705Y-10831762D01*
X22215467Y-10841286D01*
X22215467Y-10850810D01*
X22210705Y-10865095D01*
X22153562Y-10922238D01*
X22215467Y-10922238D01*
G04 #@! TO.C,J3*
X21759867Y-11132238D02*
X21759867Y-11203667D01*
X21755105Y-11217952D01*
X21745581Y-11227476D01*
X21731295Y-11232238D01*
X21721771Y-11232238D01*
X21797962Y-11132238D02*
X21859867Y-11132238D01*
X21826533Y-11170333D01*
X21840819Y-11170333D01*
X21850343Y-11175095D01*
X21855105Y-11179857D01*
X21859867Y-11189381D01*
X21859867Y-11213190D01*
X21855105Y-11222714D01*
X21850343Y-11227476D01*
X21840819Y-11232238D01*
X21812248Y-11232238D01*
X21802724Y-11227476D01*
X21797962Y-11222714D01*
G04 #@! TO.C,J4*
X15557707Y-4099848D02*
X15608215Y-4150355D01*
X15614949Y-4163824D01*
X15614949Y-4177293D01*
X15608215Y-4190761D01*
X15601481Y-4197496D01*
X15645254Y-4059442D02*
X15692394Y-4106582D01*
X15601481Y-4049340D02*
X15635152Y-4116683D01*
X15678926Y-4072910D01*
G04 #@! TO.C,J5*
X19023667Y-3625238D02*
X19023667Y-3696667D01*
X19018905Y-3710952D01*
X19009381Y-3720476D01*
X18995095Y-3725238D01*
X18985571Y-3725238D01*
X19118905Y-3625238D02*
X19071286Y-3625238D01*
X19066524Y-3672857D01*
X19071286Y-3668095D01*
X19080810Y-3663333D01*
X19104619Y-3663333D01*
X19114143Y-3668095D01*
X19118905Y-3672857D01*
X19123667Y-3682381D01*
X19123667Y-3706190D01*
X19118905Y-3715714D01*
X19114143Y-3720476D01*
X19104619Y-3725238D01*
X19080810Y-3725238D01*
X19071286Y-3720476D01*
X19066524Y-3715714D01*
G04 #@! TO.C,J6*
X21860152Y-5557707D02*
X21809645Y-5608215D01*
X21796176Y-5614949D01*
X21782707Y-5614949D01*
X21769238Y-5608215D01*
X21762504Y-5601480D01*
X21924129Y-5621683D02*
X21910660Y-5608215D01*
X21900558Y-5604848D01*
X21893824Y-5604848D01*
X21876988Y-5608215D01*
X21860152Y-5618316D01*
X21833215Y-5645254D01*
X21829848Y-5655355D01*
X21829848Y-5662090D01*
X21833215Y-5672191D01*
X21846683Y-5685660D01*
X21856785Y-5689027D01*
X21863519Y-5689027D01*
X21873621Y-5685660D01*
X21890457Y-5668824D01*
X21893824Y-5658722D01*
X21893824Y-5651988D01*
X21890457Y-5641887D01*
X21876988Y-5628418D01*
X21866887Y-5625051D01*
X21860152Y-5625051D01*
X21850051Y-5628418D01*
G04 #@! TO.C,J9*
X16570238Y-12289333D02*
X16641667Y-12289333D01*
X16655952Y-12294095D01*
X16665476Y-12303619D01*
X16670238Y-12317905D01*
X16670238Y-12327428D01*
X16670238Y-12236952D02*
X16670238Y-12217905D01*
X16665476Y-12208381D01*
X16660714Y-12203619D01*
X16646428Y-12194095D01*
X16627381Y-12189333D01*
X16589286Y-12189333D01*
X16579762Y-12194095D01*
X16575000Y-12198857D01*
X16570238Y-12208381D01*
X16570238Y-12227428D01*
X16575000Y-12236952D01*
X16579762Y-12241714D01*
X16589286Y-12246476D01*
X16613095Y-12246476D01*
X16622619Y-12241714D01*
X16627381Y-12236952D01*
X16632143Y-12227428D01*
X16632143Y-12208381D01*
X16627381Y-12198857D01*
X16622619Y-12194095D01*
X16613095Y-12189333D01*
G04 #@! TO.C,T1*
X15388414Y-5871369D02*
X15428820Y-5830963D01*
X15479328Y-5921877D02*
X15408617Y-5851166D01*
X15560140Y-5841064D02*
X15519734Y-5881471D01*
X15539937Y-5861267D02*
X15469226Y-5790557D01*
X15472594Y-5807393D01*
X15472594Y-5820861D01*
X15469226Y-5830963D01*
G04 #@! TO.C,T2*
X15872614Y-5434969D02*
X15913020Y-5394563D01*
X15963528Y-5485477D02*
X15892817Y-5414766D01*
X15939958Y-5381094D02*
X15939958Y-5374360D01*
X15943325Y-5364258D01*
X15960161Y-5347423D01*
X15970262Y-5344055D01*
X15976997Y-5344055D01*
X15987098Y-5347423D01*
X15993833Y-5354157D01*
X16000567Y-5367626D01*
X16000567Y-5448438D01*
X16044340Y-5404665D01*
G04 #@! TO.C,T3*
X17550810Y-3889238D02*
X17607952Y-3889238D01*
X17579381Y-3989238D02*
X17579381Y-3889238D01*
X17631762Y-3889238D02*
X17693667Y-3889238D01*
X17660333Y-3927333D01*
X17674619Y-3927333D01*
X17684143Y-3932095D01*
X17688905Y-3936857D01*
X17693667Y-3946381D01*
X17693667Y-3970190D01*
X17688905Y-3979714D01*
X17684143Y-3984476D01*
X17674619Y-3989238D01*
X17646048Y-3989238D01*
X17636524Y-3984476D01*
X17631762Y-3979714D01*
G04 #@! TO.C,T4*
X18213810Y-3890238D02*
X18270952Y-3890238D01*
X18242381Y-3990238D02*
X18242381Y-3890238D01*
X18347143Y-3923571D02*
X18347143Y-3990238D01*
X18323333Y-3885476D02*
X18299524Y-3956905D01*
X18361429Y-3956905D01*
G04 #@! TO.C,T5*
X20476831Y-5739814D02*
X20517237Y-5780220D01*
X20426323Y-5830728D02*
X20497034Y-5760017D01*
X20574479Y-5837462D02*
X20540807Y-5803791D01*
X20503768Y-5834095D01*
X20510503Y-5834095D01*
X20520604Y-5837462D01*
X20537440Y-5854298D01*
X20540807Y-5864400D01*
X20540807Y-5871134D01*
X20537440Y-5881236D01*
X20520604Y-5898072D01*
X20510503Y-5901439D01*
X20503768Y-5901439D01*
X20493667Y-5898072D01*
X20476831Y-5881236D01*
X20473464Y-5871134D01*
X20473464Y-5864400D01*
G04 #@! TO.C,T6*
X20025031Y-5287614D02*
X20065437Y-5328020D01*
X19974523Y-5378528D02*
X20045234Y-5307817D01*
X20119312Y-5381895D02*
X20105843Y-5368427D01*
X20095742Y-5365059D01*
X20089007Y-5365059D01*
X20072171Y-5368427D01*
X20055335Y-5378528D01*
X20028398Y-5405466D01*
X20025031Y-5415567D01*
X20025031Y-5422301D01*
X20028398Y-5432403D01*
X20041867Y-5445872D01*
X20051968Y-5449239D01*
X20058703Y-5449239D01*
X20068804Y-5445872D01*
X20085640Y-5429036D01*
X20089007Y-5418934D01*
X20089007Y-5412200D01*
X20085640Y-5402098D01*
X20072171Y-5388630D01*
X20062070Y-5385262D01*
X20055335Y-5385262D01*
X20045234Y-5388630D01*
G04 #@! TO.C,U9*
X18479238Y-9569190D02*
X18560191Y-9569190D01*
X18569714Y-9564429D01*
X18574476Y-9559667D01*
X18579238Y-9550143D01*
X18579238Y-9531095D01*
X18574476Y-9521571D01*
X18569714Y-9516810D01*
X18560191Y-9512048D01*
X18479238Y-9512048D01*
X18579238Y-9459667D02*
X18579238Y-9440619D01*
X18574476Y-9431095D01*
X18569714Y-9426333D01*
X18555429Y-9416810D01*
X18536381Y-9412048D01*
X18498286Y-9412048D01*
X18488762Y-9416810D01*
X18484000Y-9421571D01*
X18479238Y-9431095D01*
X18479238Y-9450143D01*
X18484000Y-9459667D01*
X18488762Y-9464429D01*
X18498286Y-9469190D01*
X18522095Y-9469190D01*
X18531619Y-9464429D01*
X18536381Y-9459667D01*
X18541143Y-9450143D01*
X18541143Y-9431095D01*
X18536381Y-9421571D01*
X18531619Y-9416810D01*
X18522095Y-9412048D01*
G04 #@! TO.C,U10*
X15386190Y-10630238D02*
X15386190Y-10711190D01*
X15390952Y-10720714D01*
X15395714Y-10725476D01*
X15405238Y-10730238D01*
X15424286Y-10730238D01*
X15433809Y-10725476D01*
X15438571Y-10720714D01*
X15443333Y-10711190D01*
X15443333Y-10630238D01*
X15543333Y-10730238D02*
X15486190Y-10730238D01*
X15514762Y-10730238D02*
X15514762Y-10630238D01*
X15505238Y-10644524D01*
X15495714Y-10654048D01*
X15486190Y-10658810D01*
X15605238Y-10630238D02*
X15614762Y-10630238D01*
X15624286Y-10635000D01*
X15629048Y-10639762D01*
X15633809Y-10649286D01*
X15638571Y-10668333D01*
X15638571Y-10692143D01*
X15633809Y-10711190D01*
X15629048Y-10720714D01*
X15624286Y-10725476D01*
X15614762Y-10730238D01*
X15605238Y-10730238D01*
X15595714Y-10725476D01*
X15590952Y-10720714D01*
X15586190Y-10711190D01*
X15581428Y-10692143D01*
X15581428Y-10668333D01*
X15586190Y-10649286D01*
X15590952Y-10639762D01*
X15595714Y-10635000D01*
X15605238Y-10630238D01*
G04 #@! TD*
M02*
