G04 #@! TF.GenerationSoftware,KiCad,Pcbnew,(5.0.2)-1*
G04 #@! TF.CreationDate,2021-04-12T18:59:32+02:00*
G04 #@! TF.ProjectId,Squick,53717569-636b-42e6-9b69-6361645f7063,rev?*
G04 #@! TF.SameCoordinates,Original*
G04 #@! TF.FileFunction,Soldermask,Bot*
G04 #@! TF.FilePolarity,Negative*
%FSLAX45Y45*%
G04 Gerber Fmt 4.5, Leading zero omitted, Abs format (unit mm)*
G04 Created by KiCad (PCBNEW (5.0.2)-1) date 12.04.2021 18:59:32*
%MOMM*%
%LPD*%
G01*
G04 APERTURE LIST*
%ADD10C,0.100000*%
G04 APERTURE END LIST*
D10*
G36*
X16438100Y-12346100D02*
X16257900Y-12346100D01*
X16257900Y-12165900D01*
X16438100Y-12165900D01*
X16438100Y-12346100D01*
X16438100Y-12346100D01*
G37*
G36*
X16105044Y-12166552D02*
X16111663Y-12167204D01*
X16122985Y-12170638D01*
X16128647Y-12172356D01*
X16142509Y-12179765D01*
X16144299Y-12180722D01*
X16147873Y-12183655D01*
X16158019Y-12191981D01*
X16166345Y-12202127D01*
X16169278Y-12205701D01*
X16169278Y-12205701D01*
X16177644Y-12221353D01*
X16177644Y-12221353D01*
X16182796Y-12238337D01*
X16184536Y-12256000D01*
X16182796Y-12273663D01*
X16179362Y-12284985D01*
X16177644Y-12290647D01*
X16170235Y-12304509D01*
X16169278Y-12306299D01*
X16166345Y-12309873D01*
X16158019Y-12320019D01*
X16147873Y-12328345D01*
X16144299Y-12331278D01*
X16144299Y-12331278D01*
X16128647Y-12339644D01*
X16122985Y-12341362D01*
X16111663Y-12344796D01*
X16105044Y-12345448D01*
X16098426Y-12346100D01*
X16089574Y-12346100D01*
X16082956Y-12345448D01*
X16076337Y-12344796D01*
X16065015Y-12341362D01*
X16059353Y-12339644D01*
X16043701Y-12331278D01*
X16043701Y-12331278D01*
X16040127Y-12328345D01*
X16029981Y-12320019D01*
X16021655Y-12309873D01*
X16018722Y-12306299D01*
X16017765Y-12304509D01*
X16010356Y-12290647D01*
X16008638Y-12284985D01*
X16005204Y-12273663D01*
X16003464Y-12256000D01*
X16005204Y-12238337D01*
X16010356Y-12221353D01*
X16010356Y-12221353D01*
X16018722Y-12205701D01*
X16018722Y-12205701D01*
X16021655Y-12202127D01*
X16029981Y-12191981D01*
X16040127Y-12183655D01*
X16043701Y-12180722D01*
X16045491Y-12179765D01*
X16059353Y-12172356D01*
X16065015Y-12170638D01*
X16076337Y-12167204D01*
X16082956Y-12166552D01*
X16089574Y-12165900D01*
X16098426Y-12165900D01*
X16105044Y-12166552D01*
X16105044Y-12166552D01*
G37*
G36*
X15631044Y-11968552D02*
X15637663Y-11969204D01*
X15648985Y-11972638D01*
X15654647Y-11974356D01*
X15668509Y-11981765D01*
X15670299Y-11982722D01*
X15673873Y-11985655D01*
X15684019Y-11993981D01*
X15692345Y-12004127D01*
X15695278Y-12007701D01*
X15695278Y-12007701D01*
X15703644Y-12023353D01*
X15703644Y-12023353D01*
X15708796Y-12040337D01*
X15710536Y-12058000D01*
X15708796Y-12075663D01*
X15705362Y-12086985D01*
X15703644Y-12092647D01*
X15696235Y-12106509D01*
X15695278Y-12108299D01*
X15692345Y-12111873D01*
X15684019Y-12122018D01*
X15673873Y-12130345D01*
X15670299Y-12133278D01*
X15670299Y-12133278D01*
X15654647Y-12141644D01*
X15648985Y-12143361D01*
X15637663Y-12146796D01*
X15631044Y-12147448D01*
X15624426Y-12148100D01*
X15615574Y-12148100D01*
X15608956Y-12147448D01*
X15602337Y-12146796D01*
X15591015Y-12143361D01*
X15585353Y-12141644D01*
X15569701Y-12133278D01*
X15569701Y-12133278D01*
X15566127Y-12130345D01*
X15555981Y-12122018D01*
X15547655Y-12111873D01*
X15544722Y-12108299D01*
X15543765Y-12106509D01*
X15536356Y-12092647D01*
X15534638Y-12086985D01*
X15531204Y-12075663D01*
X15529464Y-12058000D01*
X15531204Y-12040337D01*
X15536356Y-12023353D01*
X15536356Y-12023353D01*
X15544722Y-12007701D01*
X15544722Y-12007701D01*
X15547655Y-12004127D01*
X15555981Y-11993981D01*
X15566127Y-11985655D01*
X15569701Y-11982722D01*
X15571491Y-11981765D01*
X15585353Y-11974356D01*
X15591015Y-11972638D01*
X15602337Y-11969204D01*
X15608956Y-11968552D01*
X15615574Y-11967900D01*
X15624426Y-11967900D01*
X15631044Y-11968552D01*
X15631044Y-11968552D01*
G37*
G36*
X17064194Y-11821604D02*
X17067943Y-11822741D01*
X17071399Y-11824589D01*
X17074428Y-11827075D01*
X17076914Y-11830104D01*
X17078762Y-11833560D01*
X17079899Y-11837310D01*
X17080344Y-11841823D01*
X17080344Y-11905696D01*
X17079899Y-11910209D01*
X17078762Y-11913959D01*
X17076914Y-11917415D01*
X17074428Y-11920444D01*
X17071399Y-11922930D01*
X17067943Y-11924778D01*
X17064194Y-11925915D01*
X17059680Y-11926359D01*
X16985808Y-11926359D01*
X16981294Y-11925915D01*
X16977544Y-11924778D01*
X16974088Y-11922930D01*
X16971059Y-11920444D01*
X16968573Y-11917415D01*
X16966726Y-11913959D01*
X16965588Y-11910209D01*
X16965144Y-11905696D01*
X16965144Y-11841823D01*
X16965588Y-11837310D01*
X16966726Y-11833560D01*
X16968573Y-11830104D01*
X16971059Y-11827075D01*
X16974088Y-11824589D01*
X16977544Y-11822741D01*
X16981294Y-11821604D01*
X16985808Y-11821159D01*
X17059680Y-11821159D01*
X17064194Y-11821604D01*
X17064194Y-11821604D01*
G37*
G36*
X17239194Y-11821604D02*
X17242943Y-11822741D01*
X17246399Y-11824589D01*
X17249428Y-11827075D01*
X17251914Y-11830104D01*
X17253762Y-11833560D01*
X17254899Y-11837310D01*
X17255344Y-11841823D01*
X17255344Y-11905696D01*
X17254899Y-11910209D01*
X17253762Y-11913959D01*
X17251914Y-11917415D01*
X17249428Y-11920444D01*
X17246399Y-11922930D01*
X17242943Y-11924778D01*
X17239194Y-11925915D01*
X17234680Y-11926359D01*
X17160808Y-11926359D01*
X17156294Y-11925915D01*
X17152544Y-11924778D01*
X17149088Y-11922930D01*
X17146059Y-11920444D01*
X17143573Y-11917415D01*
X17141726Y-11913959D01*
X17140588Y-11910209D01*
X17140144Y-11905696D01*
X17140144Y-11841823D01*
X17140588Y-11837310D01*
X17141726Y-11833560D01*
X17143573Y-11830104D01*
X17146059Y-11827075D01*
X17149088Y-11824589D01*
X17152544Y-11822741D01*
X17156294Y-11821604D01*
X17160808Y-11821159D01*
X17234680Y-11821159D01*
X17239194Y-11821604D01*
X17239194Y-11821604D01*
G37*
G36*
X17437694Y-11813604D02*
X17441443Y-11814741D01*
X17444900Y-11816589D01*
X17447929Y-11819075D01*
X17450414Y-11822104D01*
X17452262Y-11825560D01*
X17453399Y-11829310D01*
X17453844Y-11833823D01*
X17453844Y-11897696D01*
X17453399Y-11902209D01*
X17452262Y-11905959D01*
X17450414Y-11909415D01*
X17447929Y-11912444D01*
X17444900Y-11914930D01*
X17441443Y-11916778D01*
X17437694Y-11917915D01*
X17433180Y-11918359D01*
X17359308Y-11918359D01*
X17354794Y-11917915D01*
X17351045Y-11916778D01*
X17347588Y-11914930D01*
X17344559Y-11912444D01*
X17342073Y-11909415D01*
X17340226Y-11905959D01*
X17339088Y-11902209D01*
X17338644Y-11897696D01*
X17338644Y-11833823D01*
X17339088Y-11829310D01*
X17340226Y-11825560D01*
X17342073Y-11822104D01*
X17344559Y-11819075D01*
X17347588Y-11816589D01*
X17351045Y-11814741D01*
X17354794Y-11813604D01*
X17359308Y-11813159D01*
X17433180Y-11813159D01*
X17437694Y-11813604D01*
X17437694Y-11813604D01*
G37*
G36*
X17612694Y-11813604D02*
X17616443Y-11814741D01*
X17619900Y-11816589D01*
X17622929Y-11819075D01*
X17625414Y-11822104D01*
X17627262Y-11825560D01*
X17628399Y-11829310D01*
X17628844Y-11833823D01*
X17628844Y-11897696D01*
X17628399Y-11902209D01*
X17627262Y-11905959D01*
X17625414Y-11909415D01*
X17622929Y-11912444D01*
X17619900Y-11914930D01*
X17616443Y-11916778D01*
X17612694Y-11917915D01*
X17608180Y-11918359D01*
X17534308Y-11918359D01*
X17529794Y-11917915D01*
X17526045Y-11916778D01*
X17522588Y-11914930D01*
X17519559Y-11912444D01*
X17517073Y-11909415D01*
X17515226Y-11905959D01*
X17514088Y-11902209D01*
X17513644Y-11897696D01*
X17513644Y-11833823D01*
X17514088Y-11829310D01*
X17515226Y-11825560D01*
X17517073Y-11822104D01*
X17519559Y-11819075D01*
X17522588Y-11816589D01*
X17526045Y-11814741D01*
X17529794Y-11813604D01*
X17534308Y-11813159D01*
X17608180Y-11813159D01*
X17612694Y-11813604D01*
X17612694Y-11813604D01*
G37*
G36*
X16394194Y-11795604D02*
X16397943Y-11796741D01*
X16401399Y-11798589D01*
X16404428Y-11801075D01*
X16406914Y-11804104D01*
X16408762Y-11807560D01*
X16409899Y-11811309D01*
X16410344Y-11815823D01*
X16410344Y-11879696D01*
X16409899Y-11884209D01*
X16408762Y-11887959D01*
X16406914Y-11891415D01*
X16404428Y-11894444D01*
X16401399Y-11896930D01*
X16397943Y-11898777D01*
X16394194Y-11899915D01*
X16389680Y-11900359D01*
X16315807Y-11900359D01*
X16311294Y-11899915D01*
X16307544Y-11898777D01*
X16304088Y-11896930D01*
X16301059Y-11894444D01*
X16298573Y-11891415D01*
X16296726Y-11887959D01*
X16295588Y-11884209D01*
X16295144Y-11879696D01*
X16295144Y-11815823D01*
X16295588Y-11811309D01*
X16296726Y-11807560D01*
X16298573Y-11804104D01*
X16301059Y-11801075D01*
X16304088Y-11798589D01*
X16307544Y-11796741D01*
X16311294Y-11795604D01*
X16315807Y-11795159D01*
X16389680Y-11795159D01*
X16394194Y-11795604D01*
X16394194Y-11795604D01*
G37*
G36*
X16219194Y-11795604D02*
X16222943Y-11796741D01*
X16226399Y-11798589D01*
X16229428Y-11801075D01*
X16231914Y-11804104D01*
X16233762Y-11807560D01*
X16234899Y-11811309D01*
X16235344Y-11815823D01*
X16235344Y-11879696D01*
X16234899Y-11884209D01*
X16233762Y-11887959D01*
X16231914Y-11891415D01*
X16229428Y-11894444D01*
X16226399Y-11896930D01*
X16222943Y-11898777D01*
X16219194Y-11899915D01*
X16214680Y-11900359D01*
X16140807Y-11900359D01*
X16136294Y-11899915D01*
X16132544Y-11898777D01*
X16129088Y-11896930D01*
X16126059Y-11894444D01*
X16123573Y-11891415D01*
X16121726Y-11887959D01*
X16120588Y-11884209D01*
X16120144Y-11879696D01*
X16120144Y-11815823D01*
X16120588Y-11811309D01*
X16121726Y-11807560D01*
X16123573Y-11804104D01*
X16126059Y-11801075D01*
X16129088Y-11798589D01*
X16132544Y-11796741D01*
X16136294Y-11795604D01*
X16140807Y-11795159D01*
X16214680Y-11795159D01*
X16219194Y-11795604D01*
X16219194Y-11795604D01*
G37*
G36*
X15630798Y-11714528D02*
X15637663Y-11715204D01*
X15645747Y-11717656D01*
X15654647Y-11720356D01*
X15663062Y-11724854D01*
X15670299Y-11728722D01*
X15673873Y-11731655D01*
X15684019Y-11739981D01*
X15692345Y-11750127D01*
X15695278Y-11753701D01*
X15695278Y-11753701D01*
X15703644Y-11769353D01*
X15703644Y-11769353D01*
X15708796Y-11786337D01*
X15710536Y-11804000D01*
X15708796Y-11821663D01*
X15706236Y-11830104D01*
X15703644Y-11838647D01*
X15698934Y-11847459D01*
X15695278Y-11854299D01*
X15692345Y-11857873D01*
X15684019Y-11868019D01*
X15673873Y-11876345D01*
X15670299Y-11879278D01*
X15668509Y-11880235D01*
X15654647Y-11887644D01*
X15648985Y-11889362D01*
X15637663Y-11892796D01*
X15631044Y-11893448D01*
X15624426Y-11894100D01*
X15615574Y-11894100D01*
X15608956Y-11893448D01*
X15602337Y-11892796D01*
X15591015Y-11889362D01*
X15585353Y-11887644D01*
X15571491Y-11880235D01*
X15569701Y-11879278D01*
X15566127Y-11876345D01*
X15555981Y-11868019D01*
X15547655Y-11857873D01*
X15544722Y-11854299D01*
X15541066Y-11847459D01*
X15536356Y-11838647D01*
X15533764Y-11830104D01*
X15531204Y-11821663D01*
X15529464Y-11804000D01*
X15531204Y-11786337D01*
X15536356Y-11769353D01*
X15536356Y-11769353D01*
X15544722Y-11753701D01*
X15544722Y-11753701D01*
X15547655Y-11750127D01*
X15555981Y-11739981D01*
X15566127Y-11731655D01*
X15569701Y-11728722D01*
X15576938Y-11724854D01*
X15585353Y-11720356D01*
X15594252Y-11717656D01*
X15602337Y-11715204D01*
X15609202Y-11714528D01*
X15615574Y-11713900D01*
X15624426Y-11713900D01*
X15630798Y-11714528D01*
X15630798Y-11714528D01*
G37*
G36*
X18431444Y-11610604D02*
X18435193Y-11611741D01*
X18438649Y-11613589D01*
X18441678Y-11616075D01*
X18444164Y-11619104D01*
X18446012Y-11622560D01*
X18447149Y-11626309D01*
X18447594Y-11630823D01*
X18447594Y-11704695D01*
X18447149Y-11709209D01*
X18446012Y-11712959D01*
X18444164Y-11716415D01*
X18441678Y-11719444D01*
X18438649Y-11721930D01*
X18435193Y-11723777D01*
X18431444Y-11724915D01*
X18426930Y-11725359D01*
X18363058Y-11725359D01*
X18358544Y-11724915D01*
X18354794Y-11723777D01*
X18351338Y-11721930D01*
X18348309Y-11719444D01*
X18345823Y-11716415D01*
X18343976Y-11712959D01*
X18342838Y-11709209D01*
X18342394Y-11704695D01*
X18342394Y-11630823D01*
X18342838Y-11626309D01*
X18343976Y-11622560D01*
X18345823Y-11619104D01*
X18348309Y-11616075D01*
X18351338Y-11613589D01*
X18354794Y-11611741D01*
X18358544Y-11610604D01*
X18363058Y-11610159D01*
X18426930Y-11610159D01*
X18431444Y-11610604D01*
X18431444Y-11610604D01*
G37*
G36*
X18247444Y-11607104D02*
X18251193Y-11608241D01*
X18254649Y-11610089D01*
X18257678Y-11612575D01*
X18260164Y-11615604D01*
X18262012Y-11619060D01*
X18263149Y-11622810D01*
X18263594Y-11627323D01*
X18263594Y-11701196D01*
X18263149Y-11705709D01*
X18262012Y-11709459D01*
X18260164Y-11712915D01*
X18257678Y-11715944D01*
X18254649Y-11718430D01*
X18251193Y-11720278D01*
X18247444Y-11721415D01*
X18242930Y-11721859D01*
X18179058Y-11721859D01*
X18174544Y-11721415D01*
X18170794Y-11720278D01*
X18167338Y-11718430D01*
X18164309Y-11715944D01*
X18161823Y-11712915D01*
X18159976Y-11709459D01*
X18158838Y-11705709D01*
X18158394Y-11701196D01*
X18158394Y-11627323D01*
X18158838Y-11622810D01*
X18159976Y-11619060D01*
X18161823Y-11615604D01*
X18164309Y-11612575D01*
X18167338Y-11610089D01*
X18170794Y-11608241D01*
X18174544Y-11607104D01*
X18179058Y-11606659D01*
X18242930Y-11606659D01*
X18247444Y-11607104D01*
X18247444Y-11607104D01*
G37*
G36*
X18043444Y-11601354D02*
X18047193Y-11602491D01*
X18050649Y-11604339D01*
X18053678Y-11606825D01*
X18056164Y-11609854D01*
X18058012Y-11613310D01*
X18059149Y-11617060D01*
X18059594Y-11621573D01*
X18059594Y-11695446D01*
X18059149Y-11699959D01*
X18058012Y-11703709D01*
X18056164Y-11707165D01*
X18053678Y-11710194D01*
X18050649Y-11712680D01*
X18047193Y-11714528D01*
X18043444Y-11715665D01*
X18038930Y-11716109D01*
X17975058Y-11716109D01*
X17970544Y-11715665D01*
X17966794Y-11714528D01*
X17963338Y-11712680D01*
X17960309Y-11710194D01*
X17957823Y-11707165D01*
X17955976Y-11703709D01*
X17954838Y-11699959D01*
X17954394Y-11695446D01*
X17954394Y-11621573D01*
X17954838Y-11617060D01*
X17955976Y-11613310D01*
X17957823Y-11609854D01*
X17960309Y-11606825D01*
X17963338Y-11604339D01*
X17966794Y-11602491D01*
X17970544Y-11601354D01*
X17975058Y-11600909D01*
X18038930Y-11600909D01*
X18043444Y-11601354D01*
X18043444Y-11601354D01*
G37*
G36*
X17848968Y-11599310D02*
X17852717Y-11600448D01*
X17856174Y-11602295D01*
X17859203Y-11604781D01*
X17861689Y-11607810D01*
X17863536Y-11611267D01*
X17864674Y-11615016D01*
X17865118Y-11619530D01*
X17865118Y-11693402D01*
X17864674Y-11697916D01*
X17863536Y-11701665D01*
X17861689Y-11705122D01*
X17859203Y-11708151D01*
X17856174Y-11710636D01*
X17852717Y-11712484D01*
X17848968Y-11713621D01*
X17844454Y-11714066D01*
X17780582Y-11714066D01*
X17776068Y-11713621D01*
X17772319Y-11712484D01*
X17768862Y-11710636D01*
X17765833Y-11708151D01*
X17763348Y-11705122D01*
X17761500Y-11701665D01*
X17760363Y-11697916D01*
X17759918Y-11693402D01*
X17759918Y-11619530D01*
X17760363Y-11615016D01*
X17761500Y-11611267D01*
X17763348Y-11607810D01*
X17765833Y-11604781D01*
X17768862Y-11602295D01*
X17772319Y-11600448D01*
X17776068Y-11599310D01*
X17780582Y-11598866D01*
X17844454Y-11598866D01*
X17848968Y-11599310D01*
X17848968Y-11599310D01*
G37*
G36*
X17661968Y-11597310D02*
X17665717Y-11598448D01*
X17669174Y-11600295D01*
X17672203Y-11602781D01*
X17674689Y-11605810D01*
X17676536Y-11609267D01*
X17677674Y-11613016D01*
X17678118Y-11617530D01*
X17678118Y-11691402D01*
X17677674Y-11695916D01*
X17676536Y-11699665D01*
X17674689Y-11703122D01*
X17672203Y-11706151D01*
X17669174Y-11708637D01*
X17665717Y-11710484D01*
X17661968Y-11711621D01*
X17657454Y-11712066D01*
X17593582Y-11712066D01*
X17589068Y-11711621D01*
X17585319Y-11710484D01*
X17581862Y-11708637D01*
X17578833Y-11706151D01*
X17576347Y-11703122D01*
X17574500Y-11699665D01*
X17573363Y-11695916D01*
X17572918Y-11691402D01*
X17572918Y-11617530D01*
X17573363Y-11613016D01*
X17574500Y-11609267D01*
X17576347Y-11605810D01*
X17578833Y-11602781D01*
X17581862Y-11600295D01*
X17585319Y-11598448D01*
X17589068Y-11597310D01*
X17593582Y-11596866D01*
X17657454Y-11596866D01*
X17661968Y-11597310D01*
X17661968Y-11597310D01*
G37*
G36*
X16500444Y-11593104D02*
X16504193Y-11594241D01*
X16507649Y-11596089D01*
X16510678Y-11598575D01*
X16513164Y-11601604D01*
X16515012Y-11605060D01*
X16516149Y-11608809D01*
X16516594Y-11613323D01*
X16516594Y-11687196D01*
X16516149Y-11691709D01*
X16515012Y-11695459D01*
X16513164Y-11698915D01*
X16510678Y-11701944D01*
X16507649Y-11704430D01*
X16504193Y-11706277D01*
X16500444Y-11707415D01*
X16495930Y-11707859D01*
X16432057Y-11707859D01*
X16427544Y-11707415D01*
X16423794Y-11706277D01*
X16420338Y-11704430D01*
X16417309Y-11701944D01*
X16414823Y-11698915D01*
X16412976Y-11695459D01*
X16411838Y-11691709D01*
X16411394Y-11687196D01*
X16411394Y-11613323D01*
X16411838Y-11608809D01*
X16412976Y-11605060D01*
X16414823Y-11601604D01*
X16417309Y-11598575D01*
X16420338Y-11596089D01*
X16423794Y-11594241D01*
X16427544Y-11593104D01*
X16432057Y-11592659D01*
X16495930Y-11592659D01*
X16500444Y-11593104D01*
X16500444Y-11593104D01*
G37*
G36*
X17066468Y-11592560D02*
X17070217Y-11593698D01*
X17073674Y-11595545D01*
X17076703Y-11598031D01*
X17079189Y-11601060D01*
X17081036Y-11604517D01*
X17082173Y-11608266D01*
X17082618Y-11612780D01*
X17082618Y-11686652D01*
X17082173Y-11691166D01*
X17081036Y-11694915D01*
X17079189Y-11698372D01*
X17076703Y-11701401D01*
X17073674Y-11703886D01*
X17070217Y-11705734D01*
X17066468Y-11706871D01*
X17061954Y-11707316D01*
X16998082Y-11707316D01*
X16993568Y-11706871D01*
X16989819Y-11705734D01*
X16986362Y-11703886D01*
X16983333Y-11701401D01*
X16980847Y-11698372D01*
X16979000Y-11694915D01*
X16977862Y-11691166D01*
X16977418Y-11686652D01*
X16977418Y-11612780D01*
X16977862Y-11608266D01*
X16979000Y-11604517D01*
X16980847Y-11601060D01*
X16983333Y-11598031D01*
X16986362Y-11595545D01*
X16989819Y-11593698D01*
X16993568Y-11592560D01*
X16998082Y-11592116D01*
X17061954Y-11592116D01*
X17066468Y-11592560D01*
X17066468Y-11592560D01*
G37*
G36*
X17476968Y-11591310D02*
X17480717Y-11592448D01*
X17484174Y-11594295D01*
X17487203Y-11596781D01*
X17489689Y-11599810D01*
X17491536Y-11603267D01*
X17492674Y-11607016D01*
X17493118Y-11611530D01*
X17493118Y-11685402D01*
X17492674Y-11689916D01*
X17491536Y-11693665D01*
X17489689Y-11697122D01*
X17487203Y-11700151D01*
X17484174Y-11702637D01*
X17480717Y-11704484D01*
X17476968Y-11705621D01*
X17472454Y-11706066D01*
X17408582Y-11706066D01*
X17404068Y-11705621D01*
X17400319Y-11704484D01*
X17396862Y-11702637D01*
X17393833Y-11700151D01*
X17391347Y-11697122D01*
X17389500Y-11693665D01*
X17388363Y-11689916D01*
X17387918Y-11685402D01*
X17387918Y-11611530D01*
X17388363Y-11607016D01*
X17389500Y-11603267D01*
X17391347Y-11599810D01*
X17393833Y-11596781D01*
X17396862Y-11594295D01*
X17400319Y-11592448D01*
X17404068Y-11591310D01*
X17408582Y-11590866D01*
X17472454Y-11590866D01*
X17476968Y-11591310D01*
X17476968Y-11591310D01*
G37*
G36*
X16869968Y-11591310D02*
X16873717Y-11592448D01*
X16877174Y-11594295D01*
X16880203Y-11596781D01*
X16882689Y-11599810D01*
X16884536Y-11603267D01*
X16885674Y-11607016D01*
X16886118Y-11611530D01*
X16886118Y-11685402D01*
X16885674Y-11689916D01*
X16884536Y-11693665D01*
X16882689Y-11697122D01*
X16880203Y-11700151D01*
X16877174Y-11702637D01*
X16873717Y-11704484D01*
X16869968Y-11705621D01*
X16865454Y-11706066D01*
X16801582Y-11706066D01*
X16797068Y-11705621D01*
X16793319Y-11704484D01*
X16789862Y-11702637D01*
X16786833Y-11700151D01*
X16784347Y-11697122D01*
X16782500Y-11693665D01*
X16781363Y-11689916D01*
X16780918Y-11685402D01*
X16780918Y-11611530D01*
X16781363Y-11607016D01*
X16782500Y-11603267D01*
X16784347Y-11599810D01*
X16786833Y-11596781D01*
X16789862Y-11594295D01*
X16793319Y-11592448D01*
X16797068Y-11591310D01*
X16801582Y-11590866D01*
X16865454Y-11590866D01*
X16869968Y-11591310D01*
X16869968Y-11591310D01*
G37*
G36*
X16687444Y-11590354D02*
X16691193Y-11591491D01*
X16694649Y-11593339D01*
X16697678Y-11595825D01*
X16700164Y-11598854D01*
X16702012Y-11602310D01*
X16703149Y-11606060D01*
X16703594Y-11610573D01*
X16703594Y-11684446D01*
X16703149Y-11688959D01*
X16702012Y-11692709D01*
X16700164Y-11696165D01*
X16697678Y-11699194D01*
X16694649Y-11701680D01*
X16691193Y-11703528D01*
X16687444Y-11704665D01*
X16682930Y-11705110D01*
X16619058Y-11705110D01*
X16614544Y-11704665D01*
X16610794Y-11703528D01*
X16607338Y-11701680D01*
X16604309Y-11699194D01*
X16601823Y-11696165D01*
X16599976Y-11692709D01*
X16598838Y-11688959D01*
X16598394Y-11684446D01*
X16598394Y-11610573D01*
X16598838Y-11606060D01*
X16599976Y-11602310D01*
X16601823Y-11598854D01*
X16604309Y-11595825D01*
X16607338Y-11593339D01*
X16610794Y-11591491D01*
X16614544Y-11590354D01*
X16619058Y-11589910D01*
X16682930Y-11589910D01*
X16687444Y-11590354D01*
X16687444Y-11590354D01*
G37*
G36*
X17279444Y-11587104D02*
X17283193Y-11588241D01*
X17286650Y-11590089D01*
X17289679Y-11592575D01*
X17292164Y-11595604D01*
X17294012Y-11599060D01*
X17295149Y-11602810D01*
X17295594Y-11607323D01*
X17295594Y-11681196D01*
X17295149Y-11685709D01*
X17294012Y-11689459D01*
X17292164Y-11692915D01*
X17289679Y-11695944D01*
X17286650Y-11698430D01*
X17283193Y-11700278D01*
X17279444Y-11701415D01*
X17274930Y-11701860D01*
X17211058Y-11701860D01*
X17206544Y-11701415D01*
X17202795Y-11700278D01*
X17199338Y-11698430D01*
X17196309Y-11695944D01*
X17193823Y-11692915D01*
X17191976Y-11689459D01*
X17190838Y-11685709D01*
X17190394Y-11681196D01*
X17190394Y-11607323D01*
X17190838Y-11602810D01*
X17191976Y-11599060D01*
X17193823Y-11595604D01*
X17196309Y-11592575D01*
X17199338Y-11590089D01*
X17202795Y-11588241D01*
X17206544Y-11587104D01*
X17211058Y-11586660D01*
X17274930Y-11586660D01*
X17279444Y-11587104D01*
X17279444Y-11587104D01*
G37*
G36*
X15710100Y-11640100D02*
X15529900Y-11640100D01*
X15529900Y-11459900D01*
X15710100Y-11459900D01*
X15710100Y-11640100D01*
X15710100Y-11640100D01*
G37*
G36*
X20788244Y-11391352D02*
X20794863Y-11392004D01*
X20806185Y-11395438D01*
X20811847Y-11397156D01*
X20825709Y-11404565D01*
X20827499Y-11405522D01*
X20831073Y-11408455D01*
X20841219Y-11416781D01*
X20848261Y-11425362D01*
X20852478Y-11430501D01*
X20852478Y-11430501D01*
X20860844Y-11446153D01*
X20861125Y-11447079D01*
X20865996Y-11463137D01*
X20867736Y-11480800D01*
X20865996Y-11498463D01*
X20863651Y-11506196D01*
X20860844Y-11515447D01*
X20855014Y-11526354D01*
X20852478Y-11531099D01*
X20850584Y-11533406D01*
X20841219Y-11544819D01*
X20834467Y-11550359D01*
X20827499Y-11556078D01*
X20827499Y-11556078D01*
X20811847Y-11564444D01*
X20806185Y-11566162D01*
X20794863Y-11569596D01*
X20788244Y-11570248D01*
X20781626Y-11570900D01*
X20772774Y-11570900D01*
X20766156Y-11570248D01*
X20759537Y-11569596D01*
X20748215Y-11566162D01*
X20742553Y-11564444D01*
X20726901Y-11556078D01*
X20726901Y-11556078D01*
X20719933Y-11550359D01*
X20713181Y-11544819D01*
X20703816Y-11533406D01*
X20701922Y-11531099D01*
X20699386Y-11526354D01*
X20693556Y-11515447D01*
X20690750Y-11506196D01*
X20688404Y-11498463D01*
X20686664Y-11480800D01*
X20688404Y-11463137D01*
X20693275Y-11447079D01*
X20693556Y-11446153D01*
X20701922Y-11430501D01*
X20701922Y-11430501D01*
X20706139Y-11425362D01*
X20713181Y-11416781D01*
X20723327Y-11408455D01*
X20726901Y-11405522D01*
X20728691Y-11404565D01*
X20742553Y-11397156D01*
X20748215Y-11395438D01*
X20759537Y-11392004D01*
X20766156Y-11391352D01*
X20772774Y-11390700D01*
X20781626Y-11390700D01*
X20788244Y-11391352D01*
X20788244Y-11391352D01*
G37*
G36*
X18431444Y-11435604D02*
X18435193Y-11436741D01*
X18438649Y-11438589D01*
X18441678Y-11441075D01*
X18444164Y-11444104D01*
X18446012Y-11447560D01*
X18447149Y-11451309D01*
X18447594Y-11455823D01*
X18447594Y-11529695D01*
X18447149Y-11534209D01*
X18446012Y-11537959D01*
X18444164Y-11541415D01*
X18441678Y-11544444D01*
X18438649Y-11546930D01*
X18435193Y-11548777D01*
X18431444Y-11549915D01*
X18426930Y-11550359D01*
X18363058Y-11550359D01*
X18358544Y-11549915D01*
X18354794Y-11548777D01*
X18351338Y-11546930D01*
X18348309Y-11544444D01*
X18345823Y-11541415D01*
X18343976Y-11537959D01*
X18342838Y-11534209D01*
X18342394Y-11529695D01*
X18342394Y-11455823D01*
X18342838Y-11451309D01*
X18343976Y-11447560D01*
X18345823Y-11444104D01*
X18348309Y-11441075D01*
X18351338Y-11438589D01*
X18354794Y-11436741D01*
X18358544Y-11435604D01*
X18363058Y-11435159D01*
X18426930Y-11435159D01*
X18431444Y-11435604D01*
X18431444Y-11435604D01*
G37*
G36*
X18247444Y-11432104D02*
X18251193Y-11433241D01*
X18254649Y-11435089D01*
X18257678Y-11437575D01*
X18260164Y-11440604D01*
X18262012Y-11444060D01*
X18263149Y-11447810D01*
X18263594Y-11452323D01*
X18263594Y-11526196D01*
X18263149Y-11530709D01*
X18262012Y-11534459D01*
X18260164Y-11537915D01*
X18257678Y-11540944D01*
X18254649Y-11543430D01*
X18251193Y-11545278D01*
X18247444Y-11546415D01*
X18242930Y-11546859D01*
X18179058Y-11546859D01*
X18174544Y-11546415D01*
X18170794Y-11545278D01*
X18167338Y-11543430D01*
X18164309Y-11540944D01*
X18161823Y-11537915D01*
X18159976Y-11534459D01*
X18158838Y-11530709D01*
X18158394Y-11526196D01*
X18158394Y-11452323D01*
X18158838Y-11447810D01*
X18159976Y-11444060D01*
X18161823Y-11440604D01*
X18164309Y-11437575D01*
X18167338Y-11435089D01*
X18170794Y-11433241D01*
X18174544Y-11432104D01*
X18179058Y-11431659D01*
X18242930Y-11431659D01*
X18247444Y-11432104D01*
X18247444Y-11432104D01*
G37*
G36*
X18043444Y-11426354D02*
X18047193Y-11427491D01*
X18050649Y-11429339D01*
X18053678Y-11431825D01*
X18056164Y-11434854D01*
X18058012Y-11438310D01*
X18059149Y-11442060D01*
X18059594Y-11446573D01*
X18059594Y-11520446D01*
X18059149Y-11524959D01*
X18058012Y-11528709D01*
X18056164Y-11532165D01*
X18053678Y-11535194D01*
X18050649Y-11537680D01*
X18047193Y-11539528D01*
X18043444Y-11540665D01*
X18038930Y-11541109D01*
X17975058Y-11541109D01*
X17970544Y-11540665D01*
X17966794Y-11539528D01*
X17963338Y-11537680D01*
X17960309Y-11535194D01*
X17957823Y-11532165D01*
X17955976Y-11528709D01*
X17954838Y-11524959D01*
X17954394Y-11520446D01*
X17954394Y-11446573D01*
X17954838Y-11442060D01*
X17955976Y-11438310D01*
X17957823Y-11434854D01*
X17960309Y-11431825D01*
X17963338Y-11429339D01*
X17966794Y-11427491D01*
X17970544Y-11426354D01*
X17975058Y-11425909D01*
X18038930Y-11425909D01*
X18043444Y-11426354D01*
X18043444Y-11426354D01*
G37*
G36*
X17848968Y-11424310D02*
X17852717Y-11425448D01*
X17856174Y-11427295D01*
X17859203Y-11429781D01*
X17861689Y-11432810D01*
X17863536Y-11436267D01*
X17864674Y-11440016D01*
X17865118Y-11444530D01*
X17865118Y-11518402D01*
X17864674Y-11522916D01*
X17863536Y-11526665D01*
X17861689Y-11530122D01*
X17859203Y-11533151D01*
X17856174Y-11535636D01*
X17852717Y-11537484D01*
X17848968Y-11538621D01*
X17844454Y-11539066D01*
X17780582Y-11539066D01*
X17776068Y-11538621D01*
X17772319Y-11537484D01*
X17768862Y-11535636D01*
X17765833Y-11533151D01*
X17763348Y-11530122D01*
X17761500Y-11526665D01*
X17760363Y-11522916D01*
X17759918Y-11518402D01*
X17759918Y-11444530D01*
X17760363Y-11440016D01*
X17761500Y-11436267D01*
X17763348Y-11432810D01*
X17765833Y-11429781D01*
X17768862Y-11427295D01*
X17772319Y-11425448D01*
X17776068Y-11424310D01*
X17780582Y-11423866D01*
X17844454Y-11423866D01*
X17848968Y-11424310D01*
X17848968Y-11424310D01*
G37*
G36*
X17661968Y-11422310D02*
X17665717Y-11423448D01*
X17669174Y-11425295D01*
X17672203Y-11427781D01*
X17674689Y-11430810D01*
X17676536Y-11434267D01*
X17677674Y-11438016D01*
X17678118Y-11442530D01*
X17678118Y-11516402D01*
X17677674Y-11520916D01*
X17676536Y-11524665D01*
X17674689Y-11528122D01*
X17672203Y-11531151D01*
X17669174Y-11533637D01*
X17665717Y-11535484D01*
X17661968Y-11536621D01*
X17657454Y-11537066D01*
X17593582Y-11537066D01*
X17589068Y-11536621D01*
X17585319Y-11535484D01*
X17581862Y-11533637D01*
X17578833Y-11531151D01*
X17576347Y-11528122D01*
X17574500Y-11524665D01*
X17573363Y-11520916D01*
X17572918Y-11516402D01*
X17572918Y-11442530D01*
X17573363Y-11438016D01*
X17574500Y-11434267D01*
X17576347Y-11430810D01*
X17578833Y-11427781D01*
X17581862Y-11425295D01*
X17585319Y-11423448D01*
X17589068Y-11422310D01*
X17593582Y-11421866D01*
X17657454Y-11421866D01*
X17661968Y-11422310D01*
X17661968Y-11422310D01*
G37*
G36*
X16500444Y-11418104D02*
X16504193Y-11419241D01*
X16507649Y-11421089D01*
X16510678Y-11423575D01*
X16513164Y-11426604D01*
X16515012Y-11430060D01*
X16516149Y-11433809D01*
X16516594Y-11438323D01*
X16516594Y-11512196D01*
X16516149Y-11516709D01*
X16515012Y-11520459D01*
X16513164Y-11523915D01*
X16510678Y-11526944D01*
X16507649Y-11529430D01*
X16504193Y-11531277D01*
X16500444Y-11532415D01*
X16495930Y-11532859D01*
X16432057Y-11532859D01*
X16427544Y-11532415D01*
X16423794Y-11531277D01*
X16420338Y-11529430D01*
X16417309Y-11526944D01*
X16414823Y-11523915D01*
X16412976Y-11520459D01*
X16411838Y-11516709D01*
X16411394Y-11512196D01*
X16411394Y-11438323D01*
X16411838Y-11433809D01*
X16412976Y-11430060D01*
X16414823Y-11426604D01*
X16417309Y-11423575D01*
X16420338Y-11421089D01*
X16423794Y-11419241D01*
X16427544Y-11418104D01*
X16432057Y-11417659D01*
X16495930Y-11417659D01*
X16500444Y-11418104D01*
X16500444Y-11418104D01*
G37*
G36*
X17066468Y-11417560D02*
X17070217Y-11418698D01*
X17073674Y-11420545D01*
X17076703Y-11423031D01*
X17079189Y-11426060D01*
X17081036Y-11429517D01*
X17082173Y-11433266D01*
X17082618Y-11437780D01*
X17082618Y-11511652D01*
X17082173Y-11516166D01*
X17081036Y-11519915D01*
X17079189Y-11523372D01*
X17076703Y-11526401D01*
X17073674Y-11528886D01*
X17070217Y-11530734D01*
X17066468Y-11531871D01*
X17061954Y-11532316D01*
X16998082Y-11532316D01*
X16993568Y-11531871D01*
X16989819Y-11530734D01*
X16986362Y-11528886D01*
X16983333Y-11526401D01*
X16980847Y-11523372D01*
X16979000Y-11519915D01*
X16977862Y-11516166D01*
X16977418Y-11511652D01*
X16977418Y-11437780D01*
X16977862Y-11433266D01*
X16979000Y-11429517D01*
X16980847Y-11426060D01*
X16983333Y-11423031D01*
X16986362Y-11420545D01*
X16989819Y-11418698D01*
X16993568Y-11417560D01*
X16998082Y-11417116D01*
X17061954Y-11417116D01*
X17066468Y-11417560D01*
X17066468Y-11417560D01*
G37*
G36*
X17476968Y-11416310D02*
X17480717Y-11417448D01*
X17484174Y-11419295D01*
X17487203Y-11421781D01*
X17489689Y-11424810D01*
X17491536Y-11428267D01*
X17492674Y-11432016D01*
X17493118Y-11436530D01*
X17493118Y-11510402D01*
X17492674Y-11514916D01*
X17491536Y-11518665D01*
X17489689Y-11522122D01*
X17487203Y-11525151D01*
X17484174Y-11527637D01*
X17480717Y-11529484D01*
X17476968Y-11530621D01*
X17472454Y-11531066D01*
X17408582Y-11531066D01*
X17404068Y-11530621D01*
X17400319Y-11529484D01*
X17396862Y-11527637D01*
X17393833Y-11525151D01*
X17391347Y-11522122D01*
X17389500Y-11518665D01*
X17388363Y-11514916D01*
X17387918Y-11510402D01*
X17387918Y-11436530D01*
X17388363Y-11432016D01*
X17389500Y-11428267D01*
X17391347Y-11424810D01*
X17393833Y-11421781D01*
X17396862Y-11419295D01*
X17400319Y-11417448D01*
X17404068Y-11416310D01*
X17408582Y-11415866D01*
X17472454Y-11415866D01*
X17476968Y-11416310D01*
X17476968Y-11416310D01*
G37*
G36*
X16869968Y-11416310D02*
X16873717Y-11417448D01*
X16877174Y-11419295D01*
X16880203Y-11421781D01*
X16882689Y-11424810D01*
X16884536Y-11428267D01*
X16885674Y-11432016D01*
X16886118Y-11436530D01*
X16886118Y-11510402D01*
X16885674Y-11514916D01*
X16884536Y-11518665D01*
X16882689Y-11522122D01*
X16880203Y-11525151D01*
X16877174Y-11527637D01*
X16873717Y-11529484D01*
X16869968Y-11530621D01*
X16865454Y-11531066D01*
X16801582Y-11531066D01*
X16797068Y-11530621D01*
X16793319Y-11529484D01*
X16789862Y-11527637D01*
X16786833Y-11525151D01*
X16784347Y-11522122D01*
X16782500Y-11518665D01*
X16781363Y-11514916D01*
X16780918Y-11510402D01*
X16780918Y-11436530D01*
X16781363Y-11432016D01*
X16782500Y-11428267D01*
X16784347Y-11424810D01*
X16786833Y-11421781D01*
X16789862Y-11419295D01*
X16793319Y-11417448D01*
X16797068Y-11416310D01*
X16801582Y-11415866D01*
X16865454Y-11415866D01*
X16869968Y-11416310D01*
X16869968Y-11416310D01*
G37*
G36*
X16687444Y-11415354D02*
X16691193Y-11416491D01*
X16694649Y-11418339D01*
X16697678Y-11420825D01*
X16700164Y-11423854D01*
X16702012Y-11427310D01*
X16703149Y-11431060D01*
X16703594Y-11435573D01*
X16703594Y-11509446D01*
X16703149Y-11513959D01*
X16702012Y-11517709D01*
X16700164Y-11521165D01*
X16697678Y-11524194D01*
X16694649Y-11526680D01*
X16691193Y-11528528D01*
X16687444Y-11529665D01*
X16682930Y-11530110D01*
X16619058Y-11530110D01*
X16614544Y-11529665D01*
X16610794Y-11528528D01*
X16607338Y-11526680D01*
X16604309Y-11524194D01*
X16601823Y-11521165D01*
X16599976Y-11517709D01*
X16598838Y-11513959D01*
X16598394Y-11509446D01*
X16598394Y-11435573D01*
X16598838Y-11431060D01*
X16599976Y-11427310D01*
X16601823Y-11423854D01*
X16604309Y-11420825D01*
X16607338Y-11418339D01*
X16610794Y-11416491D01*
X16614544Y-11415354D01*
X16619058Y-11414910D01*
X16682930Y-11414910D01*
X16687444Y-11415354D01*
X16687444Y-11415354D01*
G37*
G36*
X17279444Y-11412104D02*
X17283193Y-11413241D01*
X17286650Y-11415089D01*
X17289679Y-11417575D01*
X17292164Y-11420604D01*
X17294012Y-11424060D01*
X17295149Y-11427810D01*
X17295594Y-11432323D01*
X17295594Y-11506196D01*
X17295149Y-11510709D01*
X17294012Y-11514459D01*
X17292164Y-11517915D01*
X17289679Y-11520944D01*
X17286650Y-11523430D01*
X17283193Y-11525278D01*
X17279444Y-11526415D01*
X17274930Y-11526860D01*
X17211058Y-11526860D01*
X17206544Y-11526415D01*
X17202795Y-11525278D01*
X17199338Y-11523430D01*
X17196309Y-11520944D01*
X17193823Y-11517915D01*
X17191976Y-11514459D01*
X17190838Y-11510709D01*
X17190394Y-11506196D01*
X17190394Y-11432323D01*
X17190838Y-11427810D01*
X17191976Y-11424060D01*
X17193823Y-11420604D01*
X17196309Y-11417575D01*
X17199338Y-11415089D01*
X17202795Y-11413241D01*
X17206544Y-11412104D01*
X17211058Y-11411660D01*
X17274930Y-11411660D01*
X17279444Y-11412104D01*
X17279444Y-11412104D01*
G37*
G36*
X20788244Y-11137352D02*
X20794863Y-11138004D01*
X20806185Y-11141438D01*
X20811847Y-11143156D01*
X20825709Y-11150565D01*
X20827499Y-11151522D01*
X20831073Y-11154455D01*
X20841219Y-11162781D01*
X20849545Y-11172927D01*
X20852478Y-11176501D01*
X20852478Y-11176501D01*
X20860844Y-11192153D01*
X20860844Y-11192153D01*
X20865996Y-11209137D01*
X20867736Y-11226800D01*
X20865996Y-11244463D01*
X20864256Y-11250199D01*
X20860844Y-11261447D01*
X20853435Y-11275309D01*
X20852478Y-11277099D01*
X20849545Y-11280673D01*
X20841219Y-11290819D01*
X20831073Y-11299145D01*
X20827499Y-11302078D01*
X20827499Y-11302078D01*
X20811847Y-11310444D01*
X20806185Y-11312162D01*
X20794863Y-11315596D01*
X20788244Y-11316248D01*
X20781626Y-11316900D01*
X20772774Y-11316900D01*
X20766156Y-11316248D01*
X20759537Y-11315596D01*
X20748215Y-11312162D01*
X20742553Y-11310444D01*
X20726901Y-11302078D01*
X20726901Y-11302078D01*
X20723327Y-11299145D01*
X20713181Y-11290819D01*
X20704855Y-11280673D01*
X20701922Y-11277099D01*
X20700965Y-11275309D01*
X20693556Y-11261447D01*
X20690144Y-11250199D01*
X20688404Y-11244463D01*
X20686664Y-11226800D01*
X20688404Y-11209137D01*
X20693556Y-11192153D01*
X20693556Y-11192153D01*
X20701922Y-11176501D01*
X20701922Y-11176501D01*
X20704855Y-11172927D01*
X20713181Y-11162781D01*
X20723327Y-11154455D01*
X20726901Y-11151522D01*
X20728691Y-11150565D01*
X20742553Y-11143156D01*
X20748215Y-11141438D01*
X20759537Y-11138004D01*
X20766156Y-11137352D01*
X20772774Y-11136700D01*
X20781626Y-11136700D01*
X20788244Y-11137352D01*
X20788244Y-11137352D01*
G37*
G36*
X16896194Y-11159604D02*
X16899943Y-11160741D01*
X16903399Y-11162589D01*
X16906428Y-11165075D01*
X16908914Y-11168104D01*
X16910762Y-11171560D01*
X16911899Y-11175310D01*
X16912344Y-11179823D01*
X16912344Y-11243696D01*
X16911899Y-11248209D01*
X16910762Y-11251959D01*
X16908914Y-11255415D01*
X16906428Y-11258444D01*
X16903399Y-11260930D01*
X16899943Y-11262778D01*
X16896194Y-11263915D01*
X16891680Y-11264359D01*
X16817808Y-11264359D01*
X16813294Y-11263915D01*
X16809544Y-11262778D01*
X16806088Y-11260930D01*
X16803059Y-11258444D01*
X16800573Y-11255415D01*
X16798726Y-11251959D01*
X16797588Y-11248209D01*
X16797144Y-11243696D01*
X16797144Y-11179823D01*
X16797588Y-11175310D01*
X16798726Y-11171560D01*
X16800573Y-11168104D01*
X16803059Y-11165075D01*
X16806088Y-11162589D01*
X16809544Y-11160741D01*
X16813294Y-11159604D01*
X16817808Y-11159160D01*
X16891680Y-11159160D01*
X16896194Y-11159604D01*
X16896194Y-11159604D01*
G37*
G36*
X17071194Y-11159604D02*
X17074943Y-11160741D01*
X17078399Y-11162589D01*
X17081428Y-11165075D01*
X17083914Y-11168104D01*
X17085762Y-11171560D01*
X17086899Y-11175310D01*
X17087344Y-11179823D01*
X17087344Y-11243696D01*
X17086899Y-11248209D01*
X17085762Y-11251959D01*
X17083914Y-11255415D01*
X17081428Y-11258444D01*
X17078399Y-11260930D01*
X17074943Y-11262778D01*
X17071194Y-11263915D01*
X17066680Y-11264359D01*
X16992808Y-11264359D01*
X16988294Y-11263915D01*
X16984544Y-11262778D01*
X16981088Y-11260930D01*
X16978059Y-11258444D01*
X16975573Y-11255415D01*
X16973726Y-11251959D01*
X16972588Y-11248209D01*
X16972144Y-11243696D01*
X16972144Y-11179823D01*
X16972588Y-11175310D01*
X16973726Y-11171560D01*
X16975573Y-11168104D01*
X16978059Y-11165075D01*
X16981088Y-11162589D01*
X16984544Y-11160741D01*
X16988294Y-11159604D01*
X16992808Y-11159160D01*
X17066680Y-11159160D01*
X17071194Y-11159604D01*
X17071194Y-11159604D01*
G37*
G36*
X17426450Y-11157845D02*
X17430199Y-11158982D01*
X17433656Y-11160829D01*
X17436685Y-11163315D01*
X17439171Y-11166344D01*
X17441018Y-11169801D01*
X17442155Y-11173550D01*
X17442600Y-11178064D01*
X17442600Y-11241936D01*
X17442155Y-11246450D01*
X17441018Y-11250199D01*
X17439171Y-11253656D01*
X17436685Y-11256685D01*
X17433656Y-11259171D01*
X17430199Y-11261018D01*
X17426450Y-11262155D01*
X17421936Y-11262600D01*
X17348064Y-11262600D01*
X17343550Y-11262155D01*
X17339801Y-11261018D01*
X17336344Y-11259171D01*
X17333315Y-11256685D01*
X17330829Y-11253656D01*
X17328982Y-11250199D01*
X17327844Y-11246450D01*
X17327400Y-11241936D01*
X17327400Y-11178064D01*
X17327844Y-11173550D01*
X17328982Y-11169801D01*
X17330829Y-11166344D01*
X17333315Y-11163315D01*
X17336344Y-11160829D01*
X17339801Y-11158982D01*
X17343550Y-11157845D01*
X17348064Y-11157400D01*
X17421936Y-11157400D01*
X17426450Y-11157845D01*
X17426450Y-11157845D01*
G37*
G36*
X17251450Y-11157845D02*
X17255199Y-11158982D01*
X17258656Y-11160829D01*
X17261685Y-11163315D01*
X17264171Y-11166344D01*
X17266018Y-11169801D01*
X17267155Y-11173550D01*
X17267600Y-11178064D01*
X17267600Y-11241936D01*
X17267155Y-11246450D01*
X17266018Y-11250199D01*
X17264171Y-11253656D01*
X17261685Y-11256685D01*
X17258656Y-11259171D01*
X17255199Y-11261018D01*
X17251450Y-11262155D01*
X17246936Y-11262600D01*
X17173064Y-11262600D01*
X17168550Y-11262155D01*
X17164801Y-11261018D01*
X17161344Y-11259171D01*
X17158315Y-11256685D01*
X17155829Y-11253656D01*
X17153982Y-11250199D01*
X17152844Y-11246450D01*
X17152400Y-11241936D01*
X17152400Y-11178064D01*
X17152844Y-11173550D01*
X17153982Y-11169801D01*
X17155829Y-11166344D01*
X17158315Y-11163315D01*
X17161344Y-11160829D01*
X17164801Y-11158982D01*
X17168550Y-11157845D01*
X17173064Y-11157400D01*
X17246936Y-11157400D01*
X17251450Y-11157845D01*
X17251450Y-11157845D01*
G37*
G36*
X16704444Y-11122604D02*
X16708193Y-11123741D01*
X16711649Y-11125589D01*
X16714678Y-11128075D01*
X16717164Y-11131104D01*
X16719012Y-11134560D01*
X16720149Y-11138310D01*
X16720594Y-11142823D01*
X16720594Y-11216696D01*
X16720149Y-11221209D01*
X16719012Y-11224959D01*
X16717164Y-11228415D01*
X16714678Y-11231444D01*
X16711649Y-11233930D01*
X16708193Y-11235778D01*
X16704444Y-11236915D01*
X16699930Y-11237359D01*
X16636057Y-11237359D01*
X16631544Y-11236915D01*
X16627794Y-11235778D01*
X16624338Y-11233930D01*
X16621309Y-11231444D01*
X16618823Y-11228415D01*
X16616976Y-11224959D01*
X16615838Y-11221209D01*
X16615394Y-11216696D01*
X16615394Y-11142823D01*
X16615838Y-11138310D01*
X16616976Y-11134560D01*
X16618823Y-11131104D01*
X16621309Y-11128075D01*
X16624338Y-11125589D01*
X16627794Y-11123741D01*
X16631544Y-11122604D01*
X16636057Y-11122160D01*
X16699930Y-11122160D01*
X16704444Y-11122604D01*
X16704444Y-11122604D01*
G37*
G36*
X16491444Y-11118604D02*
X16495193Y-11119742D01*
X16498649Y-11121589D01*
X16501678Y-11124075D01*
X16504164Y-11127104D01*
X16506012Y-11130560D01*
X16507149Y-11134310D01*
X16507594Y-11138823D01*
X16507594Y-11212696D01*
X16507149Y-11217209D01*
X16506012Y-11220959D01*
X16504164Y-11224415D01*
X16501678Y-11227444D01*
X16498649Y-11229930D01*
X16495193Y-11231778D01*
X16491444Y-11232915D01*
X16486930Y-11233360D01*
X16423058Y-11233360D01*
X16418544Y-11232915D01*
X16414794Y-11231778D01*
X16411338Y-11229930D01*
X16408309Y-11227444D01*
X16405823Y-11224415D01*
X16403976Y-11220959D01*
X16402838Y-11217209D01*
X16402394Y-11212696D01*
X16402394Y-11138823D01*
X16402838Y-11134310D01*
X16403976Y-11130560D01*
X16405823Y-11127104D01*
X16408309Y-11124075D01*
X16411338Y-11121589D01*
X16414794Y-11119742D01*
X16418544Y-11118604D01*
X16423058Y-11118160D01*
X16486930Y-11118160D01*
X16491444Y-11118604D01*
X16491444Y-11118604D01*
G37*
G36*
X20242600Y-11162600D02*
X19457400Y-11162600D01*
X19457400Y-11052400D01*
X20242600Y-11052400D01*
X20242600Y-11162600D01*
X20242600Y-11162600D01*
G37*
G36*
X20788244Y-10883352D02*
X20794863Y-10884004D01*
X20806185Y-10887438D01*
X20811847Y-10889156D01*
X20825709Y-10896565D01*
X20827499Y-10897522D01*
X20831073Y-10900455D01*
X20841219Y-10908781D01*
X20849545Y-10918927D01*
X20852478Y-10922501D01*
X20852478Y-10922501D01*
X20860844Y-10938153D01*
X20860844Y-10938153D01*
X20865996Y-10955137D01*
X20867736Y-10972800D01*
X20865996Y-10990463D01*
X20863073Y-11000100D01*
X20860844Y-11007447D01*
X20853435Y-11021309D01*
X20852478Y-11023099D01*
X20849545Y-11026673D01*
X20841219Y-11036819D01*
X20833737Y-11042959D01*
X20827499Y-11048078D01*
X20827499Y-11048078D01*
X20811847Y-11056444D01*
X20806998Y-11057915D01*
X20794863Y-11061596D01*
X20788244Y-11062248D01*
X20781626Y-11062900D01*
X20772774Y-11062900D01*
X20766156Y-11062248D01*
X20759537Y-11061596D01*
X20747402Y-11057915D01*
X20742553Y-11056444D01*
X20726901Y-11048078D01*
X20726901Y-11048078D01*
X20720663Y-11042959D01*
X20713181Y-11036819D01*
X20704855Y-11026673D01*
X20701922Y-11023099D01*
X20700965Y-11021309D01*
X20693556Y-11007447D01*
X20691327Y-11000100D01*
X20688404Y-10990463D01*
X20686664Y-10972800D01*
X20688404Y-10955137D01*
X20693556Y-10938153D01*
X20693556Y-10938153D01*
X20701922Y-10922501D01*
X20701922Y-10922501D01*
X20704855Y-10918927D01*
X20713181Y-10908781D01*
X20723327Y-10900455D01*
X20726901Y-10897522D01*
X20728691Y-10896565D01*
X20742553Y-10889156D01*
X20748215Y-10887438D01*
X20759537Y-10884004D01*
X20766156Y-10883352D01*
X20772774Y-10882700D01*
X20781626Y-10882700D01*
X20788244Y-10883352D01*
X20788244Y-10883352D01*
G37*
G36*
X16704444Y-10947604D02*
X16708193Y-10948741D01*
X16711649Y-10950589D01*
X16714678Y-10953075D01*
X16717164Y-10956104D01*
X16719012Y-10959560D01*
X16720149Y-10963310D01*
X16720594Y-10967823D01*
X16720594Y-11041696D01*
X16720149Y-11046209D01*
X16719012Y-11049959D01*
X16717164Y-11053415D01*
X16714678Y-11056444D01*
X16711649Y-11058930D01*
X16708193Y-11060778D01*
X16704444Y-11061915D01*
X16699930Y-11062360D01*
X16636057Y-11062360D01*
X16631544Y-11061915D01*
X16627794Y-11060778D01*
X16624338Y-11058930D01*
X16621309Y-11056444D01*
X16618823Y-11053415D01*
X16616976Y-11049959D01*
X16615838Y-11046209D01*
X16615394Y-11041696D01*
X16615394Y-10967823D01*
X16615838Y-10963310D01*
X16616976Y-10959560D01*
X16618823Y-10956104D01*
X16621309Y-10953075D01*
X16624338Y-10950589D01*
X16627794Y-10948741D01*
X16631544Y-10947604D01*
X16636057Y-10947160D01*
X16699930Y-10947160D01*
X16704444Y-10947604D01*
X16704444Y-10947604D01*
G37*
G36*
X16491444Y-10943604D02*
X16495193Y-10944742D01*
X16498649Y-10946589D01*
X16501678Y-10949075D01*
X16504164Y-10952104D01*
X16506012Y-10955560D01*
X16507149Y-10959310D01*
X16507594Y-10963823D01*
X16507594Y-11037696D01*
X16507149Y-11042210D01*
X16506012Y-11045959D01*
X16504164Y-11049415D01*
X16501678Y-11052444D01*
X16498649Y-11054930D01*
X16495193Y-11056778D01*
X16491444Y-11057915D01*
X16486930Y-11058360D01*
X16423058Y-11058360D01*
X16418544Y-11057915D01*
X16414794Y-11056778D01*
X16411338Y-11054930D01*
X16408309Y-11052444D01*
X16405823Y-11049415D01*
X16403976Y-11045959D01*
X16402838Y-11042210D01*
X16402394Y-11037696D01*
X16402394Y-10963823D01*
X16402838Y-10959310D01*
X16403976Y-10955560D01*
X16405823Y-10952104D01*
X16408309Y-10949075D01*
X16411338Y-10946589D01*
X16414794Y-10944742D01*
X16418544Y-10943604D01*
X16423058Y-10943160D01*
X16486930Y-10943160D01*
X16491444Y-10943604D01*
X16491444Y-10943604D01*
G37*
G36*
X16882444Y-10950604D02*
X16886193Y-10951741D01*
X16889649Y-10953589D01*
X16892678Y-10956075D01*
X16895164Y-10959104D01*
X16897012Y-10962560D01*
X16898149Y-10966310D01*
X16898594Y-10970823D01*
X16898594Y-11034696D01*
X16898149Y-11039209D01*
X16897012Y-11042959D01*
X16895164Y-11046415D01*
X16892678Y-11049444D01*
X16889649Y-11051930D01*
X16886193Y-11053778D01*
X16882444Y-11054915D01*
X16877930Y-11055360D01*
X16804058Y-11055360D01*
X16799544Y-11054915D01*
X16795794Y-11053778D01*
X16792338Y-11051930D01*
X16789309Y-11049444D01*
X16786823Y-11046415D01*
X16784976Y-11042959D01*
X16783838Y-11039209D01*
X16783394Y-11034696D01*
X16783394Y-10970823D01*
X16783838Y-10966310D01*
X16784976Y-10962560D01*
X16786823Y-10959104D01*
X16789309Y-10956075D01*
X16792338Y-10953589D01*
X16795794Y-10951741D01*
X16799544Y-10950604D01*
X16804058Y-10950160D01*
X16877930Y-10950160D01*
X16882444Y-10950604D01*
X16882444Y-10950604D01*
G37*
G36*
X17057444Y-10950604D02*
X17061193Y-10951741D01*
X17064649Y-10953589D01*
X17067678Y-10956075D01*
X17070164Y-10959104D01*
X17072012Y-10962560D01*
X17073149Y-10966310D01*
X17073594Y-10970823D01*
X17073594Y-11034696D01*
X17073149Y-11039209D01*
X17072012Y-11042959D01*
X17070164Y-11046415D01*
X17067678Y-11049444D01*
X17064649Y-11051930D01*
X17061193Y-11053778D01*
X17057444Y-11054915D01*
X17052930Y-11055360D01*
X16979058Y-11055360D01*
X16974544Y-11054915D01*
X16970794Y-11053778D01*
X16967338Y-11051930D01*
X16964309Y-11049444D01*
X16961823Y-11046415D01*
X16959976Y-11042959D01*
X16958838Y-11039209D01*
X16958394Y-11034696D01*
X16958394Y-10970823D01*
X16958838Y-10966310D01*
X16959976Y-10962560D01*
X16961823Y-10959104D01*
X16964309Y-10956075D01*
X16967338Y-10953589D01*
X16970794Y-10951741D01*
X16974544Y-10950604D01*
X16979058Y-10950160D01*
X17052930Y-10950160D01*
X17057444Y-10950604D01*
X17057444Y-10950604D01*
G37*
G36*
X21883300Y-11000100D02*
X21703100Y-11000100D01*
X21703100Y-10819900D01*
X21883300Y-10819900D01*
X21883300Y-11000100D01*
X21883300Y-11000100D01*
G37*
G36*
X20475100Y-10930100D02*
X20364900Y-10930100D01*
X20364900Y-10144900D01*
X20475100Y-10144900D01*
X20475100Y-10930100D01*
X20475100Y-10930100D01*
G37*
G36*
X19335100Y-10930100D02*
X19224900Y-10930100D01*
X19224900Y-10144900D01*
X19335100Y-10144900D01*
X19335100Y-10930100D01*
X19335100Y-10930100D01*
G37*
G36*
X20788244Y-10629352D02*
X20794863Y-10630004D01*
X20806185Y-10633438D01*
X20811847Y-10635156D01*
X20817799Y-10638338D01*
X20827499Y-10643522D01*
X20828059Y-10643982D01*
X20841219Y-10654781D01*
X20849545Y-10664927D01*
X20852478Y-10668501D01*
X20852478Y-10668501D01*
X20860844Y-10684153D01*
X20860844Y-10684153D01*
X20865996Y-10701137D01*
X20867736Y-10718800D01*
X20865996Y-10736463D01*
X20863658Y-10744171D01*
X20860844Y-10753447D01*
X20853435Y-10767309D01*
X20852478Y-10769099D01*
X20849545Y-10772673D01*
X20841219Y-10782819D01*
X20831073Y-10791145D01*
X20827499Y-10794078D01*
X20827499Y-10794078D01*
X20811847Y-10802444D01*
X20806185Y-10804162D01*
X20794863Y-10807596D01*
X20788244Y-10808248D01*
X20781626Y-10808900D01*
X20772774Y-10808900D01*
X20766156Y-10808248D01*
X20759537Y-10807596D01*
X20748215Y-10804162D01*
X20742553Y-10802444D01*
X20726901Y-10794078D01*
X20726901Y-10794078D01*
X20723327Y-10791145D01*
X20713181Y-10782819D01*
X20704855Y-10772673D01*
X20701922Y-10769099D01*
X20700965Y-10767309D01*
X20693556Y-10753447D01*
X20690742Y-10744171D01*
X20688404Y-10736463D01*
X20686664Y-10718800D01*
X20688404Y-10701137D01*
X20693556Y-10684153D01*
X20693556Y-10684153D01*
X20701922Y-10668501D01*
X20701922Y-10668501D01*
X20704855Y-10664927D01*
X20713181Y-10654781D01*
X20726341Y-10643982D01*
X20726901Y-10643522D01*
X20736601Y-10638338D01*
X20742553Y-10635156D01*
X20748215Y-10633438D01*
X20759537Y-10630004D01*
X20766156Y-10629352D01*
X20772774Y-10628700D01*
X20781626Y-10628700D01*
X20788244Y-10629352D01*
X20788244Y-10629352D01*
G37*
G36*
X18996450Y-10642845D02*
X19000199Y-10643982D01*
X19003656Y-10645829D01*
X19006685Y-10648315D01*
X19009171Y-10651344D01*
X19011018Y-10654801D01*
X19012156Y-10658550D01*
X19012600Y-10663064D01*
X19012600Y-10726936D01*
X19012156Y-10731450D01*
X19011018Y-10735199D01*
X19009171Y-10738656D01*
X19006685Y-10741685D01*
X19003656Y-10744171D01*
X19000199Y-10746018D01*
X18996450Y-10747156D01*
X18991936Y-10747600D01*
X18918064Y-10747600D01*
X18913550Y-10747156D01*
X18909801Y-10746018D01*
X18906344Y-10744171D01*
X18903315Y-10741685D01*
X18900829Y-10738656D01*
X18898982Y-10735199D01*
X18897845Y-10731450D01*
X18897400Y-10726936D01*
X18897400Y-10663064D01*
X18897845Y-10658550D01*
X18898982Y-10654801D01*
X18900829Y-10651344D01*
X18903315Y-10648315D01*
X18906344Y-10645829D01*
X18909801Y-10643982D01*
X18913550Y-10642845D01*
X18918064Y-10642400D01*
X18991936Y-10642400D01*
X18996450Y-10642845D01*
X18996450Y-10642845D01*
G37*
G36*
X18821450Y-10642845D02*
X18825199Y-10643982D01*
X18828656Y-10645829D01*
X18831685Y-10648315D01*
X18834171Y-10651344D01*
X18836018Y-10654801D01*
X18837156Y-10658550D01*
X18837600Y-10663064D01*
X18837600Y-10726936D01*
X18837156Y-10731450D01*
X18836018Y-10735199D01*
X18834171Y-10738656D01*
X18831685Y-10741685D01*
X18828656Y-10744171D01*
X18825199Y-10746018D01*
X18821450Y-10747156D01*
X18816936Y-10747600D01*
X18743064Y-10747600D01*
X18738550Y-10747156D01*
X18734801Y-10746018D01*
X18731344Y-10744171D01*
X18728315Y-10741685D01*
X18725829Y-10738656D01*
X18723982Y-10735199D01*
X18722845Y-10731450D01*
X18722400Y-10726936D01*
X18722400Y-10663064D01*
X18722845Y-10658550D01*
X18723982Y-10654801D01*
X18725829Y-10651344D01*
X18728315Y-10648315D01*
X18731344Y-10645829D01*
X18734801Y-10643982D01*
X18738550Y-10642845D01*
X18743064Y-10642400D01*
X18816936Y-10642400D01*
X18821450Y-10642845D01*
X18821450Y-10642845D01*
G37*
G36*
X21804244Y-10566552D02*
X21810863Y-10567204D01*
X21822185Y-10570638D01*
X21827847Y-10572356D01*
X21841709Y-10579765D01*
X21843499Y-10580722D01*
X21847073Y-10583655D01*
X21857219Y-10591981D01*
X21865545Y-10602127D01*
X21868478Y-10605701D01*
X21868478Y-10605701D01*
X21876844Y-10621353D01*
X21876844Y-10621353D01*
X21881996Y-10638337D01*
X21883736Y-10656000D01*
X21881996Y-10673663D01*
X21878814Y-10684153D01*
X21876844Y-10690647D01*
X21874571Y-10694900D01*
X21868478Y-10706299D01*
X21865545Y-10709873D01*
X21857219Y-10720019D01*
X21847073Y-10728345D01*
X21843499Y-10731278D01*
X21843499Y-10731278D01*
X21827847Y-10739644D01*
X21822185Y-10741362D01*
X21810863Y-10744796D01*
X21804244Y-10745448D01*
X21797626Y-10746100D01*
X21788774Y-10746100D01*
X21782156Y-10745448D01*
X21775537Y-10744796D01*
X21764215Y-10741362D01*
X21758553Y-10739644D01*
X21742901Y-10731278D01*
X21742901Y-10731278D01*
X21739327Y-10728345D01*
X21729181Y-10720019D01*
X21720855Y-10709873D01*
X21717922Y-10706299D01*
X21711829Y-10694900D01*
X21709556Y-10690647D01*
X21707586Y-10684153D01*
X21704404Y-10673663D01*
X21702664Y-10656000D01*
X21704404Y-10638337D01*
X21709556Y-10621353D01*
X21709556Y-10621353D01*
X21717922Y-10605701D01*
X21717922Y-10605701D01*
X21720855Y-10602127D01*
X21729181Y-10591981D01*
X21739327Y-10583655D01*
X21742901Y-10580722D01*
X21744691Y-10579765D01*
X21758553Y-10572356D01*
X21764215Y-10570638D01*
X21775537Y-10567204D01*
X21782156Y-10566552D01*
X21788774Y-10565900D01*
X21797626Y-10565900D01*
X21804244Y-10566552D01*
X21804244Y-10566552D01*
G37*
G36*
X22238900Y-10690100D02*
X22058700Y-10690100D01*
X22058700Y-10509900D01*
X22238900Y-10509900D01*
X22238900Y-10690100D01*
X22238900Y-10690100D01*
G37*
G36*
X14051250Y-10456910D02*
X14058447Y-10457619D01*
X14069770Y-10461054D01*
X14075431Y-10462771D01*
X14089293Y-10470181D01*
X14091084Y-10471138D01*
X14094657Y-10474071D01*
X14104803Y-10482397D01*
X14111696Y-10490796D01*
X14116062Y-10496116D01*
X14116062Y-10496117D01*
X14124429Y-10511769D01*
X14124975Y-10513569D01*
X14129581Y-10528753D01*
X14131320Y-10546415D01*
X14129581Y-10564078D01*
X14127070Y-10572356D01*
X14124429Y-10581062D01*
X14124267Y-10581365D01*
X14116062Y-10596715D01*
X14113129Y-10600288D01*
X14104803Y-10610434D01*
X14094657Y-10618760D01*
X14091084Y-10621693D01*
X14091083Y-10621693D01*
X14075431Y-10630060D01*
X14069770Y-10631777D01*
X14058447Y-10635212D01*
X14051829Y-10635864D01*
X14045211Y-10636515D01*
X14036359Y-10636515D01*
X14029740Y-10635864D01*
X14023122Y-10635212D01*
X14011799Y-10631777D01*
X14006138Y-10630060D01*
X13990486Y-10621693D01*
X13990485Y-10621693D01*
X13986912Y-10618760D01*
X13976766Y-10610434D01*
X13968440Y-10600288D01*
X13965507Y-10596715D01*
X13957302Y-10581365D01*
X13957140Y-10581062D01*
X13954499Y-10572356D01*
X13951988Y-10564078D01*
X13950249Y-10546415D01*
X13951988Y-10528753D01*
X13956594Y-10513569D01*
X13957140Y-10511769D01*
X13965507Y-10496117D01*
X13965507Y-10496116D01*
X13969873Y-10490796D01*
X13976766Y-10482397D01*
X13986912Y-10474071D01*
X13990485Y-10471138D01*
X13992276Y-10470181D01*
X14006138Y-10462771D01*
X14011799Y-10461054D01*
X14023122Y-10457619D01*
X14030320Y-10456910D01*
X14036359Y-10456315D01*
X14045211Y-10456315D01*
X14051250Y-10456910D01*
X14051250Y-10456910D01*
G37*
G36*
X18996450Y-10492845D02*
X19000199Y-10493982D01*
X19003656Y-10495829D01*
X19006685Y-10498315D01*
X19009171Y-10501344D01*
X19011018Y-10504801D01*
X19012156Y-10508550D01*
X19012600Y-10513064D01*
X19012600Y-10576936D01*
X19012156Y-10581450D01*
X19011018Y-10585199D01*
X19009171Y-10588656D01*
X19006685Y-10591685D01*
X19003656Y-10594171D01*
X19000199Y-10596018D01*
X18996450Y-10597156D01*
X18991936Y-10597600D01*
X18918064Y-10597600D01*
X18913550Y-10597156D01*
X18909801Y-10596018D01*
X18906344Y-10594171D01*
X18903315Y-10591685D01*
X18900829Y-10588656D01*
X18898982Y-10585199D01*
X18897845Y-10581450D01*
X18897400Y-10576936D01*
X18897400Y-10513064D01*
X18897845Y-10508550D01*
X18898982Y-10504801D01*
X18900829Y-10501344D01*
X18903315Y-10498315D01*
X18906344Y-10495829D01*
X18909801Y-10493982D01*
X18913550Y-10492845D01*
X18918064Y-10492400D01*
X18991936Y-10492400D01*
X18996450Y-10492845D01*
X18996450Y-10492845D01*
G37*
G36*
X18821450Y-10492845D02*
X18825199Y-10493982D01*
X18828656Y-10495829D01*
X18831685Y-10498315D01*
X18834171Y-10501344D01*
X18836018Y-10504801D01*
X18837156Y-10508550D01*
X18837600Y-10513064D01*
X18837600Y-10576936D01*
X18837156Y-10581450D01*
X18836018Y-10585199D01*
X18834171Y-10588656D01*
X18831685Y-10591685D01*
X18828656Y-10594171D01*
X18825199Y-10596018D01*
X18821450Y-10597156D01*
X18816936Y-10597600D01*
X18743064Y-10597600D01*
X18738550Y-10597156D01*
X18734801Y-10596018D01*
X18731344Y-10594171D01*
X18728315Y-10591685D01*
X18725829Y-10588656D01*
X18723982Y-10585199D01*
X18722845Y-10581450D01*
X18722400Y-10576936D01*
X18722400Y-10513064D01*
X18722845Y-10508550D01*
X18723982Y-10504801D01*
X18725829Y-10501344D01*
X18728315Y-10498315D01*
X18731344Y-10495829D01*
X18734801Y-10493982D01*
X18738550Y-10492845D01*
X18743064Y-10492400D01*
X18816936Y-10492400D01*
X18821450Y-10492845D01*
X18821450Y-10492845D01*
G37*
G36*
X20788244Y-10375352D02*
X20794863Y-10376004D01*
X20806185Y-10379438D01*
X20811847Y-10381156D01*
X20825709Y-10388565D01*
X20827499Y-10389522D01*
X20831073Y-10392455D01*
X20841219Y-10400781D01*
X20849545Y-10410927D01*
X20852478Y-10414501D01*
X20852478Y-10414501D01*
X20860844Y-10430153D01*
X20861049Y-10430829D01*
X20865996Y-10447137D01*
X20867736Y-10464800D01*
X20865996Y-10482463D01*
X20863468Y-10490796D01*
X20860844Y-10499447D01*
X20854258Y-10511769D01*
X20852478Y-10515099D01*
X20849545Y-10518673D01*
X20841219Y-10528819D01*
X20831073Y-10537145D01*
X20827499Y-10540078D01*
X20827499Y-10540078D01*
X20811847Y-10548444D01*
X20806185Y-10550162D01*
X20794863Y-10553596D01*
X20788244Y-10554248D01*
X20781626Y-10554900D01*
X20772774Y-10554900D01*
X20766156Y-10554248D01*
X20759537Y-10553596D01*
X20748215Y-10550162D01*
X20742553Y-10548444D01*
X20726901Y-10540078D01*
X20726901Y-10540078D01*
X20723327Y-10537145D01*
X20713181Y-10528819D01*
X20704855Y-10518673D01*
X20701922Y-10515099D01*
X20700142Y-10511769D01*
X20693556Y-10499447D01*
X20690932Y-10490796D01*
X20688404Y-10482463D01*
X20686664Y-10464800D01*
X20688404Y-10447137D01*
X20693351Y-10430829D01*
X20693556Y-10430153D01*
X20701922Y-10414501D01*
X20701922Y-10414501D01*
X20704855Y-10410927D01*
X20713181Y-10400781D01*
X20723327Y-10392455D01*
X20726901Y-10389522D01*
X20728691Y-10388565D01*
X20742553Y-10381156D01*
X20748215Y-10379438D01*
X20759537Y-10376004D01*
X20766156Y-10375352D01*
X20772774Y-10374700D01*
X20781626Y-10374700D01*
X20788244Y-10375352D01*
X20788244Y-10375352D01*
G37*
G36*
X21804244Y-10312552D02*
X21810863Y-10313204D01*
X21821766Y-10316511D01*
X21827847Y-10318356D01*
X21841709Y-10325765D01*
X21843499Y-10326722D01*
X21845467Y-10328337D01*
X21857219Y-10337981D01*
X21863799Y-10346000D01*
X21868478Y-10351701D01*
X21868478Y-10351701D01*
X21876844Y-10367353D01*
X21876844Y-10367353D01*
X21881996Y-10384337D01*
X21883736Y-10402000D01*
X21881996Y-10419663D01*
X21881506Y-10421278D01*
X21876844Y-10436647D01*
X21871237Y-10447137D01*
X21868478Y-10452299D01*
X21865764Y-10455607D01*
X21857219Y-10466019D01*
X21847073Y-10474345D01*
X21843499Y-10477278D01*
X21843499Y-10477278D01*
X21827847Y-10485644D01*
X21822185Y-10487362D01*
X21810863Y-10490796D01*
X21804244Y-10491448D01*
X21797626Y-10492100D01*
X21788774Y-10492100D01*
X21782156Y-10491448D01*
X21775537Y-10490796D01*
X21764215Y-10487362D01*
X21758553Y-10485644D01*
X21742901Y-10477278D01*
X21742901Y-10477278D01*
X21739327Y-10474345D01*
X21729181Y-10466019D01*
X21720637Y-10455607D01*
X21717922Y-10452299D01*
X21715163Y-10447137D01*
X21709556Y-10436647D01*
X21704894Y-10421278D01*
X21704404Y-10419663D01*
X21702664Y-10402000D01*
X21704404Y-10384337D01*
X21709556Y-10367353D01*
X21709556Y-10367353D01*
X21717922Y-10351701D01*
X21717922Y-10351701D01*
X21722601Y-10346000D01*
X21729181Y-10337981D01*
X21740933Y-10328337D01*
X21742901Y-10326722D01*
X21744691Y-10325765D01*
X21758553Y-10318356D01*
X21764634Y-10316511D01*
X21775537Y-10313204D01*
X21782156Y-10312552D01*
X21788774Y-10311900D01*
X21797626Y-10311900D01*
X21804244Y-10312552D01*
X21804244Y-10312552D01*
G37*
G36*
X14230856Y-10277305D02*
X14238052Y-10278014D01*
X14249375Y-10281449D01*
X14255036Y-10283166D01*
X14268898Y-10290575D01*
X14270689Y-10291532D01*
X14274263Y-10294465D01*
X14284408Y-10302792D01*
X14292735Y-10312937D01*
X14295668Y-10316511D01*
X14295668Y-10316511D01*
X14304034Y-10332164D01*
X14304034Y-10332164D01*
X14309186Y-10349148D01*
X14310926Y-10366810D01*
X14309186Y-10384473D01*
X14307654Y-10389522D01*
X14304034Y-10401457D01*
X14299458Y-10410019D01*
X14295668Y-10417109D01*
X14292735Y-10420683D01*
X14284408Y-10430829D01*
X14274263Y-10439155D01*
X14270689Y-10442088D01*
X14270689Y-10442088D01*
X14255036Y-10450455D01*
X14249375Y-10452172D01*
X14238052Y-10455607D01*
X14231434Y-10456258D01*
X14224816Y-10456910D01*
X14215964Y-10456910D01*
X14209346Y-10456258D01*
X14202727Y-10455607D01*
X14191404Y-10452172D01*
X14185743Y-10450455D01*
X14170091Y-10442088D01*
X14170091Y-10442088D01*
X14166517Y-10439155D01*
X14156371Y-10430829D01*
X14148045Y-10420683D01*
X14145112Y-10417109D01*
X14141322Y-10410019D01*
X14136745Y-10401457D01*
X14133125Y-10389522D01*
X14131593Y-10384473D01*
X14129854Y-10366810D01*
X14131593Y-10349148D01*
X14136745Y-10332164D01*
X14136745Y-10332164D01*
X14145112Y-10316511D01*
X14145112Y-10316511D01*
X14148045Y-10312937D01*
X14156371Y-10302792D01*
X14166517Y-10294465D01*
X14170091Y-10291532D01*
X14171881Y-10290575D01*
X14185743Y-10283166D01*
X14191404Y-10281449D01*
X14202727Y-10278014D01*
X14209924Y-10277305D01*
X14215964Y-10276710D01*
X14224816Y-10276710D01*
X14230856Y-10277305D01*
X14230856Y-10277305D01*
G37*
G36*
X22159844Y-10256552D02*
X22166463Y-10257204D01*
X22177785Y-10260638D01*
X22183447Y-10262356D01*
X22197309Y-10269765D01*
X22199099Y-10270722D01*
X22202673Y-10273655D01*
X22212819Y-10281981D01*
X22220657Y-10291532D01*
X22224078Y-10295701D01*
X22224078Y-10295701D01*
X22232444Y-10311353D01*
X22232444Y-10311353D01*
X22237596Y-10328337D01*
X22239336Y-10346000D01*
X22237596Y-10363663D01*
X22236477Y-10367353D01*
X22232444Y-10380647D01*
X22232172Y-10381156D01*
X22224078Y-10396299D01*
X22221145Y-10399873D01*
X22212819Y-10410019D01*
X22204178Y-10417109D01*
X22199099Y-10421278D01*
X22199099Y-10421278D01*
X22183447Y-10429644D01*
X22177785Y-10431362D01*
X22166463Y-10434796D01*
X22159844Y-10435448D01*
X22153226Y-10436100D01*
X22144374Y-10436100D01*
X22137756Y-10435448D01*
X22131137Y-10434796D01*
X22119815Y-10431362D01*
X22114153Y-10429644D01*
X22098501Y-10421278D01*
X22098501Y-10421278D01*
X22093422Y-10417109D01*
X22084781Y-10410019D01*
X22076455Y-10399873D01*
X22073522Y-10396299D01*
X22065428Y-10381156D01*
X22065156Y-10380647D01*
X22061123Y-10367353D01*
X22060004Y-10363663D01*
X22058264Y-10346000D01*
X22060004Y-10328337D01*
X22065156Y-10311353D01*
X22065156Y-10311353D01*
X22073522Y-10295701D01*
X22073522Y-10295701D01*
X22076943Y-10291532D01*
X22084781Y-10281981D01*
X22094927Y-10273655D01*
X22098501Y-10270722D01*
X22100291Y-10269765D01*
X22114153Y-10262356D01*
X22119815Y-10260638D01*
X22131137Y-10257204D01*
X22137756Y-10256552D01*
X22144374Y-10255900D01*
X22153226Y-10255900D01*
X22159844Y-10256552D01*
X22159844Y-10256552D01*
G37*
G36*
X20867300Y-10300900D02*
X20687100Y-10300900D01*
X20687100Y-10120700D01*
X20867300Y-10120700D01*
X20867300Y-10300900D01*
X20867300Y-10300900D01*
G37*
G36*
X14410470Y-10097701D02*
X14417658Y-10098409D01*
X14428980Y-10101844D01*
X14434642Y-10103561D01*
X14446057Y-10109663D01*
X14450294Y-10111927D01*
X14452032Y-10113353D01*
X14464013Y-10123187D01*
X14472340Y-10133332D01*
X14475273Y-10136906D01*
X14475273Y-10136906D01*
X14483639Y-10152558D01*
X14483639Y-10152559D01*
X14488791Y-10169542D01*
X14490531Y-10187205D01*
X14488791Y-10204868D01*
X14486622Y-10212019D01*
X14483639Y-10221852D01*
X14482877Y-10223278D01*
X14475273Y-10237504D01*
X14474784Y-10238100D01*
X14464013Y-10251224D01*
X14456727Y-10257204D01*
X14450294Y-10262483D01*
X14450294Y-10262483D01*
X14434642Y-10270849D01*
X14428980Y-10272567D01*
X14417658Y-10276001D01*
X14411039Y-10276653D01*
X14404421Y-10277305D01*
X14395569Y-10277305D01*
X14388951Y-10276653D01*
X14382332Y-10276001D01*
X14371010Y-10272567D01*
X14365348Y-10270849D01*
X14349696Y-10262483D01*
X14349696Y-10262483D01*
X14343263Y-10257204D01*
X14335976Y-10251224D01*
X14325206Y-10238100D01*
X14324717Y-10237504D01*
X14317113Y-10223278D01*
X14316351Y-10221852D01*
X14313368Y-10212019D01*
X14311199Y-10204868D01*
X14309459Y-10187205D01*
X14311199Y-10169542D01*
X14316351Y-10152559D01*
X14316351Y-10152558D01*
X14324717Y-10136906D01*
X14324717Y-10136906D01*
X14327650Y-10133332D01*
X14335976Y-10123187D01*
X14347958Y-10113353D01*
X14349696Y-10111927D01*
X14353933Y-10109663D01*
X14365348Y-10103561D01*
X14371010Y-10101844D01*
X14382332Y-10098409D01*
X14389520Y-10097701D01*
X14395569Y-10097105D01*
X14404421Y-10097105D01*
X14410470Y-10097701D01*
X14410470Y-10097701D01*
G37*
G36*
X21804244Y-10058552D02*
X21810863Y-10059204D01*
X21822185Y-10062638D01*
X21827847Y-10064356D01*
X21841709Y-10071765D01*
X21843499Y-10072722D01*
X21845467Y-10074337D01*
X21857219Y-10083981D01*
X21863799Y-10092000D01*
X21868478Y-10097701D01*
X21868478Y-10097701D01*
X21876844Y-10113353D01*
X21877769Y-10116402D01*
X21881996Y-10130337D01*
X21883736Y-10148000D01*
X21881996Y-10165663D01*
X21881506Y-10167278D01*
X21876844Y-10182647D01*
X21874408Y-10187205D01*
X21868478Y-10198299D01*
X21868370Y-10198431D01*
X21857219Y-10212019D01*
X21848596Y-10219095D01*
X21843499Y-10223278D01*
X21843499Y-10223278D01*
X21827847Y-10231644D01*
X21822185Y-10233362D01*
X21810863Y-10236796D01*
X21804244Y-10237448D01*
X21797626Y-10238100D01*
X21788774Y-10238100D01*
X21782156Y-10237448D01*
X21775537Y-10236796D01*
X21764215Y-10233362D01*
X21758553Y-10231644D01*
X21742901Y-10223278D01*
X21742901Y-10223278D01*
X21737804Y-10219095D01*
X21729181Y-10212019D01*
X21718030Y-10198431D01*
X21717922Y-10198299D01*
X21711992Y-10187205D01*
X21709556Y-10182647D01*
X21704894Y-10167278D01*
X21704404Y-10165663D01*
X21702664Y-10148000D01*
X21704404Y-10130337D01*
X21708631Y-10116402D01*
X21709556Y-10113353D01*
X21717922Y-10097701D01*
X21717922Y-10097701D01*
X21722601Y-10092000D01*
X21729181Y-10083981D01*
X21740933Y-10074337D01*
X21742901Y-10072722D01*
X21744691Y-10071765D01*
X21758553Y-10064356D01*
X21764215Y-10062638D01*
X21775537Y-10059204D01*
X21782156Y-10058552D01*
X21788774Y-10057900D01*
X21797626Y-10057900D01*
X21804244Y-10058552D01*
X21804244Y-10058552D01*
G37*
G36*
X18969950Y-10114845D02*
X18973699Y-10115982D01*
X18977156Y-10117829D01*
X18980185Y-10120315D01*
X18982671Y-10123344D01*
X18984518Y-10126801D01*
X18985656Y-10130550D01*
X18986100Y-10135064D01*
X18986100Y-10198936D01*
X18985656Y-10203450D01*
X18984518Y-10207199D01*
X18982671Y-10210656D01*
X18980185Y-10213685D01*
X18977156Y-10216171D01*
X18973699Y-10218018D01*
X18969950Y-10219156D01*
X18965436Y-10219600D01*
X18891564Y-10219600D01*
X18887050Y-10219156D01*
X18883301Y-10218018D01*
X18879844Y-10216171D01*
X18876815Y-10213685D01*
X18874329Y-10210656D01*
X18872482Y-10207199D01*
X18871345Y-10203450D01*
X18870900Y-10198936D01*
X18870900Y-10135064D01*
X18871345Y-10130550D01*
X18872482Y-10126801D01*
X18874329Y-10123344D01*
X18876815Y-10120315D01*
X18879844Y-10117829D01*
X18883301Y-10115982D01*
X18887050Y-10114845D01*
X18891564Y-10114400D01*
X18965436Y-10114400D01*
X18969950Y-10114845D01*
X18969950Y-10114845D01*
G37*
G36*
X18794950Y-10114845D02*
X18798699Y-10115982D01*
X18802156Y-10117829D01*
X18805185Y-10120315D01*
X18807671Y-10123344D01*
X18809518Y-10126801D01*
X18810656Y-10130550D01*
X18811100Y-10135064D01*
X18811100Y-10198936D01*
X18810656Y-10203450D01*
X18809518Y-10207199D01*
X18807671Y-10210656D01*
X18805185Y-10213685D01*
X18802156Y-10216171D01*
X18798699Y-10218018D01*
X18794950Y-10219156D01*
X18790436Y-10219600D01*
X18716564Y-10219600D01*
X18712050Y-10219156D01*
X18708301Y-10218018D01*
X18704844Y-10216171D01*
X18701815Y-10213685D01*
X18699329Y-10210656D01*
X18697482Y-10207199D01*
X18696345Y-10203450D01*
X18695900Y-10198936D01*
X18695900Y-10135064D01*
X18696345Y-10130550D01*
X18697482Y-10126801D01*
X18699329Y-10123344D01*
X18701815Y-10120315D01*
X18704844Y-10117829D01*
X18708301Y-10115982D01*
X18712050Y-10114845D01*
X18716564Y-10114400D01*
X18790436Y-10114400D01*
X18794950Y-10114845D01*
X18794950Y-10114845D01*
G37*
G36*
X22159844Y-10002552D02*
X22166463Y-10003204D01*
X22177785Y-10006638D01*
X22183447Y-10008356D01*
X22197309Y-10015765D01*
X22199099Y-10016722D01*
X22202673Y-10019655D01*
X22212819Y-10027981D01*
X22221145Y-10038127D01*
X22224078Y-10041701D01*
X22224078Y-10041701D01*
X22232444Y-10057353D01*
X22232444Y-10057353D01*
X22237596Y-10074337D01*
X22239336Y-10092000D01*
X22237596Y-10109663D01*
X22234815Y-10118832D01*
X22232444Y-10126647D01*
X22227968Y-10135021D01*
X22224078Y-10142299D01*
X22221943Y-10144900D01*
X22212819Y-10156019D01*
X22202673Y-10164345D01*
X22199099Y-10167278D01*
X22199099Y-10167278D01*
X22183447Y-10175644D01*
X22177785Y-10177362D01*
X22166463Y-10180796D01*
X22159844Y-10181448D01*
X22153226Y-10182100D01*
X22144374Y-10182100D01*
X22137756Y-10181448D01*
X22131137Y-10180796D01*
X22119815Y-10177362D01*
X22114153Y-10175644D01*
X22098501Y-10167278D01*
X22098501Y-10167278D01*
X22094927Y-10164345D01*
X22084781Y-10156019D01*
X22075657Y-10144900D01*
X22073522Y-10142299D01*
X22069632Y-10135021D01*
X22065156Y-10126647D01*
X22062785Y-10118832D01*
X22060004Y-10109663D01*
X22058264Y-10092000D01*
X22060004Y-10074337D01*
X22065156Y-10057353D01*
X22065156Y-10057353D01*
X22073522Y-10041701D01*
X22073522Y-10041701D01*
X22076455Y-10038127D01*
X22084781Y-10027981D01*
X22094927Y-10019655D01*
X22098501Y-10016722D01*
X22100291Y-10015765D01*
X22114153Y-10008356D01*
X22119815Y-10006638D01*
X22131137Y-10003204D01*
X22137756Y-10002552D01*
X22144374Y-10001900D01*
X22153226Y-10001900D01*
X22159844Y-10002552D01*
X22159844Y-10002552D01*
G37*
G36*
X14707021Y-10007600D02*
X14579600Y-10135021D01*
X14452179Y-10007600D01*
X14579600Y-9880179D01*
X14707021Y-10007600D01*
X14707021Y-10007600D01*
G37*
G36*
X20242600Y-10022600D02*
X19457400Y-10022600D01*
X19457400Y-9912400D01*
X20242600Y-9912400D01*
X20242600Y-10022600D01*
X20242600Y-10022600D01*
G37*
G36*
X21804244Y-9804552D02*
X21810863Y-9805204D01*
X21822185Y-9808638D01*
X21827847Y-9810356D01*
X21841504Y-9817656D01*
X21843499Y-9818722D01*
X21845467Y-9820337D01*
X21857219Y-9829981D01*
X21863799Y-9838000D01*
X21868478Y-9843701D01*
X21868478Y-9843701D01*
X21876844Y-9859353D01*
X21876844Y-9859353D01*
X21881996Y-9876337D01*
X21883736Y-9894000D01*
X21881996Y-9911663D01*
X21881506Y-9913278D01*
X21876844Y-9928647D01*
X21869435Y-9942509D01*
X21868478Y-9944299D01*
X21865545Y-9947873D01*
X21857219Y-9958019D01*
X21847073Y-9966345D01*
X21843499Y-9969278D01*
X21843499Y-9969278D01*
X21827847Y-9977644D01*
X21822185Y-9979362D01*
X21810863Y-9982796D01*
X21804244Y-9983448D01*
X21797626Y-9984100D01*
X21788774Y-9984100D01*
X21782156Y-9983448D01*
X21775537Y-9982796D01*
X21764215Y-9979362D01*
X21758553Y-9977644D01*
X21742901Y-9969278D01*
X21742901Y-9969278D01*
X21739327Y-9966345D01*
X21729181Y-9958019D01*
X21720855Y-9947873D01*
X21717922Y-9944299D01*
X21716965Y-9942509D01*
X21709556Y-9928647D01*
X21704894Y-9913278D01*
X21704404Y-9911663D01*
X21702664Y-9894000D01*
X21704404Y-9876337D01*
X21709556Y-9859353D01*
X21709556Y-9859353D01*
X21717922Y-9843701D01*
X21717922Y-9843701D01*
X21722601Y-9838000D01*
X21729181Y-9829981D01*
X21740933Y-9820337D01*
X21742901Y-9818722D01*
X21744896Y-9817656D01*
X21758553Y-9810356D01*
X21764215Y-9808638D01*
X21775537Y-9805204D01*
X21782156Y-9804552D01*
X21788774Y-9803900D01*
X21797626Y-9803900D01*
X21804244Y-9804552D01*
X21804244Y-9804552D01*
G37*
G36*
X22159844Y-9748552D02*
X22166463Y-9749204D01*
X22177785Y-9752638D01*
X22183447Y-9754356D01*
X22197309Y-9761765D01*
X22199099Y-9762722D01*
X22202673Y-9765655D01*
X22212819Y-9773981D01*
X22221145Y-9784127D01*
X22224078Y-9787701D01*
X22224078Y-9787701D01*
X22232444Y-9803353D01*
X22232444Y-9803353D01*
X22237596Y-9820337D01*
X22239336Y-9838000D01*
X22237596Y-9855663D01*
X22236477Y-9859353D01*
X22232444Y-9872647D01*
X22230472Y-9876337D01*
X22224078Y-9888299D01*
X22221145Y-9891873D01*
X22212819Y-9902019D01*
X22202673Y-9910345D01*
X22199099Y-9913278D01*
X22199099Y-9913278D01*
X22183447Y-9921644D01*
X22177785Y-9923362D01*
X22166463Y-9926796D01*
X22159844Y-9927448D01*
X22153226Y-9928100D01*
X22144374Y-9928100D01*
X22137756Y-9927448D01*
X22131137Y-9926796D01*
X22119815Y-9923362D01*
X22114153Y-9921644D01*
X22098501Y-9913278D01*
X22098501Y-9913278D01*
X22094927Y-9910345D01*
X22084781Y-9902019D01*
X22076455Y-9891873D01*
X22073522Y-9888299D01*
X22067128Y-9876337D01*
X22065156Y-9872647D01*
X22061123Y-9859353D01*
X22060004Y-9855663D01*
X22058264Y-9838000D01*
X22060004Y-9820337D01*
X22065156Y-9803353D01*
X22065156Y-9803353D01*
X22073522Y-9787701D01*
X22073522Y-9787701D01*
X22076455Y-9784127D01*
X22084781Y-9773981D01*
X22094927Y-9765655D01*
X22098501Y-9762722D01*
X22100291Y-9761765D01*
X22114153Y-9754356D01*
X22119815Y-9752638D01*
X22131137Y-9749204D01*
X22137756Y-9748552D01*
X22144374Y-9747900D01*
X22153226Y-9747900D01*
X22159844Y-9748552D01*
X22159844Y-9748552D01*
G37*
G36*
X20169450Y-9721845D02*
X20173199Y-9722982D01*
X20176656Y-9724829D01*
X20179685Y-9727315D01*
X20182171Y-9730344D01*
X20184018Y-9733801D01*
X20185156Y-9737550D01*
X20185600Y-9742064D01*
X20185600Y-9805936D01*
X20185156Y-9810450D01*
X20184018Y-9814199D01*
X20182171Y-9817656D01*
X20179685Y-9820685D01*
X20176656Y-9823171D01*
X20173199Y-9825018D01*
X20169450Y-9826156D01*
X20164936Y-9826600D01*
X20091064Y-9826600D01*
X20086550Y-9826156D01*
X20082801Y-9825018D01*
X20079344Y-9823171D01*
X20076315Y-9820685D01*
X20073829Y-9817656D01*
X20071982Y-9814199D01*
X20070845Y-9810450D01*
X20070400Y-9805936D01*
X20070400Y-9742064D01*
X20070845Y-9737550D01*
X20071982Y-9733801D01*
X20073829Y-9730344D01*
X20076315Y-9727315D01*
X20079344Y-9724829D01*
X20082801Y-9722982D01*
X20086550Y-9721845D01*
X20091064Y-9721400D01*
X20164936Y-9721400D01*
X20169450Y-9721845D01*
X20169450Y-9721845D01*
G37*
G36*
X20344450Y-9721845D02*
X20348199Y-9722982D01*
X20351656Y-9724829D01*
X20354685Y-9727315D01*
X20357171Y-9730344D01*
X20359018Y-9733801D01*
X20360156Y-9737550D01*
X20360600Y-9742064D01*
X20360600Y-9805936D01*
X20360156Y-9810450D01*
X20359018Y-9814199D01*
X20357171Y-9817656D01*
X20354685Y-9820685D01*
X20351656Y-9823171D01*
X20348199Y-9825018D01*
X20344450Y-9826156D01*
X20339936Y-9826600D01*
X20266064Y-9826600D01*
X20261550Y-9826156D01*
X20257801Y-9825018D01*
X20254344Y-9823171D01*
X20251315Y-9820685D01*
X20248829Y-9817656D01*
X20246982Y-9814199D01*
X20245845Y-9810450D01*
X20245400Y-9805936D01*
X20245400Y-9742064D01*
X20245845Y-9737550D01*
X20246982Y-9733801D01*
X20248829Y-9730344D01*
X20251315Y-9727315D01*
X20254344Y-9724829D01*
X20257801Y-9722982D01*
X20261550Y-9721845D01*
X20266064Y-9721400D01*
X20339936Y-9721400D01*
X20344450Y-9721845D01*
X20344450Y-9721845D01*
G37*
G36*
X18715699Y-8567610D02*
X18724232Y-8568451D01*
X18737917Y-8572602D01*
X18737917Y-8572602D01*
X18737918Y-8572602D01*
X18750530Y-8579343D01*
X18761584Y-8588416D01*
X18770657Y-8599470D01*
X18777398Y-8612082D01*
X18777398Y-8612083D01*
X18777398Y-8612083D01*
X18781550Y-8625768D01*
X18782951Y-8640000D01*
X18781550Y-8654232D01*
X18777398Y-8667917D01*
X18777398Y-8667918D01*
X18770657Y-8680530D01*
X18761584Y-8691584D01*
X18750530Y-8700657D01*
X18737918Y-8707398D01*
X18737917Y-8707398D01*
X18737917Y-8707398D01*
X18724232Y-8711550D01*
X18715699Y-8712390D01*
X18713566Y-8712600D01*
X18706434Y-8712600D01*
X18704301Y-8712390D01*
X18695768Y-8711550D01*
X18682083Y-8707398D01*
X18682083Y-8707398D01*
X18682082Y-8707398D01*
X18669470Y-8700657D01*
X18658416Y-8691584D01*
X18649343Y-8680530D01*
X18642602Y-8667918D01*
X18642602Y-8667917D01*
X18638451Y-8654232D01*
X18637049Y-8640000D01*
X18638451Y-8625768D01*
X18642602Y-8612083D01*
X18642602Y-8612083D01*
X18642602Y-8612082D01*
X18649343Y-8599470D01*
X18658416Y-8588416D01*
X18669470Y-8579343D01*
X18682082Y-8572602D01*
X18682083Y-8572602D01*
X18682083Y-8572602D01*
X18695768Y-8568451D01*
X18704301Y-8567610D01*
X18706434Y-8567400D01*
X18713566Y-8567400D01*
X18715699Y-8567610D01*
X18715699Y-8567610D01*
G37*
G36*
X17382600Y-8702600D02*
X17237400Y-8702600D01*
X17237400Y-8557400D01*
X17382600Y-8557400D01*
X17382600Y-8702600D01*
X17382600Y-8702600D01*
G37*
G36*
X18715699Y-8367610D02*
X18724232Y-8368450D01*
X18737917Y-8372602D01*
X18737917Y-8372602D01*
X18737918Y-8372602D01*
X18750530Y-8379343D01*
X18761584Y-8388416D01*
X18770657Y-8399470D01*
X18777398Y-8412082D01*
X18777398Y-8412083D01*
X18777398Y-8412083D01*
X18781550Y-8425768D01*
X18782951Y-8440000D01*
X18781550Y-8454232D01*
X18777398Y-8467917D01*
X18777398Y-8467918D01*
X18770657Y-8480530D01*
X18761584Y-8491584D01*
X18750530Y-8500657D01*
X18737918Y-8507398D01*
X18737917Y-8507398D01*
X18737917Y-8507398D01*
X18724232Y-8511550D01*
X18715699Y-8512390D01*
X18713566Y-8512600D01*
X18706434Y-8512600D01*
X18704301Y-8512390D01*
X18695768Y-8511550D01*
X18682083Y-8507398D01*
X18682083Y-8507398D01*
X18682082Y-8507398D01*
X18669470Y-8500657D01*
X18658416Y-8491584D01*
X18649343Y-8480530D01*
X18642602Y-8467918D01*
X18642602Y-8467917D01*
X18638451Y-8454232D01*
X18637049Y-8440000D01*
X18638451Y-8425768D01*
X18642602Y-8412083D01*
X18642602Y-8412083D01*
X18642602Y-8412082D01*
X18649343Y-8399470D01*
X18658416Y-8388416D01*
X18669470Y-8379343D01*
X18682082Y-8372602D01*
X18682083Y-8372602D01*
X18682083Y-8372602D01*
X18695768Y-8368450D01*
X18704301Y-8367610D01*
X18706434Y-8367400D01*
X18713566Y-8367400D01*
X18715699Y-8367610D01*
X18715699Y-8367610D01*
G37*
G36*
X17315699Y-8357610D02*
X17324232Y-8358450D01*
X17337917Y-8362602D01*
X17337917Y-8362602D01*
X17337918Y-8362602D01*
X17350530Y-8369343D01*
X17361584Y-8378416D01*
X17370657Y-8389470D01*
X17377398Y-8402082D01*
X17377398Y-8402083D01*
X17377398Y-8402083D01*
X17381550Y-8415768D01*
X17382951Y-8430000D01*
X17381550Y-8444232D01*
X17377398Y-8457917D01*
X17377398Y-8457918D01*
X17370657Y-8470530D01*
X17361584Y-8481584D01*
X17350530Y-8490657D01*
X17337918Y-8497398D01*
X17337917Y-8497398D01*
X17337917Y-8497398D01*
X17324232Y-8501550D01*
X17315699Y-8502390D01*
X17313566Y-8502600D01*
X17306434Y-8502600D01*
X17304301Y-8502390D01*
X17295768Y-8501550D01*
X17282083Y-8497398D01*
X17282083Y-8497398D01*
X17282082Y-8497398D01*
X17269470Y-8490657D01*
X17258416Y-8481584D01*
X17249343Y-8470530D01*
X17242602Y-8457918D01*
X17242602Y-8457917D01*
X17238451Y-8444232D01*
X17237049Y-8430000D01*
X17238451Y-8415768D01*
X17242602Y-8402083D01*
X17242602Y-8402083D01*
X17242602Y-8402082D01*
X17249343Y-8389470D01*
X17258416Y-8378416D01*
X17269470Y-8369343D01*
X17282082Y-8362602D01*
X17282083Y-8362602D01*
X17282083Y-8362602D01*
X17295768Y-8358450D01*
X17304301Y-8357610D01*
X17306434Y-8357400D01*
X17313566Y-8357400D01*
X17315699Y-8357610D01*
X17315699Y-8357610D01*
G37*
G36*
X18715699Y-8167610D02*
X18724232Y-8168450D01*
X18737917Y-8172602D01*
X18737917Y-8172602D01*
X18737918Y-8172602D01*
X18750530Y-8179343D01*
X18761584Y-8188416D01*
X18770657Y-8199470D01*
X18777398Y-8212082D01*
X18777398Y-8212083D01*
X18777398Y-8212083D01*
X18781550Y-8225768D01*
X18782951Y-8240000D01*
X18781550Y-8254232D01*
X18777398Y-8267917D01*
X18777398Y-8267918D01*
X18770657Y-8280530D01*
X18761584Y-8291584D01*
X18750530Y-8300657D01*
X18737918Y-8307398D01*
X18737917Y-8307398D01*
X18737917Y-8307398D01*
X18724232Y-8311549D01*
X18715699Y-8312390D01*
X18713566Y-8312600D01*
X18706434Y-8312600D01*
X18704301Y-8312390D01*
X18695768Y-8311549D01*
X18682083Y-8307398D01*
X18682083Y-8307398D01*
X18682082Y-8307398D01*
X18669470Y-8300657D01*
X18658416Y-8291584D01*
X18649343Y-8280530D01*
X18642602Y-8267918D01*
X18642602Y-8267917D01*
X18638451Y-8254232D01*
X18637049Y-8240000D01*
X18638451Y-8225768D01*
X18642602Y-8212083D01*
X18642602Y-8212083D01*
X18642602Y-8212082D01*
X18649343Y-8199470D01*
X18658416Y-8188416D01*
X18669470Y-8179343D01*
X18682082Y-8172602D01*
X18682083Y-8172602D01*
X18682083Y-8172602D01*
X18695768Y-8168450D01*
X18704301Y-8167610D01*
X18706434Y-8167400D01*
X18713566Y-8167400D01*
X18715699Y-8167610D01*
X18715699Y-8167610D01*
G37*
G36*
X17315699Y-8157610D02*
X17324232Y-8158450D01*
X17337917Y-8162602D01*
X17337917Y-8162602D01*
X17337918Y-8162602D01*
X17350530Y-8169343D01*
X17361584Y-8178416D01*
X17370657Y-8189470D01*
X17377398Y-8202082D01*
X17377398Y-8202083D01*
X17377398Y-8202083D01*
X17381550Y-8215768D01*
X17382951Y-8230000D01*
X17381550Y-8244232D01*
X17377398Y-8257917D01*
X17377398Y-8257918D01*
X17370657Y-8270530D01*
X17361584Y-8281584D01*
X17350530Y-8290657D01*
X17337918Y-8297398D01*
X17337917Y-8297398D01*
X17337917Y-8297398D01*
X17324232Y-8301549D01*
X17315699Y-8302390D01*
X17313566Y-8302600D01*
X17306434Y-8302600D01*
X17304301Y-8302390D01*
X17295768Y-8301549D01*
X17282083Y-8297398D01*
X17282083Y-8297398D01*
X17282082Y-8297398D01*
X17269470Y-8290657D01*
X17258416Y-8281584D01*
X17249343Y-8270530D01*
X17242602Y-8257918D01*
X17242602Y-8257917D01*
X17238451Y-8244232D01*
X17237049Y-8230000D01*
X17238451Y-8215768D01*
X17242602Y-8202083D01*
X17242602Y-8202083D01*
X17242602Y-8202082D01*
X17249343Y-8189470D01*
X17258416Y-8178416D01*
X17269470Y-8169343D01*
X17282082Y-8162602D01*
X17282083Y-8162602D01*
X17282083Y-8162602D01*
X17295768Y-8158450D01*
X17304301Y-8157610D01*
X17306434Y-8157400D01*
X17313566Y-8157400D01*
X17315699Y-8157610D01*
X17315699Y-8157610D01*
G37*
G36*
X18715699Y-7967610D02*
X18724232Y-7968450D01*
X18737917Y-7972602D01*
X18737917Y-7972602D01*
X18737918Y-7972602D01*
X18750530Y-7979343D01*
X18761584Y-7988416D01*
X18770657Y-7999470D01*
X18777398Y-8012082D01*
X18777398Y-8012083D01*
X18777398Y-8012083D01*
X18781550Y-8025768D01*
X18782951Y-8040000D01*
X18781550Y-8054232D01*
X18777398Y-8067917D01*
X18777398Y-8067918D01*
X18770657Y-8080530D01*
X18761584Y-8091584D01*
X18750530Y-8100657D01*
X18737918Y-8107398D01*
X18737917Y-8107398D01*
X18737917Y-8107398D01*
X18724232Y-8111549D01*
X18715699Y-8112390D01*
X18713566Y-8112600D01*
X18706434Y-8112600D01*
X18704301Y-8112390D01*
X18695768Y-8111549D01*
X18682083Y-8107398D01*
X18682083Y-8107398D01*
X18682082Y-8107398D01*
X18669470Y-8100657D01*
X18658416Y-8091584D01*
X18649343Y-8080530D01*
X18642602Y-8067918D01*
X18642602Y-8067917D01*
X18638451Y-8054232D01*
X18637049Y-8040000D01*
X18638451Y-8025768D01*
X18642602Y-8012083D01*
X18642602Y-8012083D01*
X18642602Y-8012082D01*
X18649343Y-7999470D01*
X18658416Y-7988416D01*
X18669470Y-7979343D01*
X18682082Y-7972602D01*
X18682083Y-7972602D01*
X18682083Y-7972602D01*
X18695768Y-7968450D01*
X18704301Y-7967610D01*
X18706434Y-7967400D01*
X18713566Y-7967400D01*
X18715699Y-7967610D01*
X18715699Y-7967610D01*
G37*
G36*
X17315699Y-7957610D02*
X17324232Y-7958450D01*
X17337917Y-7962602D01*
X17337917Y-7962602D01*
X17337918Y-7962602D01*
X17350530Y-7969343D01*
X17361584Y-7978416D01*
X17370657Y-7989470D01*
X17377398Y-8002082D01*
X17377398Y-8002083D01*
X17377398Y-8002083D01*
X17381550Y-8015768D01*
X17382951Y-8030000D01*
X17381550Y-8044232D01*
X17377398Y-8057917D01*
X17377398Y-8057918D01*
X17370657Y-8070530D01*
X17361584Y-8081584D01*
X17350530Y-8090657D01*
X17337918Y-8097398D01*
X17337917Y-8097398D01*
X17337917Y-8097398D01*
X17324232Y-8101549D01*
X17315699Y-8102390D01*
X17313566Y-8102600D01*
X17306434Y-8102600D01*
X17304301Y-8102390D01*
X17295768Y-8101549D01*
X17282083Y-8097398D01*
X17282083Y-8097398D01*
X17282082Y-8097398D01*
X17269470Y-8090657D01*
X17258416Y-8081584D01*
X17249343Y-8070530D01*
X17242602Y-8057918D01*
X17242602Y-8057917D01*
X17238451Y-8044232D01*
X17237049Y-8030000D01*
X17238451Y-8015768D01*
X17242602Y-8002083D01*
X17242602Y-8002083D01*
X17242602Y-8002082D01*
X17249343Y-7989470D01*
X17258416Y-7978416D01*
X17269470Y-7969343D01*
X17282082Y-7962602D01*
X17282083Y-7962602D01*
X17282083Y-7962602D01*
X17295768Y-7958450D01*
X17304301Y-7957610D01*
X17306434Y-7957400D01*
X17313566Y-7957400D01*
X17315699Y-7957610D01*
X17315699Y-7957610D01*
G37*
G36*
X18715699Y-7767610D02*
X18724232Y-7768450D01*
X18737917Y-7772602D01*
X18737917Y-7772602D01*
X18737918Y-7772602D01*
X18750530Y-7779343D01*
X18761584Y-7788416D01*
X18770657Y-7799470D01*
X18777398Y-7812082D01*
X18777398Y-7812083D01*
X18777398Y-7812083D01*
X18781550Y-7825768D01*
X18782951Y-7840000D01*
X18781550Y-7854232D01*
X18777398Y-7867917D01*
X18777398Y-7867918D01*
X18770657Y-7880530D01*
X18761584Y-7891584D01*
X18750530Y-7900657D01*
X18737918Y-7907398D01*
X18737917Y-7907398D01*
X18737917Y-7907398D01*
X18724232Y-7911549D01*
X18715699Y-7912390D01*
X18713566Y-7912600D01*
X18706434Y-7912600D01*
X18704301Y-7912390D01*
X18695768Y-7911549D01*
X18682083Y-7907398D01*
X18682083Y-7907398D01*
X18682082Y-7907398D01*
X18669470Y-7900657D01*
X18658416Y-7891584D01*
X18649343Y-7880530D01*
X18642602Y-7867918D01*
X18642602Y-7867917D01*
X18638451Y-7854232D01*
X18637049Y-7840000D01*
X18638451Y-7825768D01*
X18642602Y-7812083D01*
X18642602Y-7812083D01*
X18642602Y-7812082D01*
X18649343Y-7799470D01*
X18658416Y-7788416D01*
X18669470Y-7779343D01*
X18682082Y-7772602D01*
X18682083Y-7772602D01*
X18682083Y-7772602D01*
X18695768Y-7768450D01*
X18704301Y-7767610D01*
X18706434Y-7767400D01*
X18713566Y-7767400D01*
X18715699Y-7767610D01*
X18715699Y-7767610D01*
G37*
G36*
X17315699Y-7757610D02*
X17324232Y-7758450D01*
X17337917Y-7762602D01*
X17337917Y-7762602D01*
X17337918Y-7762602D01*
X17350530Y-7769343D01*
X17361584Y-7778416D01*
X17370657Y-7789470D01*
X17377398Y-7802082D01*
X17377398Y-7802083D01*
X17377398Y-7802083D01*
X17381550Y-7815768D01*
X17382951Y-7830000D01*
X17381550Y-7844232D01*
X17377398Y-7857917D01*
X17377398Y-7857918D01*
X17370657Y-7870530D01*
X17361584Y-7881584D01*
X17350530Y-7890657D01*
X17337918Y-7897398D01*
X17337917Y-7897398D01*
X17337917Y-7897398D01*
X17324232Y-7901549D01*
X17315699Y-7902390D01*
X17313566Y-7902600D01*
X17306434Y-7902600D01*
X17304301Y-7902390D01*
X17295768Y-7901549D01*
X17282083Y-7897398D01*
X17282083Y-7897398D01*
X17282082Y-7897398D01*
X17269470Y-7890657D01*
X17258416Y-7881584D01*
X17249343Y-7870530D01*
X17242602Y-7857918D01*
X17242602Y-7857917D01*
X17238451Y-7844232D01*
X17237049Y-7830000D01*
X17238451Y-7815768D01*
X17242602Y-7802083D01*
X17242602Y-7802083D01*
X17242602Y-7802082D01*
X17249343Y-7789470D01*
X17258416Y-7778416D01*
X17269470Y-7769343D01*
X17282082Y-7762602D01*
X17282083Y-7762602D01*
X17282083Y-7762602D01*
X17295768Y-7758450D01*
X17304301Y-7757610D01*
X17306434Y-7757400D01*
X17313566Y-7757400D01*
X17315699Y-7757610D01*
X17315699Y-7757610D01*
G37*
G36*
X18782600Y-7712600D02*
X18637400Y-7712600D01*
X18637400Y-7567400D01*
X18782600Y-7567400D01*
X18782600Y-7712600D01*
X18782600Y-7712600D01*
G37*
G36*
X17315699Y-7557610D02*
X17324232Y-7558450D01*
X17337917Y-7562602D01*
X17337917Y-7562602D01*
X17337918Y-7562602D01*
X17350530Y-7569343D01*
X17361584Y-7578416D01*
X17370657Y-7589470D01*
X17377398Y-7602082D01*
X17377398Y-7602083D01*
X17377398Y-7602083D01*
X17381550Y-7615768D01*
X17382951Y-7630000D01*
X17381550Y-7644232D01*
X17377398Y-7657917D01*
X17377398Y-7657918D01*
X17370657Y-7670530D01*
X17361584Y-7681584D01*
X17350530Y-7690657D01*
X17337918Y-7697398D01*
X17337917Y-7697398D01*
X17337917Y-7697398D01*
X17324232Y-7701549D01*
X17315699Y-7702390D01*
X17313566Y-7702600D01*
X17306434Y-7702600D01*
X17304301Y-7702390D01*
X17295768Y-7701549D01*
X17282083Y-7697398D01*
X17282083Y-7697398D01*
X17282082Y-7697398D01*
X17269470Y-7690657D01*
X17258416Y-7681584D01*
X17249343Y-7670530D01*
X17242602Y-7657918D01*
X17242602Y-7657917D01*
X17238451Y-7644232D01*
X17237049Y-7630000D01*
X17238451Y-7615768D01*
X17242602Y-7602083D01*
X17242602Y-7602083D01*
X17242602Y-7602082D01*
X17249343Y-7589470D01*
X17258416Y-7578416D01*
X17269470Y-7569343D01*
X17282082Y-7562602D01*
X17282083Y-7562602D01*
X17282083Y-7562602D01*
X17295768Y-7558450D01*
X17304301Y-7557610D01*
X17306434Y-7557400D01*
X17313566Y-7557400D01*
X17315699Y-7557610D01*
X17315699Y-7557610D01*
G37*
G36*
X17232094Y-6394574D02*
X17247126Y-6400801D01*
X17260655Y-6409840D01*
X17272160Y-6421345D01*
X17281199Y-6434874D01*
X17287426Y-6449906D01*
X17290600Y-6465865D01*
X17290600Y-6482135D01*
X17287426Y-6498093D01*
X17281199Y-6513126D01*
X17272160Y-6526654D01*
X17260655Y-6538160D01*
X17247126Y-6547199D01*
X17232094Y-6553426D01*
X17216135Y-6556600D01*
X17199865Y-6556600D01*
X17183907Y-6553426D01*
X17168874Y-6547199D01*
X17155346Y-6538160D01*
X17143840Y-6526654D01*
X17134801Y-6513126D01*
X17128574Y-6498093D01*
X17125400Y-6482135D01*
X17125400Y-6465865D01*
X17128574Y-6449906D01*
X17134801Y-6434874D01*
X17143840Y-6421345D01*
X17155346Y-6409840D01*
X17168874Y-6400801D01*
X17183907Y-6394574D01*
X17199865Y-6391400D01*
X17216135Y-6391400D01*
X17232094Y-6394574D01*
X17232094Y-6394574D01*
G37*
G36*
X18003094Y-6393574D02*
X18018126Y-6399801D01*
X18031655Y-6408840D01*
X18043160Y-6420345D01*
X18052199Y-6433874D01*
X18058426Y-6448906D01*
X18061600Y-6464865D01*
X18061600Y-6481135D01*
X18058426Y-6497093D01*
X18052199Y-6512126D01*
X18043160Y-6525654D01*
X18031655Y-6537160D01*
X18018126Y-6546199D01*
X18003094Y-6552426D01*
X17987135Y-6555600D01*
X17970865Y-6555600D01*
X17954907Y-6552426D01*
X17939874Y-6546199D01*
X17926346Y-6537160D01*
X17914840Y-6525654D01*
X17905801Y-6512126D01*
X17899574Y-6497093D01*
X17896400Y-6481135D01*
X17896400Y-6464865D01*
X17899574Y-6448906D01*
X17905801Y-6433874D01*
X17914840Y-6420345D01*
X17926346Y-6408840D01*
X17939874Y-6399801D01*
X17954907Y-6393574D01*
X17970865Y-6390400D01*
X17987135Y-6390400D01*
X18003094Y-6393574D01*
X18003094Y-6393574D01*
G37*
G36*
X18501094Y-6392574D02*
X18516126Y-6398801D01*
X18529655Y-6407840D01*
X18541160Y-6419345D01*
X18550199Y-6432874D01*
X18556426Y-6447906D01*
X18559600Y-6463865D01*
X18559600Y-6480135D01*
X18556426Y-6496093D01*
X18550199Y-6511126D01*
X18541160Y-6524654D01*
X18529655Y-6536160D01*
X18516126Y-6545199D01*
X18501094Y-6551426D01*
X18485135Y-6554600D01*
X18468865Y-6554600D01*
X18452907Y-6551426D01*
X18437874Y-6545199D01*
X18424346Y-6536160D01*
X18412840Y-6524654D01*
X18403801Y-6511126D01*
X18397574Y-6496093D01*
X18394400Y-6480135D01*
X18394400Y-6463865D01*
X18397574Y-6447906D01*
X18403801Y-6432874D01*
X18412840Y-6419345D01*
X18424346Y-6407840D01*
X18437874Y-6398801D01*
X18452907Y-6392574D01*
X18468865Y-6389400D01*
X18485135Y-6389400D01*
X18501094Y-6392574D01*
X18501094Y-6392574D01*
G37*
G36*
X17748094Y-6392574D02*
X17763126Y-6398801D01*
X17776655Y-6407840D01*
X17788160Y-6419345D01*
X17797199Y-6432874D01*
X17803426Y-6447906D01*
X17806600Y-6463865D01*
X17806600Y-6480135D01*
X17803426Y-6496093D01*
X17797199Y-6511126D01*
X17788160Y-6524654D01*
X17776655Y-6536160D01*
X17763126Y-6545199D01*
X17748094Y-6551426D01*
X17732135Y-6554600D01*
X17715865Y-6554600D01*
X17699907Y-6551426D01*
X17684874Y-6545199D01*
X17671346Y-6536160D01*
X17659840Y-6524654D01*
X17650801Y-6511126D01*
X17644574Y-6496093D01*
X17641400Y-6480135D01*
X17641400Y-6463865D01*
X17644574Y-6447906D01*
X17650801Y-6432874D01*
X17659840Y-6419345D01*
X17671346Y-6407840D01*
X17684874Y-6398801D01*
X17699907Y-6392574D01*
X17715865Y-6389400D01*
X17732135Y-6389400D01*
X17748094Y-6392574D01*
X17748094Y-6392574D01*
G37*
G36*
X18251094Y-6391574D02*
X18266126Y-6397801D01*
X18279655Y-6406840D01*
X18291160Y-6418345D01*
X18300199Y-6431874D01*
X18306426Y-6446906D01*
X18309600Y-6462865D01*
X18309600Y-6479135D01*
X18306426Y-6495093D01*
X18300199Y-6510126D01*
X18291160Y-6523654D01*
X18279655Y-6535160D01*
X18266126Y-6544199D01*
X18251094Y-6550426D01*
X18235135Y-6553600D01*
X18218865Y-6553600D01*
X18202907Y-6550426D01*
X18187874Y-6544199D01*
X18174346Y-6535160D01*
X18162840Y-6523654D01*
X18153801Y-6510126D01*
X18147574Y-6495093D01*
X18144400Y-6479135D01*
X18144400Y-6462865D01*
X18147574Y-6446906D01*
X18153801Y-6431874D01*
X18162840Y-6418345D01*
X18174346Y-6406840D01*
X18187874Y-6397801D01*
X18202907Y-6391574D01*
X18218865Y-6388400D01*
X18235135Y-6388400D01*
X18251094Y-6391574D01*
X18251094Y-6391574D01*
G37*
G36*
X17485094Y-6391574D02*
X17500126Y-6397801D01*
X17513655Y-6406840D01*
X17525160Y-6418345D01*
X17534199Y-6431874D01*
X17540426Y-6446906D01*
X17543600Y-6462865D01*
X17543600Y-6479135D01*
X17540426Y-6495093D01*
X17534199Y-6510126D01*
X17525160Y-6523654D01*
X17513655Y-6535160D01*
X17500126Y-6544199D01*
X17485094Y-6550426D01*
X17469135Y-6553600D01*
X17452865Y-6553600D01*
X17436907Y-6550426D01*
X17421874Y-6544199D01*
X17408346Y-6535160D01*
X17396840Y-6523654D01*
X17387801Y-6510126D01*
X17381574Y-6495093D01*
X17378400Y-6479135D01*
X17378400Y-6462865D01*
X17381574Y-6446906D01*
X17387801Y-6431874D01*
X17396840Y-6418345D01*
X17408346Y-6406840D01*
X17421874Y-6397801D01*
X17436907Y-6391574D01*
X17452865Y-6388400D01*
X17469135Y-6388400D01*
X17485094Y-6391574D01*
X17485094Y-6391574D01*
G37*
G36*
X20690364Y-6025826D02*
X20694114Y-6026964D01*
X20697570Y-6028811D01*
X20701076Y-6031689D01*
X20753311Y-6083924D01*
X20756189Y-6087430D01*
X20758036Y-6090886D01*
X20759174Y-6094636D01*
X20759558Y-6098535D01*
X20759174Y-6102435D01*
X20758036Y-6106185D01*
X20756189Y-6109641D01*
X20753311Y-6113147D01*
X20708147Y-6158311D01*
X20704641Y-6161189D01*
X20701185Y-6163036D01*
X20697435Y-6164174D01*
X20693536Y-6164558D01*
X20689636Y-6164174D01*
X20685886Y-6163036D01*
X20682430Y-6161189D01*
X20678924Y-6158311D01*
X20626689Y-6106076D01*
X20623811Y-6102570D01*
X20621964Y-6099114D01*
X20620826Y-6095364D01*
X20620442Y-6091464D01*
X20620826Y-6087565D01*
X20621964Y-6083815D01*
X20623811Y-6080359D01*
X20626689Y-6076853D01*
X20671853Y-6031689D01*
X20675359Y-6028811D01*
X20678815Y-6026964D01*
X20682565Y-6025826D01*
X20686465Y-6025442D01*
X20690364Y-6025826D01*
X20690364Y-6025826D01*
G37*
G36*
X14674492Y-6010000D02*
X14540000Y-6144492D01*
X14405508Y-6010000D01*
X14540000Y-5875508D01*
X14674492Y-6010000D01*
X14674492Y-6010000D01*
G37*
G36*
X21492345Y-5908160D02*
X21509652Y-5915328D01*
X21525228Y-5925736D01*
X21538474Y-5938982D01*
X21548882Y-5954558D01*
X21556051Y-5971865D01*
X21559705Y-5990238D01*
X21559705Y-6008972D01*
X21556051Y-6027345D01*
X21548882Y-6044652D01*
X21538474Y-6060228D01*
X21525228Y-6073474D01*
X21509652Y-6083882D01*
X21492345Y-6091050D01*
X21473972Y-6094705D01*
X21455238Y-6094705D01*
X21436866Y-6091050D01*
X21419559Y-6083882D01*
X21403982Y-6073474D01*
X21390736Y-6060228D01*
X21380329Y-6044652D01*
X21373160Y-6027345D01*
X21369505Y-6008972D01*
X21369505Y-5990238D01*
X21373160Y-5971865D01*
X21380329Y-5954558D01*
X21390736Y-5938982D01*
X21403982Y-5925736D01*
X21419559Y-5915328D01*
X21436866Y-5908160D01*
X21455238Y-5904505D01*
X21473972Y-5904505D01*
X21492345Y-5908160D01*
X21492345Y-5908160D01*
G37*
G36*
X20566621Y-5902083D02*
X20570370Y-5903220D01*
X20573827Y-5905068D01*
X20577333Y-5907945D01*
X20629568Y-5960180D01*
X20632445Y-5963686D01*
X20634293Y-5967143D01*
X20635430Y-5970892D01*
X20635814Y-5974792D01*
X20635430Y-5978692D01*
X20634293Y-5982441D01*
X20632445Y-5985898D01*
X20629568Y-5989404D01*
X20584404Y-6034568D01*
X20580898Y-6037445D01*
X20577441Y-6039293D01*
X20573692Y-6040430D01*
X20569792Y-6040814D01*
X20565892Y-6040430D01*
X20562143Y-6039293D01*
X20558686Y-6037445D01*
X20555180Y-6034568D01*
X20502945Y-5982333D01*
X20500068Y-5978827D01*
X20498220Y-5975370D01*
X20497083Y-5971621D01*
X20496699Y-5967721D01*
X20497083Y-5963821D01*
X20498220Y-5960072D01*
X20500068Y-5956615D01*
X20502945Y-5953109D01*
X20548109Y-5907945D01*
X20551615Y-5905068D01*
X20555072Y-5903220D01*
X20558821Y-5902083D01*
X20562721Y-5901699D01*
X20566621Y-5902083D01*
X20566621Y-5902083D01*
G37*
G36*
X21419492Y-5820000D02*
X21285000Y-5954492D01*
X21150508Y-5820000D01*
X21285000Y-5685508D01*
X21419492Y-5820000D01*
X21419492Y-5820000D01*
G37*
G36*
X14747345Y-5738949D02*
X14764652Y-5746118D01*
X14780228Y-5756526D01*
X14793474Y-5769772D01*
X14803882Y-5785348D01*
X14811050Y-5802655D01*
X14814705Y-5821028D01*
X14814705Y-5839762D01*
X14811050Y-5858134D01*
X14803882Y-5875441D01*
X14793474Y-5891018D01*
X14780228Y-5904264D01*
X14764652Y-5914671D01*
X14747345Y-5921840D01*
X14728972Y-5925495D01*
X14710238Y-5925495D01*
X14691865Y-5921840D01*
X14674558Y-5914671D01*
X14658982Y-5904264D01*
X14645736Y-5891018D01*
X14635328Y-5875441D01*
X14628160Y-5858134D01*
X14624505Y-5839762D01*
X14624505Y-5821028D01*
X14628160Y-5802655D01*
X14635328Y-5785348D01*
X14645736Y-5769772D01*
X14658982Y-5756526D01*
X14674558Y-5746118D01*
X14691865Y-5738949D01*
X14710238Y-5735295D01*
X14728972Y-5735295D01*
X14747345Y-5738949D01*
X14747345Y-5738949D01*
G37*
G36*
X16998950Y-5817844D02*
X17002699Y-5818982D01*
X17006156Y-5820829D01*
X17009185Y-5823315D01*
X17011671Y-5826344D01*
X17013518Y-5829801D01*
X17014655Y-5833550D01*
X17015100Y-5838064D01*
X17015100Y-5901936D01*
X17014655Y-5906450D01*
X17013518Y-5910199D01*
X17011671Y-5913656D01*
X17009185Y-5916685D01*
X17006156Y-5919171D01*
X17002699Y-5921018D01*
X16998950Y-5922155D01*
X16994436Y-5922600D01*
X16920564Y-5922600D01*
X16916050Y-5922155D01*
X16912301Y-5921018D01*
X16908844Y-5919171D01*
X16905815Y-5916685D01*
X16903329Y-5913656D01*
X16901482Y-5910199D01*
X16900344Y-5906450D01*
X16899900Y-5901936D01*
X16899900Y-5838064D01*
X16900344Y-5833550D01*
X16901482Y-5829801D01*
X16903329Y-5826344D01*
X16905815Y-5823315D01*
X16908844Y-5820829D01*
X16912301Y-5818982D01*
X16916050Y-5817844D01*
X16920564Y-5817400D01*
X16994436Y-5817400D01*
X16998950Y-5817844D01*
X16998950Y-5817844D01*
G37*
G36*
X16823950Y-5817844D02*
X16827699Y-5818982D01*
X16831156Y-5820829D01*
X16834185Y-5823315D01*
X16836671Y-5826344D01*
X16838518Y-5829801D01*
X16839656Y-5833550D01*
X16840100Y-5838064D01*
X16840100Y-5901936D01*
X16839656Y-5906450D01*
X16838518Y-5910199D01*
X16836671Y-5913656D01*
X16834185Y-5916685D01*
X16831156Y-5919171D01*
X16827699Y-5921018D01*
X16823950Y-5922155D01*
X16819436Y-5922600D01*
X16745564Y-5922600D01*
X16741050Y-5922155D01*
X16737301Y-5921018D01*
X16733844Y-5919171D01*
X16730815Y-5916685D01*
X16728329Y-5913656D01*
X16726482Y-5910199D01*
X16725345Y-5906450D01*
X16724900Y-5901936D01*
X16724900Y-5838064D01*
X16725345Y-5833550D01*
X16726482Y-5829801D01*
X16728329Y-5826344D01*
X16730815Y-5823315D01*
X16733844Y-5820829D01*
X16737301Y-5818982D01*
X16741050Y-5817844D01*
X16745564Y-5817400D01*
X16819436Y-5817400D01*
X16823950Y-5817844D01*
X16823950Y-5817844D01*
G37*
G36*
X20996292Y-5642200D02*
X20861800Y-5776692D01*
X20727308Y-5642200D01*
X20861800Y-5507708D01*
X20996292Y-5642200D01*
X20996292Y-5642200D01*
G37*
G36*
X15138934Y-5574560D02*
X15156241Y-5581729D01*
X15171818Y-5592136D01*
X15185064Y-5605382D01*
X15195471Y-5620958D01*
X15202640Y-5638265D01*
X15206295Y-5656638D01*
X15206295Y-5675372D01*
X15202640Y-5693745D01*
X15195471Y-5711052D01*
X15185064Y-5726628D01*
X15171818Y-5739874D01*
X15156241Y-5750282D01*
X15138934Y-5757450D01*
X15120562Y-5761105D01*
X15101828Y-5761105D01*
X15083455Y-5757450D01*
X15066148Y-5750282D01*
X15050572Y-5739874D01*
X15037326Y-5726628D01*
X15026918Y-5711052D01*
X15019749Y-5693745D01*
X15016095Y-5675372D01*
X15016095Y-5656638D01*
X15019749Y-5638265D01*
X15026918Y-5620958D01*
X15037326Y-5605382D01*
X15050572Y-5592136D01*
X15066148Y-5581729D01*
X15083455Y-5574560D01*
X15101828Y-5570905D01*
X15120562Y-5570905D01*
X15138934Y-5574560D01*
X15138934Y-5574560D01*
G37*
G36*
X15425292Y-5486400D02*
X15290800Y-5620892D01*
X15156308Y-5486400D01*
X15290800Y-5351908D01*
X15425292Y-5486400D01*
X15425292Y-5486400D01*
G37*
G36*
X21752421Y-5449802D02*
X21625000Y-5577223D01*
X21497579Y-5449802D01*
X21625000Y-5322382D01*
X21752421Y-5449802D01*
X21752421Y-5449802D01*
G37*
G36*
X20709935Y-5371150D02*
X20727242Y-5378318D01*
X20742818Y-5388726D01*
X20756064Y-5401972D01*
X20766472Y-5417548D01*
X20773640Y-5434855D01*
X20777295Y-5453228D01*
X20777295Y-5471962D01*
X20773640Y-5490335D01*
X20766472Y-5507642D01*
X20756064Y-5523218D01*
X20742818Y-5536464D01*
X20727242Y-5546872D01*
X20709935Y-5554040D01*
X20691562Y-5557695D01*
X20672828Y-5557695D01*
X20654455Y-5554040D01*
X20637148Y-5546872D01*
X20621572Y-5536464D01*
X20608326Y-5523218D01*
X20597918Y-5507642D01*
X20590750Y-5490335D01*
X20587095Y-5471962D01*
X20587095Y-5453228D01*
X20590750Y-5434855D01*
X20597918Y-5417548D01*
X20608326Y-5401972D01*
X20621572Y-5388726D01*
X20637148Y-5378318D01*
X20654455Y-5371150D01*
X20672828Y-5367495D01*
X20691562Y-5367495D01*
X20709935Y-5371150D01*
X20709935Y-5371150D01*
G37*
G36*
X14432835Y-5363126D02*
X14440032Y-5363834D01*
X14451020Y-5367168D01*
X14457016Y-5368986D01*
X14461074Y-5371156D01*
X14472668Y-5377353D01*
X14476242Y-5380286D01*
X14486388Y-5388612D01*
X14494714Y-5398758D01*
X14497647Y-5402332D01*
X14497647Y-5402332D01*
X14506014Y-5417984D01*
X14506014Y-5417984D01*
X14511166Y-5434968D01*
X14512905Y-5452631D01*
X14511166Y-5470293D01*
X14507731Y-5481616D01*
X14506014Y-5487277D01*
X14504379Y-5490335D01*
X14497647Y-5502930D01*
X14494714Y-5506504D01*
X14486388Y-5516649D01*
X14478384Y-5523218D01*
X14472668Y-5527909D01*
X14472668Y-5527909D01*
X14457016Y-5536275D01*
X14451355Y-5537992D01*
X14440032Y-5541427D01*
X14433413Y-5542079D01*
X14426795Y-5542731D01*
X14417943Y-5542731D01*
X14411325Y-5542079D01*
X14404707Y-5541427D01*
X14393384Y-5537992D01*
X14387723Y-5536275D01*
X14372070Y-5527909D01*
X14372070Y-5527909D01*
X14366355Y-5523218D01*
X14358351Y-5516649D01*
X14350024Y-5506504D01*
X14347091Y-5502930D01*
X14340359Y-5490335D01*
X14338725Y-5487277D01*
X14337008Y-5481616D01*
X14333573Y-5470293D01*
X14331833Y-5452631D01*
X14333573Y-5434968D01*
X14338725Y-5417984D01*
X14338725Y-5417984D01*
X14347091Y-5402332D01*
X14347091Y-5402332D01*
X14350024Y-5398758D01*
X14358351Y-5388612D01*
X14368496Y-5380286D01*
X14372070Y-5377353D01*
X14383665Y-5371156D01*
X14387723Y-5368986D01*
X14393718Y-5367168D01*
X14404707Y-5363834D01*
X14411903Y-5363126D01*
X14417943Y-5362531D01*
X14426795Y-5362531D01*
X14432835Y-5363126D01*
X14432835Y-5363126D01*
G37*
G36*
X17088450Y-5266845D02*
X17092199Y-5267982D01*
X17095656Y-5269829D01*
X17098685Y-5272315D01*
X17101171Y-5275344D01*
X17103018Y-5278801D01*
X17104156Y-5282550D01*
X17104600Y-5287064D01*
X17104600Y-5350936D01*
X17104156Y-5355450D01*
X17103018Y-5359199D01*
X17101171Y-5362656D01*
X17098685Y-5365685D01*
X17095656Y-5368171D01*
X17092199Y-5370018D01*
X17088450Y-5371156D01*
X17083936Y-5371600D01*
X17010064Y-5371600D01*
X17005550Y-5371156D01*
X17001801Y-5370018D01*
X16998344Y-5368171D01*
X16995315Y-5365685D01*
X16992830Y-5362656D01*
X16990982Y-5359199D01*
X16989845Y-5355450D01*
X16989400Y-5350936D01*
X16989400Y-5287064D01*
X16989845Y-5282550D01*
X16990982Y-5278801D01*
X16992830Y-5275344D01*
X16995315Y-5272315D01*
X16998344Y-5269829D01*
X17001801Y-5267982D01*
X17005550Y-5266845D01*
X17010064Y-5266400D01*
X17083936Y-5266400D01*
X17088450Y-5266845D01*
X17088450Y-5266845D01*
G37*
G36*
X16913450Y-5266845D02*
X16917199Y-5267982D01*
X16920656Y-5269829D01*
X16923685Y-5272315D01*
X16926171Y-5275344D01*
X16928018Y-5278801D01*
X16929156Y-5282550D01*
X16929600Y-5287064D01*
X16929600Y-5350936D01*
X16929156Y-5355450D01*
X16928018Y-5359199D01*
X16926171Y-5362656D01*
X16923685Y-5365685D01*
X16920656Y-5368171D01*
X16917199Y-5370018D01*
X16913450Y-5371156D01*
X16908936Y-5371600D01*
X16835064Y-5371600D01*
X16830550Y-5371156D01*
X16826801Y-5370018D01*
X16823344Y-5368171D01*
X16820315Y-5365685D01*
X16817830Y-5362656D01*
X16815982Y-5359199D01*
X16814845Y-5355450D01*
X16814400Y-5350936D01*
X16814400Y-5287064D01*
X16814845Y-5282550D01*
X16815982Y-5278801D01*
X16817830Y-5275344D01*
X16820315Y-5272315D01*
X16823344Y-5269829D01*
X16826801Y-5267982D01*
X16830550Y-5266845D01*
X16835064Y-5266400D01*
X16908936Y-5266400D01*
X16913450Y-5266845D01*
X16913450Y-5266845D01*
G37*
G36*
X14612440Y-5183521D02*
X14619637Y-5184229D01*
X14630960Y-5187664D01*
X14636621Y-5189381D01*
X14646982Y-5194919D01*
X14652273Y-5197748D01*
X14655847Y-5200681D01*
X14665993Y-5209007D01*
X14674319Y-5219153D01*
X14677252Y-5222727D01*
X14677252Y-5222727D01*
X14685619Y-5238379D01*
X14687336Y-5244040D01*
X14690771Y-5255363D01*
X14692510Y-5273026D01*
X14690771Y-5290688D01*
X14687336Y-5302011D01*
X14685619Y-5307672D01*
X14678764Y-5320496D01*
X14677252Y-5323325D01*
X14676119Y-5324705D01*
X14665993Y-5337044D01*
X14655933Y-5345300D01*
X14652273Y-5348303D01*
X14652273Y-5348304D01*
X14636621Y-5356670D01*
X14630960Y-5358387D01*
X14619637Y-5361822D01*
X14613019Y-5362474D01*
X14606400Y-5363126D01*
X14597548Y-5363126D01*
X14590930Y-5362474D01*
X14584312Y-5361822D01*
X14572989Y-5358387D01*
X14567328Y-5356670D01*
X14551675Y-5348304D01*
X14551675Y-5348303D01*
X14548016Y-5345300D01*
X14537956Y-5337044D01*
X14527829Y-5324705D01*
X14526697Y-5323325D01*
X14525185Y-5320496D01*
X14518330Y-5307672D01*
X14516613Y-5302011D01*
X14513178Y-5290688D01*
X14511438Y-5273026D01*
X14513178Y-5255363D01*
X14516613Y-5244040D01*
X14518330Y-5238379D01*
X14526696Y-5222727D01*
X14526697Y-5222727D01*
X14529630Y-5219153D01*
X14537956Y-5209007D01*
X14548101Y-5200681D01*
X14551675Y-5197748D01*
X14556967Y-5194919D01*
X14567328Y-5189381D01*
X14572989Y-5187664D01*
X14584312Y-5184229D01*
X14591508Y-5183521D01*
X14597548Y-5182926D01*
X14606400Y-5182926D01*
X14612440Y-5183521D01*
X14612440Y-5183521D01*
G37*
G36*
X21455861Y-5180692D02*
X21463058Y-5181401D01*
X21473467Y-5184558D01*
X21480042Y-5186553D01*
X21493904Y-5193962D01*
X21495694Y-5194919D01*
X21499140Y-5197748D01*
X21509414Y-5206179D01*
X21517740Y-5216324D01*
X21520673Y-5219898D01*
X21520673Y-5219898D01*
X21529039Y-5235551D01*
X21530077Y-5238972D01*
X21534191Y-5252535D01*
X21535931Y-5270197D01*
X21534191Y-5287860D01*
X21530757Y-5299183D01*
X21529039Y-5304844D01*
X21524208Y-5313882D01*
X21520673Y-5320496D01*
X21519125Y-5322382D01*
X21509414Y-5334216D01*
X21499268Y-5342542D01*
X21495694Y-5345475D01*
X21495694Y-5345475D01*
X21480042Y-5353842D01*
X21475021Y-5355365D01*
X21463058Y-5358994D01*
X21456439Y-5359645D01*
X21449821Y-5360297D01*
X21440969Y-5360297D01*
X21434351Y-5359645D01*
X21427732Y-5358994D01*
X21415769Y-5355365D01*
X21410748Y-5353842D01*
X21395096Y-5345475D01*
X21395096Y-5345475D01*
X21391522Y-5342542D01*
X21381376Y-5334216D01*
X21371664Y-5322382D01*
X21370117Y-5320496D01*
X21366581Y-5313882D01*
X21361751Y-5304844D01*
X21360033Y-5299183D01*
X21356599Y-5287860D01*
X21354859Y-5270197D01*
X21356599Y-5252535D01*
X21360713Y-5238972D01*
X21361751Y-5235551D01*
X21370117Y-5219898D01*
X21370117Y-5219898D01*
X21373050Y-5216324D01*
X21381376Y-5206179D01*
X21391650Y-5197748D01*
X21395096Y-5194919D01*
X21396886Y-5193962D01*
X21410748Y-5186553D01*
X21417323Y-5184558D01*
X21427732Y-5181401D01*
X21434929Y-5180692D01*
X21440969Y-5180097D01*
X21449821Y-5180097D01*
X21455861Y-5180692D01*
X21455861Y-5180692D01*
G37*
G36*
X15623134Y-5138160D02*
X15640441Y-5145329D01*
X15656018Y-5155736D01*
X15669264Y-5168982D01*
X15679671Y-5184559D01*
X15686840Y-5201866D01*
X15690495Y-5220238D01*
X15690495Y-5238972D01*
X15686840Y-5257345D01*
X15679671Y-5274652D01*
X15669264Y-5290228D01*
X15656018Y-5303474D01*
X15640441Y-5313882D01*
X15623134Y-5321051D01*
X15604762Y-5324705D01*
X15586028Y-5324705D01*
X15567655Y-5321051D01*
X15550348Y-5313882D01*
X15534772Y-5303474D01*
X15521526Y-5290228D01*
X15511118Y-5274652D01*
X15503949Y-5257345D01*
X15500295Y-5238972D01*
X15500295Y-5220238D01*
X15503949Y-5201866D01*
X15511118Y-5184559D01*
X15521526Y-5168982D01*
X15534772Y-5155736D01*
X15550348Y-5145329D01*
X15567655Y-5138160D01*
X15586028Y-5134505D01*
X15604762Y-5134505D01*
X15623134Y-5138160D01*
X15623134Y-5138160D01*
G37*
G36*
X20544492Y-5190000D02*
X20410000Y-5324492D01*
X20275508Y-5190000D01*
X20410000Y-5055508D01*
X20544492Y-5190000D01*
X20544492Y-5190000D01*
G37*
G36*
X15909492Y-5050000D02*
X15775000Y-5184492D01*
X15640508Y-5050000D01*
X15775000Y-4915508D01*
X15909492Y-5050000D01*
X15909492Y-5050000D01*
G37*
G36*
X14792045Y-5003915D02*
X14799242Y-5004624D01*
X14808967Y-5007574D01*
X14816226Y-5009776D01*
X14826587Y-5015314D01*
X14831879Y-5018143D01*
X14834979Y-5020687D01*
X14845598Y-5029402D01*
X14852983Y-5038401D01*
X14856857Y-5043121D01*
X14856857Y-5043122D01*
X14865224Y-5058774D01*
X14865567Y-5059907D01*
X14870376Y-5075758D01*
X14872115Y-5093421D01*
X14870376Y-5111083D01*
X14868922Y-5115876D01*
X14865224Y-5128067D01*
X14861168Y-5135655D01*
X14856857Y-5143720D01*
X14855537Y-5145329D01*
X14845598Y-5157439D01*
X14836872Y-5164600D01*
X14831879Y-5168698D01*
X14831347Y-5168982D01*
X14816226Y-5177065D01*
X14810565Y-5178782D01*
X14799242Y-5182217D01*
X14792624Y-5182869D01*
X14786005Y-5183521D01*
X14777153Y-5183521D01*
X14770535Y-5182869D01*
X14763917Y-5182217D01*
X14752594Y-5178782D01*
X14746933Y-5177065D01*
X14731812Y-5168982D01*
X14731280Y-5168698D01*
X14726287Y-5164600D01*
X14717561Y-5157439D01*
X14707622Y-5145329D01*
X14706302Y-5143720D01*
X14701991Y-5135655D01*
X14697935Y-5128067D01*
X14694237Y-5115876D01*
X14692783Y-5111083D01*
X14691044Y-5093421D01*
X14692783Y-5075758D01*
X14697592Y-5059907D01*
X14697935Y-5058774D01*
X14706302Y-5043122D01*
X14706302Y-5043121D01*
X14710176Y-5038401D01*
X14717561Y-5029402D01*
X14728180Y-5020687D01*
X14731280Y-5018143D01*
X14736572Y-5015314D01*
X14746933Y-5009776D01*
X14754192Y-5007574D01*
X14763917Y-5004624D01*
X14771113Y-5003915D01*
X14777153Y-5003321D01*
X14786005Y-5003321D01*
X14792045Y-5003915D01*
X14792045Y-5003915D01*
G37*
G36*
X21276255Y-5001087D02*
X21283453Y-5001796D01*
X21292612Y-5004574D01*
X21300437Y-5006948D01*
X21305975Y-5009908D01*
X21316089Y-5015314D01*
X21317912Y-5016810D01*
X21329808Y-5026574D01*
X21337975Y-5036524D01*
X21341068Y-5040293D01*
X21341068Y-5040293D01*
X21349434Y-5055945D01*
X21349434Y-5055946D01*
X21354586Y-5072929D01*
X21356326Y-5090592D01*
X21354586Y-5108255D01*
X21353483Y-5111891D01*
X21349434Y-5125239D01*
X21344481Y-5134505D01*
X21341068Y-5140891D01*
X21338747Y-5143719D01*
X21329808Y-5154611D01*
X21320286Y-5162426D01*
X21316089Y-5165870D01*
X21316089Y-5165870D01*
X21300437Y-5174236D01*
X21294775Y-5175954D01*
X21283453Y-5179388D01*
X21276834Y-5180040D01*
X21270216Y-5180692D01*
X21261364Y-5180692D01*
X21254746Y-5180040D01*
X21248127Y-5179388D01*
X21236805Y-5175954D01*
X21231143Y-5174236D01*
X21215491Y-5165870D01*
X21215491Y-5165870D01*
X21211294Y-5162426D01*
X21201771Y-5154611D01*
X21192833Y-5143719D01*
X21190512Y-5140891D01*
X21187099Y-5134505D01*
X21182146Y-5125239D01*
X21178096Y-5111891D01*
X21176994Y-5108255D01*
X21175254Y-5090592D01*
X21176994Y-5072929D01*
X21182146Y-5055946D01*
X21182146Y-5055945D01*
X21190512Y-5040293D01*
X21190512Y-5040293D01*
X21193605Y-5036524D01*
X21201771Y-5026574D01*
X21213668Y-5016810D01*
X21215491Y-5015314D01*
X21225605Y-5009908D01*
X21231143Y-5006948D01*
X21238968Y-5004574D01*
X21248127Y-5001796D01*
X21255325Y-5001087D01*
X21261364Y-5000492D01*
X21270216Y-5000492D01*
X21276255Y-5001087D01*
X21276255Y-5001087D01*
G37*
G36*
X18506094Y-5007574D02*
X18521126Y-5013801D01*
X18534655Y-5022840D01*
X18546160Y-5034346D01*
X18555199Y-5047874D01*
X18561426Y-5062907D01*
X18564600Y-5078865D01*
X18564600Y-5095135D01*
X18561426Y-5111094D01*
X18555199Y-5126126D01*
X18546160Y-5139655D01*
X18534655Y-5151160D01*
X18521126Y-5160199D01*
X18506094Y-5166426D01*
X18490135Y-5169600D01*
X18473865Y-5169600D01*
X18457907Y-5166426D01*
X18442874Y-5160199D01*
X18429346Y-5151160D01*
X18417840Y-5139655D01*
X18408801Y-5126126D01*
X18402574Y-5111094D01*
X18399400Y-5095135D01*
X18399400Y-5078865D01*
X18402574Y-5062907D01*
X18408801Y-5047874D01*
X18417840Y-5034346D01*
X18429346Y-5022840D01*
X18442874Y-5013801D01*
X18457907Y-5007574D01*
X18473865Y-5004400D01*
X18490135Y-5004400D01*
X18506094Y-5007574D01*
X18506094Y-5007574D01*
G37*
G36*
X17752094Y-5004574D02*
X17767126Y-5010801D01*
X17780655Y-5019840D01*
X17792160Y-5031346D01*
X17801199Y-5044874D01*
X17807426Y-5059907D01*
X17810600Y-5075865D01*
X17810600Y-5092135D01*
X17807426Y-5108094D01*
X17801199Y-5123126D01*
X17792160Y-5136655D01*
X17780655Y-5148160D01*
X17767126Y-5157199D01*
X17752094Y-5163426D01*
X17736135Y-5166600D01*
X17719865Y-5166600D01*
X17703907Y-5163426D01*
X17688874Y-5157199D01*
X17675346Y-5148160D01*
X17663840Y-5136655D01*
X17654801Y-5123126D01*
X17648574Y-5108094D01*
X17645400Y-5092135D01*
X17645400Y-5075865D01*
X17648574Y-5059907D01*
X17654801Y-5044874D01*
X17663840Y-5031346D01*
X17675346Y-5019840D01*
X17688874Y-5010801D01*
X17703907Y-5004574D01*
X17719865Y-5001400D01*
X17736135Y-5001400D01*
X17752094Y-5004574D01*
X17752094Y-5004574D01*
G37*
G36*
X17497094Y-5003574D02*
X17512126Y-5009801D01*
X17525655Y-5018840D01*
X17537160Y-5030346D01*
X17546199Y-5043874D01*
X17552426Y-5058907D01*
X17555600Y-5074865D01*
X17555600Y-5091135D01*
X17552426Y-5107094D01*
X17546199Y-5122126D01*
X17537160Y-5135655D01*
X17525655Y-5147160D01*
X17512126Y-5156199D01*
X17497094Y-5162426D01*
X17481135Y-5165600D01*
X17464865Y-5165600D01*
X17448907Y-5162426D01*
X17433874Y-5156199D01*
X17420346Y-5147160D01*
X17408840Y-5135655D01*
X17399801Y-5122126D01*
X17393574Y-5107094D01*
X17390400Y-5091135D01*
X17390400Y-5074865D01*
X17393574Y-5058907D01*
X17399801Y-5043874D01*
X17408840Y-5030346D01*
X17420346Y-5018840D01*
X17433874Y-5009801D01*
X17448907Y-5003574D01*
X17464865Y-5000400D01*
X17481135Y-5000400D01*
X17497094Y-5003574D01*
X17497094Y-5003574D01*
G37*
G36*
X18250094Y-5003574D02*
X18265126Y-5009801D01*
X18278655Y-5018840D01*
X18290160Y-5030346D01*
X18299199Y-5043874D01*
X18305426Y-5058907D01*
X18308600Y-5074865D01*
X18308600Y-5091135D01*
X18305426Y-5107094D01*
X18299199Y-5122126D01*
X18290160Y-5135655D01*
X18278655Y-5147160D01*
X18265126Y-5156199D01*
X18250094Y-5162426D01*
X18234135Y-5165600D01*
X18217865Y-5165600D01*
X18201907Y-5162426D01*
X18186874Y-5156199D01*
X18173346Y-5147160D01*
X18161840Y-5135655D01*
X18152801Y-5122126D01*
X18146574Y-5107094D01*
X18143400Y-5091135D01*
X18143400Y-5074865D01*
X18146574Y-5058907D01*
X18152801Y-5043874D01*
X18161840Y-5030346D01*
X18173346Y-5018840D01*
X18186874Y-5009801D01*
X18201907Y-5003574D01*
X18217865Y-5000400D01*
X18234135Y-5000400D01*
X18250094Y-5003574D01*
X18250094Y-5003574D01*
G37*
G36*
X18000094Y-5002574D02*
X18015126Y-5008801D01*
X18028655Y-5017840D01*
X18040160Y-5029346D01*
X18049199Y-5042874D01*
X18055426Y-5057907D01*
X18058600Y-5073865D01*
X18058600Y-5090135D01*
X18055426Y-5106094D01*
X18049199Y-5121126D01*
X18040160Y-5134655D01*
X18028655Y-5146160D01*
X18015126Y-5155199D01*
X18000094Y-5161426D01*
X17984135Y-5164600D01*
X17967865Y-5164600D01*
X17951907Y-5161426D01*
X17936874Y-5155199D01*
X17923346Y-5146160D01*
X17911840Y-5134655D01*
X17902801Y-5121126D01*
X17896574Y-5106094D01*
X17893400Y-5090135D01*
X17893400Y-5073865D01*
X17896574Y-5057907D01*
X17902801Y-5042874D01*
X17911840Y-5029346D01*
X17923346Y-5017840D01*
X17936874Y-5008801D01*
X17951907Y-5002574D01*
X17967865Y-4999400D01*
X17984135Y-4999400D01*
X18000094Y-5002574D01*
X18000094Y-5002574D01*
G37*
G36*
X17234094Y-5002574D02*
X17249126Y-5008801D01*
X17262655Y-5017840D01*
X17274160Y-5029346D01*
X17283199Y-5042874D01*
X17289426Y-5057907D01*
X17292600Y-5073865D01*
X17292600Y-5090135D01*
X17289426Y-5106094D01*
X17283199Y-5121126D01*
X17274160Y-5134655D01*
X17262655Y-5146160D01*
X17249126Y-5155199D01*
X17234094Y-5161426D01*
X17218135Y-5164600D01*
X17201865Y-5164600D01*
X17185907Y-5161426D01*
X17170874Y-5155199D01*
X17157346Y-5146160D01*
X17145840Y-5134655D01*
X17136801Y-5121126D01*
X17130574Y-5106094D01*
X17127400Y-5090135D01*
X17127400Y-5073865D01*
X17130574Y-5057907D01*
X17136801Y-5042874D01*
X17145840Y-5029346D01*
X17157346Y-5017840D01*
X17170874Y-5008801D01*
X17185907Y-5002574D01*
X17201865Y-4999400D01*
X17218135Y-4999400D01*
X17234094Y-5002574D01*
X17234094Y-5002574D01*
G37*
G36*
X21784108Y-5024570D02*
X21787857Y-5025707D01*
X21791314Y-5027555D01*
X21794820Y-5030432D01*
X21847055Y-5082667D01*
X21849932Y-5086173D01*
X21851780Y-5089630D01*
X21852917Y-5093379D01*
X21853301Y-5097279D01*
X21852917Y-5101179D01*
X21851780Y-5104928D01*
X21849932Y-5108385D01*
X21847055Y-5111891D01*
X21801891Y-5157055D01*
X21798385Y-5159932D01*
X21794928Y-5161780D01*
X21791179Y-5162917D01*
X21787279Y-5163301D01*
X21783379Y-5162917D01*
X21779630Y-5161780D01*
X21776173Y-5159932D01*
X21772667Y-5157055D01*
X21720432Y-5104820D01*
X21717555Y-5101314D01*
X21715707Y-5097857D01*
X21714570Y-5094108D01*
X21714186Y-5090208D01*
X21714570Y-5086308D01*
X21715707Y-5082559D01*
X21717555Y-5079102D01*
X21720432Y-5075596D01*
X21765596Y-5030432D01*
X21769102Y-5027555D01*
X21772559Y-5025707D01*
X21776308Y-5024570D01*
X21780208Y-5024186D01*
X21784108Y-5024570D01*
X21784108Y-5024570D01*
G37*
G36*
X20258135Y-4918950D02*
X20275442Y-4926118D01*
X20291018Y-4936526D01*
X20304264Y-4949772D01*
X20314672Y-4965348D01*
X20321840Y-4982655D01*
X20325495Y-5001028D01*
X20325495Y-5019762D01*
X20321840Y-5038135D01*
X20314672Y-5055442D01*
X20304264Y-5071018D01*
X20291018Y-5084264D01*
X20275442Y-5094672D01*
X20258135Y-5101840D01*
X20239762Y-5105495D01*
X20221028Y-5105495D01*
X20202655Y-5101840D01*
X20185348Y-5094672D01*
X20169772Y-5084264D01*
X20156526Y-5071018D01*
X20146118Y-5055442D01*
X20138950Y-5038135D01*
X20135295Y-5019762D01*
X20135295Y-5001028D01*
X20138950Y-4982655D01*
X20146118Y-4965348D01*
X20156526Y-4949772D01*
X20169772Y-4936526D01*
X20185348Y-4926118D01*
X20202655Y-4918950D01*
X20221028Y-4915295D01*
X20239762Y-4915295D01*
X20258135Y-4918950D01*
X20258135Y-4918950D01*
G37*
G36*
X14422236Y-4962698D02*
X14425986Y-4963836D01*
X14429442Y-4965683D01*
X14432948Y-4968560D01*
X14485183Y-5020796D01*
X14488061Y-5024302D01*
X14489908Y-5027758D01*
X14491045Y-5031507D01*
X14491429Y-5035407D01*
X14491045Y-5039307D01*
X14489908Y-5043057D01*
X14488061Y-5046513D01*
X14485183Y-5050019D01*
X14440019Y-5095183D01*
X14436513Y-5098061D01*
X14433057Y-5099908D01*
X14429307Y-5101046D01*
X14425407Y-5101430D01*
X14421507Y-5101046D01*
X14417758Y-5099908D01*
X14414302Y-5098061D01*
X14410795Y-5095183D01*
X14358560Y-5042948D01*
X14355683Y-5039442D01*
X14353835Y-5035986D01*
X14352698Y-5032236D01*
X14352314Y-5028336D01*
X14352698Y-5024436D01*
X14353835Y-5020687D01*
X14355683Y-5017231D01*
X14358560Y-5013725D01*
X14403724Y-4968560D01*
X14407231Y-4965683D01*
X14410687Y-4963836D01*
X14414436Y-4962698D01*
X14418336Y-4962314D01*
X14422236Y-4962698D01*
X14422236Y-4962698D01*
G37*
G36*
X21660364Y-4900826D02*
X21664114Y-4901964D01*
X21667570Y-4903811D01*
X21671076Y-4906689D01*
X21723311Y-4958924D01*
X21726189Y-4962430D01*
X21728036Y-4965886D01*
X21729174Y-4969636D01*
X21729558Y-4973536D01*
X21729174Y-4977435D01*
X21728036Y-4981185D01*
X21726189Y-4984641D01*
X21723311Y-4988147D01*
X21678147Y-5033311D01*
X21674641Y-5036189D01*
X21671185Y-5038036D01*
X21667435Y-5039174D01*
X21663536Y-5039558D01*
X21659636Y-5039174D01*
X21655886Y-5038036D01*
X21652430Y-5036189D01*
X21648924Y-5033311D01*
X21596689Y-4981076D01*
X21593811Y-4977570D01*
X21591964Y-4974114D01*
X21590826Y-4970364D01*
X21590442Y-4966465D01*
X21590826Y-4962565D01*
X21591964Y-4958815D01*
X21593811Y-4955359D01*
X21596689Y-4951853D01*
X21641853Y-4906689D01*
X21645359Y-4903811D01*
X21648815Y-4901964D01*
X21652565Y-4900826D01*
X21656465Y-4900442D01*
X21660364Y-4900826D01*
X21660364Y-4900826D01*
G37*
G36*
X15502236Y-4872698D02*
X15505986Y-4873836D01*
X15509442Y-4875683D01*
X15512948Y-4878560D01*
X15565183Y-4930796D01*
X15568061Y-4934302D01*
X15569908Y-4937758D01*
X15571045Y-4941507D01*
X15571429Y-4945407D01*
X15571045Y-4949307D01*
X15569908Y-4953057D01*
X15568061Y-4956513D01*
X15565183Y-4960019D01*
X15520019Y-5005183D01*
X15516513Y-5008061D01*
X15513057Y-5009908D01*
X15509307Y-5011046D01*
X15505407Y-5011430D01*
X15501507Y-5011046D01*
X15497758Y-5009908D01*
X15494302Y-5008061D01*
X15490795Y-5005183D01*
X15438560Y-4952948D01*
X15435683Y-4949442D01*
X15433835Y-4945986D01*
X15432698Y-4942236D01*
X15432314Y-4938336D01*
X15432698Y-4934436D01*
X15433835Y-4930687D01*
X15435683Y-4927231D01*
X15438560Y-4923725D01*
X15483724Y-4878560D01*
X15487231Y-4875683D01*
X15490687Y-4873836D01*
X15494436Y-4872698D01*
X15498336Y-4872314D01*
X15502236Y-4872698D01*
X15502236Y-4872698D01*
G37*
G36*
X14971650Y-4824310D02*
X14978847Y-4825019D01*
X14990170Y-4828454D01*
X14995831Y-4830171D01*
X15008572Y-4836981D01*
X15011484Y-4838538D01*
X15014604Y-4841099D01*
X15025203Y-4849797D01*
X15033529Y-4859943D01*
X15036462Y-4863516D01*
X15036462Y-4863517D01*
X15044829Y-4879169D01*
X15045853Y-4882546D01*
X15049981Y-4896153D01*
X15051720Y-4913815D01*
X15049981Y-4931478D01*
X15046717Y-4942236D01*
X15044829Y-4948462D01*
X15041367Y-4954939D01*
X15036462Y-4964115D01*
X15035008Y-4965886D01*
X15025203Y-4977834D01*
X15015057Y-4986160D01*
X15011484Y-4989093D01*
X15011483Y-4989093D01*
X14995831Y-4997460D01*
X14990170Y-4999177D01*
X14978847Y-5002612D01*
X14972229Y-5003264D01*
X14965611Y-5003915D01*
X14956759Y-5003915D01*
X14950140Y-5003264D01*
X14943522Y-5002612D01*
X14932199Y-4999177D01*
X14926538Y-4997460D01*
X14910886Y-4989093D01*
X14910885Y-4989093D01*
X14907312Y-4986160D01*
X14897166Y-4977834D01*
X14887361Y-4965886D01*
X14885907Y-4964115D01*
X14881002Y-4954939D01*
X14877540Y-4948462D01*
X14875652Y-4942236D01*
X14872388Y-4931478D01*
X14870649Y-4913815D01*
X14872388Y-4896153D01*
X14876516Y-4882546D01*
X14877540Y-4879169D01*
X14885907Y-4863517D01*
X14885907Y-4863516D01*
X14888840Y-4859943D01*
X14897166Y-4849797D01*
X14907765Y-4841099D01*
X14910885Y-4838538D01*
X14913797Y-4836981D01*
X14926538Y-4830171D01*
X14932199Y-4828454D01*
X14943522Y-4825019D01*
X14950720Y-4824310D01*
X14956759Y-4823715D01*
X14965611Y-4823715D01*
X14971650Y-4824310D01*
X14971650Y-4824310D01*
G37*
G36*
X21096651Y-4821482D02*
X21103847Y-4822191D01*
X21111979Y-4824657D01*
X21120831Y-4827343D01*
X21129036Y-4831728D01*
X21136484Y-4835709D01*
X21139930Y-4838538D01*
X21150203Y-4846968D01*
X21158529Y-4857114D01*
X21161462Y-4860688D01*
X21161463Y-4860688D01*
X21169829Y-4876340D01*
X21171159Y-4880725D01*
X21174981Y-4893324D01*
X21176721Y-4910987D01*
X21174981Y-4928650D01*
X21172592Y-4936526D01*
X21169829Y-4945634D01*
X21163789Y-4956933D01*
X21161462Y-4961286D01*
X21159141Y-4964115D01*
X21150203Y-4975006D01*
X21140058Y-4983332D01*
X21136484Y-4986265D01*
X21136484Y-4986265D01*
X21120831Y-4994631D01*
X21115170Y-4996349D01*
X21103847Y-4999783D01*
X21097585Y-5000400D01*
X21090611Y-5001087D01*
X21081759Y-5001087D01*
X21074785Y-5000400D01*
X21068522Y-4999783D01*
X21057199Y-4996349D01*
X21051538Y-4994631D01*
X21035886Y-4986265D01*
X21035886Y-4986265D01*
X21032312Y-4983332D01*
X21022166Y-4975006D01*
X21013228Y-4964115D01*
X21010907Y-4961286D01*
X21008580Y-4956933D01*
X21002540Y-4945634D01*
X20999778Y-4936526D01*
X20997388Y-4928650D01*
X20995649Y-4910987D01*
X20997388Y-4893324D01*
X21001210Y-4880725D01*
X21002540Y-4876340D01*
X21010907Y-4860688D01*
X21010907Y-4860688D01*
X21013840Y-4857114D01*
X21022166Y-4846968D01*
X21032439Y-4838538D01*
X21035886Y-4835709D01*
X21043333Y-4831728D01*
X21051538Y-4827343D01*
X21060390Y-4824657D01*
X21068522Y-4822191D01*
X21075719Y-4821482D01*
X21081759Y-4820887D01*
X21090611Y-4820887D01*
X21096651Y-4821482D01*
X21096651Y-4821482D01*
G37*
G36*
X14298493Y-4838955D02*
X14302242Y-4840092D01*
X14305698Y-4841939D01*
X14309204Y-4844817D01*
X14361440Y-4897052D01*
X14364317Y-4900558D01*
X14366164Y-4904014D01*
X14367302Y-4907764D01*
X14367686Y-4911664D01*
X14367302Y-4915564D01*
X14366164Y-4919313D01*
X14364317Y-4922769D01*
X14361440Y-4926276D01*
X14316275Y-4971440D01*
X14312769Y-4974317D01*
X14309313Y-4976165D01*
X14305564Y-4977302D01*
X14301664Y-4977686D01*
X14297764Y-4977302D01*
X14294014Y-4976165D01*
X14290558Y-4974317D01*
X14287052Y-4971440D01*
X14234817Y-4919205D01*
X14231939Y-4915698D01*
X14230092Y-4912242D01*
X14228954Y-4908493D01*
X14228570Y-4904593D01*
X14228954Y-4900693D01*
X14230092Y-4896943D01*
X14231939Y-4893487D01*
X14234817Y-4889981D01*
X14279981Y-4844817D01*
X14283487Y-4841939D01*
X14286943Y-4840092D01*
X14290693Y-4838955D01*
X14294593Y-4838571D01*
X14298493Y-4838955D01*
X14298493Y-4838955D01*
G37*
G36*
X21530048Y-4886981D02*
X21480409Y-4936620D01*
X21381273Y-4837484D01*
X21430912Y-4787845D01*
X21530048Y-4886981D01*
X21530048Y-4886981D01*
G37*
G36*
X15378493Y-4748955D02*
X15382242Y-4750092D01*
X15385698Y-4751939D01*
X15389204Y-4754817D01*
X15441440Y-4807052D01*
X15444317Y-4810558D01*
X15446164Y-4814014D01*
X15447302Y-4817764D01*
X15447686Y-4821664D01*
X15447302Y-4825564D01*
X15446164Y-4829313D01*
X15444317Y-4832769D01*
X15441440Y-4836276D01*
X15396275Y-4881440D01*
X15392769Y-4884317D01*
X15389313Y-4886165D01*
X15385564Y-4887302D01*
X15381664Y-4887686D01*
X15377764Y-4887302D01*
X15374014Y-4886165D01*
X15370558Y-4884317D01*
X15367052Y-4881440D01*
X15314817Y-4829205D01*
X15311939Y-4825698D01*
X15310092Y-4822242D01*
X15308954Y-4818493D01*
X15308570Y-4814593D01*
X15308954Y-4810693D01*
X15310092Y-4806943D01*
X15311939Y-4803487D01*
X15314817Y-4799981D01*
X15359981Y-4754817D01*
X15363487Y-4751939D01*
X15366943Y-4750092D01*
X15370693Y-4748955D01*
X15374593Y-4748571D01*
X15378493Y-4748955D01*
X15378493Y-4748955D01*
G37*
G36*
X14718727Y-4787484D02*
X14619591Y-4886620D01*
X14569952Y-4836981D01*
X14669088Y-4737845D01*
X14718727Y-4787484D01*
X14718727Y-4787484D01*
G37*
G36*
X15151256Y-4644705D02*
X15158452Y-4645414D01*
X15169775Y-4648849D01*
X15175436Y-4650566D01*
X15185797Y-4656104D01*
X15191089Y-4658932D01*
X15194663Y-4661865D01*
X15204808Y-4670192D01*
X15213135Y-4680337D01*
X15216068Y-4683911D01*
X15216068Y-4683911D01*
X15224434Y-4699564D01*
X15224434Y-4699564D01*
X15229586Y-4716548D01*
X15231326Y-4734210D01*
X15229586Y-4751873D01*
X15228476Y-4755531D01*
X15224434Y-4768857D01*
X15217579Y-4781681D01*
X15216068Y-4784509D01*
X15213626Y-4787484D01*
X15204808Y-4798229D01*
X15194663Y-4806555D01*
X15191089Y-4809488D01*
X15191089Y-4809488D01*
X15175436Y-4817855D01*
X15173333Y-4818493D01*
X15158452Y-4823007D01*
X15151834Y-4823658D01*
X15145216Y-4824310D01*
X15136364Y-4824310D01*
X15129746Y-4823658D01*
X15123127Y-4823007D01*
X15108247Y-4818493D01*
X15106143Y-4817855D01*
X15090491Y-4809488D01*
X15090491Y-4809488D01*
X15086917Y-4806555D01*
X15076771Y-4798229D01*
X15067953Y-4787484D01*
X15065512Y-4784509D01*
X15064000Y-4781681D01*
X15057145Y-4768857D01*
X15053103Y-4755531D01*
X15051993Y-4751873D01*
X15050254Y-4734210D01*
X15051993Y-4716548D01*
X15057145Y-4699564D01*
X15057145Y-4699564D01*
X15065512Y-4683911D01*
X15065512Y-4683911D01*
X15068445Y-4680337D01*
X15076771Y-4670192D01*
X15086917Y-4661865D01*
X15090491Y-4658932D01*
X15095782Y-4656104D01*
X15106143Y-4650566D01*
X15111804Y-4648849D01*
X15123127Y-4645414D01*
X15130324Y-4644705D01*
X15136364Y-4644110D01*
X15145216Y-4644110D01*
X15151256Y-4644705D01*
X15151256Y-4644705D01*
G37*
G36*
X20917046Y-4641877D02*
X20924242Y-4642586D01*
X20933566Y-4645414D01*
X20941226Y-4647738D01*
X20955088Y-4655147D01*
X20956879Y-4656104D01*
X20960075Y-4658727D01*
X20970598Y-4667363D01*
X20978924Y-4677509D01*
X20981857Y-4681083D01*
X20981857Y-4681083D01*
X20990224Y-4696735D01*
X20990224Y-4696735D01*
X20995376Y-4713719D01*
X20997115Y-4731382D01*
X20995376Y-4749045D01*
X20994518Y-4751873D01*
X20990224Y-4766029D01*
X20982814Y-4779891D01*
X20981857Y-4781681D01*
X20979536Y-4784509D01*
X20970598Y-4795400D01*
X20961256Y-4803067D01*
X20956879Y-4806660D01*
X20956145Y-4807052D01*
X20941226Y-4815026D01*
X20936259Y-4816533D01*
X20924242Y-4820178D01*
X20917624Y-4820830D01*
X20911006Y-4821482D01*
X20902154Y-4821482D01*
X20895535Y-4820830D01*
X20888917Y-4820178D01*
X20876900Y-4816533D01*
X20871933Y-4815026D01*
X20857014Y-4807052D01*
X20856280Y-4806660D01*
X20851903Y-4803067D01*
X20842561Y-4795400D01*
X20833623Y-4784509D01*
X20831302Y-4781681D01*
X20830345Y-4779891D01*
X20822935Y-4766029D01*
X20818641Y-4751873D01*
X20817783Y-4749045D01*
X20816044Y-4731382D01*
X20817783Y-4713719D01*
X20822935Y-4696735D01*
X20822935Y-4696735D01*
X20831302Y-4681083D01*
X20831302Y-4681083D01*
X20834235Y-4677509D01*
X20842561Y-4667363D01*
X20853084Y-4658727D01*
X20856280Y-4656104D01*
X20858071Y-4655147D01*
X20871933Y-4647738D01*
X20879593Y-4645414D01*
X20888917Y-4642586D01*
X20896114Y-4641877D01*
X20902154Y-4641282D01*
X20911006Y-4641282D01*
X20917046Y-4641877D01*
X20917046Y-4641877D01*
G37*
G36*
X20136992Y-4682500D02*
X20002500Y-4816992D01*
X19868008Y-4682500D01*
X20002500Y-4548008D01*
X20136992Y-4682500D01*
X20136992Y-4682500D01*
G37*
G36*
X16084492Y-4675000D02*
X15950000Y-4809492D01*
X15815508Y-4675000D01*
X15950000Y-4540508D01*
X16084492Y-4675000D01*
X16084492Y-4675000D01*
G37*
G36*
X21657327Y-4759702D02*
X21607688Y-4809341D01*
X21508552Y-4710205D01*
X21558191Y-4660566D01*
X21657327Y-4759702D01*
X21657327Y-4759702D01*
G37*
G36*
X14591448Y-4660205D02*
X14492312Y-4759341D01*
X14442673Y-4709702D01*
X14541809Y-4610566D01*
X14591448Y-4660205D01*
X14591448Y-4660205D01*
G37*
G36*
X21252155Y-4609088D02*
X21202516Y-4658727D01*
X21103380Y-4559591D01*
X21153019Y-4509952D01*
X21252155Y-4609088D01*
X21252155Y-4609088D01*
G37*
G36*
X15331439Y-4465157D02*
X15338058Y-4465809D01*
X15349380Y-4469244D01*
X15355042Y-4470961D01*
X15362889Y-4475155D01*
X15370694Y-4479327D01*
X15374268Y-4482260D01*
X15384413Y-4490587D01*
X15392740Y-4500732D01*
X15395673Y-4504306D01*
X15395673Y-4504306D01*
X15404039Y-4519958D01*
X15404039Y-4519959D01*
X15409191Y-4536942D01*
X15410931Y-4554605D01*
X15409191Y-4572268D01*
X15407827Y-4576764D01*
X15404039Y-4589252D01*
X15401319Y-4594340D01*
X15395673Y-4604904D01*
X15392740Y-4608478D01*
X15384413Y-4618624D01*
X15374268Y-4626950D01*
X15370694Y-4629883D01*
X15370694Y-4629883D01*
X15355042Y-4638249D01*
X15349380Y-4639967D01*
X15338058Y-4643401D01*
X15331439Y-4644053D01*
X15324821Y-4644705D01*
X15315969Y-4644705D01*
X15309351Y-4644053D01*
X15302732Y-4643401D01*
X15291410Y-4639967D01*
X15285748Y-4638249D01*
X15270096Y-4629883D01*
X15270096Y-4629883D01*
X15266522Y-4626950D01*
X15256376Y-4618624D01*
X15248050Y-4608478D01*
X15245117Y-4604904D01*
X15239470Y-4594340D01*
X15236751Y-4589252D01*
X15232962Y-4576764D01*
X15231599Y-4572268D01*
X15229859Y-4554605D01*
X15231599Y-4536942D01*
X15236751Y-4519959D01*
X15236751Y-4519958D01*
X15245117Y-4504306D01*
X15245117Y-4504306D01*
X15248050Y-4500732D01*
X15256376Y-4490587D01*
X15266522Y-4482260D01*
X15270096Y-4479327D01*
X15277901Y-4475155D01*
X15285748Y-4470961D01*
X15291410Y-4469244D01*
X15302732Y-4465809D01*
X15309351Y-4465157D01*
X15315969Y-4464505D01*
X15324821Y-4464505D01*
X15331439Y-4465157D01*
X15331439Y-4465157D01*
G37*
G36*
X20737440Y-4462272D02*
X20744637Y-4462980D01*
X20753961Y-4465809D01*
X20761621Y-4468132D01*
X20774760Y-4475155D01*
X20777274Y-4476499D01*
X20780720Y-4479327D01*
X20790993Y-4487758D01*
X20799319Y-4497904D01*
X20802252Y-4501478D01*
X20802252Y-4501478D01*
X20810619Y-4517130D01*
X20810619Y-4517130D01*
X20815771Y-4534114D01*
X20817510Y-4551777D01*
X20815771Y-4569439D01*
X20814913Y-4572268D01*
X20810619Y-4586423D01*
X20804434Y-4597995D01*
X20802252Y-4602076D01*
X20799931Y-4604904D01*
X20790993Y-4615795D01*
X20780847Y-4624122D01*
X20777274Y-4627055D01*
X20777273Y-4627055D01*
X20761621Y-4635421D01*
X20755960Y-4637138D01*
X20744637Y-4640573D01*
X20738019Y-4641225D01*
X20731400Y-4641877D01*
X20722548Y-4641877D01*
X20715930Y-4641225D01*
X20709312Y-4640573D01*
X20697989Y-4637138D01*
X20692328Y-4635421D01*
X20676676Y-4627055D01*
X20676675Y-4627055D01*
X20673102Y-4624122D01*
X20662956Y-4615795D01*
X20654018Y-4604904D01*
X20651697Y-4602076D01*
X20649515Y-4597995D01*
X20643330Y-4586423D01*
X20639036Y-4572268D01*
X20638178Y-4569439D01*
X20636439Y-4551777D01*
X20638178Y-4534114D01*
X20643330Y-4517130D01*
X20643330Y-4517130D01*
X20651697Y-4501478D01*
X20651697Y-4501478D01*
X20654630Y-4497904D01*
X20662956Y-4487758D01*
X20673229Y-4479327D01*
X20676675Y-4476499D01*
X20679189Y-4475155D01*
X20692328Y-4468132D01*
X20699988Y-4465809D01*
X20709312Y-4462980D01*
X20716508Y-4462272D01*
X20722548Y-4461677D01*
X20731400Y-4461677D01*
X20737440Y-4462272D01*
X20737440Y-4462272D01*
G37*
G36*
X14996620Y-4509591D02*
X14897484Y-4608727D01*
X14847845Y-4559088D01*
X14946981Y-4459952D01*
X14996620Y-4509591D01*
X14996620Y-4509591D01*
G37*
G36*
X19850635Y-4411450D02*
X19867942Y-4418618D01*
X19883518Y-4429026D01*
X19896764Y-4442272D01*
X19907172Y-4457848D01*
X19914340Y-4475155D01*
X19917995Y-4493528D01*
X19917995Y-4512262D01*
X19914340Y-4530635D01*
X19907172Y-4547942D01*
X19896764Y-4563518D01*
X19883518Y-4576764D01*
X19867942Y-4587172D01*
X19850635Y-4594340D01*
X19832262Y-4597995D01*
X19813528Y-4597995D01*
X19795155Y-4594340D01*
X19777848Y-4587172D01*
X19762272Y-4576764D01*
X19749026Y-4563518D01*
X19738618Y-4547942D01*
X19731450Y-4530635D01*
X19727795Y-4512262D01*
X19727795Y-4493528D01*
X19731450Y-4475155D01*
X19738618Y-4457848D01*
X19749026Y-4442272D01*
X19762272Y-4429026D01*
X19777848Y-4418618D01*
X19795155Y-4411450D01*
X19813528Y-4407795D01*
X19832262Y-4407795D01*
X19850635Y-4411450D01*
X19850635Y-4411450D01*
G37*
G36*
X16157345Y-4403950D02*
X16174652Y-4411118D01*
X16190228Y-4421526D01*
X16203474Y-4434772D01*
X16213882Y-4450348D01*
X16221050Y-4467655D01*
X16224705Y-4486028D01*
X16224705Y-4504762D01*
X16221050Y-4523135D01*
X16213882Y-4540442D01*
X16203474Y-4556018D01*
X16190228Y-4569264D01*
X16174652Y-4579672D01*
X16157345Y-4586840D01*
X16138972Y-4590495D01*
X16120238Y-4590495D01*
X16101865Y-4586840D01*
X16084558Y-4579672D01*
X16068982Y-4569264D01*
X16055736Y-4556018D01*
X16045328Y-4540442D01*
X16038160Y-4523135D01*
X16034505Y-4504762D01*
X16034505Y-4486028D01*
X16038160Y-4467655D01*
X16045328Y-4450348D01*
X16055736Y-4434772D01*
X16068982Y-4421526D01*
X16084558Y-4411118D01*
X16101865Y-4403950D01*
X16120238Y-4400295D01*
X16138972Y-4400295D01*
X16157345Y-4403950D01*
X16157345Y-4403950D01*
G37*
G36*
X21379434Y-4481809D02*
X21329795Y-4531448D01*
X21230659Y-4432312D01*
X21280298Y-4382673D01*
X21379434Y-4481809D01*
X21379434Y-4481809D01*
G37*
G36*
X15627421Y-4375000D02*
X15500000Y-4502421D01*
X15372579Y-4375000D01*
X15500000Y-4247579D01*
X15627421Y-4375000D01*
X15627421Y-4375000D01*
G37*
G36*
X14869341Y-4382312D02*
X14770205Y-4481448D01*
X14720566Y-4431809D01*
X14819702Y-4332673D01*
X14869341Y-4382312D01*
X14869341Y-4382312D01*
G37*
G36*
X20558414Y-4282723D02*
X20565032Y-4283375D01*
X20576355Y-4286810D01*
X20582016Y-4288527D01*
X20594038Y-4294953D01*
X20597668Y-4296894D01*
X20600681Y-4299367D01*
X20611388Y-4308153D01*
X20617602Y-4315725D01*
X20622647Y-4321873D01*
X20622647Y-4321873D01*
X20631014Y-4337525D01*
X20631953Y-4340623D01*
X20636166Y-4354509D01*
X20637905Y-4372172D01*
X20636166Y-4389834D01*
X20632992Y-4400295D01*
X20631014Y-4406818D01*
X20624706Y-4418618D01*
X20622647Y-4422471D01*
X20621165Y-4424277D01*
X20611388Y-4436190D01*
X20602608Y-4443396D01*
X20597668Y-4447449D01*
X20597668Y-4447450D01*
X20582016Y-4455816D01*
X20576355Y-4457533D01*
X20565032Y-4460968D01*
X20558414Y-4461620D01*
X20551795Y-4462272D01*
X20542943Y-4462272D01*
X20536325Y-4461620D01*
X20529707Y-4460968D01*
X20518384Y-4457533D01*
X20512723Y-4455816D01*
X20497070Y-4447450D01*
X20497070Y-4447449D01*
X20492131Y-4443396D01*
X20483351Y-4436190D01*
X20473574Y-4424277D01*
X20472092Y-4422471D01*
X20470032Y-4418618D01*
X20463725Y-4406818D01*
X20461746Y-4400295D01*
X20458573Y-4389834D01*
X20456833Y-4372172D01*
X20458573Y-4354509D01*
X20462785Y-4340623D01*
X20463725Y-4337525D01*
X20472091Y-4321873D01*
X20472092Y-4321873D01*
X20477136Y-4315725D01*
X20483351Y-4308153D01*
X20494057Y-4299367D01*
X20497070Y-4296894D01*
X20500701Y-4294953D01*
X20512723Y-4288527D01*
X20518384Y-4286810D01*
X20529707Y-4283375D01*
X20536325Y-4282723D01*
X20542943Y-4282072D01*
X20551795Y-4282072D01*
X20558414Y-4282723D01*
X20558414Y-4282723D01*
G37*
G36*
X16452236Y-4307698D02*
X16455986Y-4308836D01*
X16459442Y-4310683D01*
X16462948Y-4313560D01*
X16515183Y-4365796D01*
X16518061Y-4369302D01*
X16519908Y-4372758D01*
X16521045Y-4376507D01*
X16521429Y-4380407D01*
X16521045Y-4384307D01*
X16519908Y-4388057D01*
X16518061Y-4391513D01*
X16515183Y-4395019D01*
X16470019Y-4440183D01*
X16466513Y-4443061D01*
X16463057Y-4444908D01*
X16459307Y-4446046D01*
X16455407Y-4446430D01*
X16451507Y-4446046D01*
X16447758Y-4444908D01*
X16444302Y-4443061D01*
X16440795Y-4440183D01*
X16388560Y-4387948D01*
X16385683Y-4384442D01*
X16383835Y-4380986D01*
X16382698Y-4377236D01*
X16382314Y-4373336D01*
X16382698Y-4369436D01*
X16383835Y-4365687D01*
X16385683Y-4362231D01*
X16388560Y-4358725D01*
X16433724Y-4313560D01*
X16437231Y-4310683D01*
X16440687Y-4308836D01*
X16444436Y-4307698D01*
X16448336Y-4307314D01*
X16452236Y-4307698D01*
X16452236Y-4307698D01*
G37*
G36*
X18426740Y-4248555D02*
X18444047Y-4255723D01*
X18459623Y-4266131D01*
X18472869Y-4279377D01*
X18483277Y-4294953D01*
X18490445Y-4312260D01*
X18494100Y-4330633D01*
X18494100Y-4349367D01*
X18490445Y-4367740D01*
X18483277Y-4385047D01*
X18472869Y-4400623D01*
X18459623Y-4413869D01*
X18444047Y-4424277D01*
X18426740Y-4431445D01*
X18408367Y-4435100D01*
X18389633Y-4435100D01*
X18371260Y-4431445D01*
X18353953Y-4424277D01*
X18338377Y-4413869D01*
X18325131Y-4400623D01*
X18314723Y-4385047D01*
X18307555Y-4367740D01*
X18303900Y-4349367D01*
X18303900Y-4330633D01*
X18307555Y-4312260D01*
X18314723Y-4294953D01*
X18325131Y-4279377D01*
X18338377Y-4266131D01*
X18353953Y-4255723D01*
X18371260Y-4248555D01*
X18389633Y-4244900D01*
X18408367Y-4244900D01*
X18426740Y-4248555D01*
X18426740Y-4248555D01*
G37*
G36*
X17781740Y-4248555D02*
X17799047Y-4255723D01*
X17814623Y-4266131D01*
X17827869Y-4279377D01*
X17838277Y-4294953D01*
X17845445Y-4312260D01*
X17849100Y-4330633D01*
X17849100Y-4349367D01*
X17845445Y-4367740D01*
X17838277Y-4385047D01*
X17827869Y-4400623D01*
X17814623Y-4413869D01*
X17799047Y-4424277D01*
X17781740Y-4431445D01*
X17763367Y-4435100D01*
X17744633Y-4435100D01*
X17726260Y-4431445D01*
X17708953Y-4424277D01*
X17693377Y-4413869D01*
X17680131Y-4400623D01*
X17669723Y-4385047D01*
X17662555Y-4367740D01*
X17658900Y-4349367D01*
X17658900Y-4330633D01*
X17662555Y-4312260D01*
X17669723Y-4294953D01*
X17680131Y-4279377D01*
X17693377Y-4266131D01*
X17708953Y-4255723D01*
X17726260Y-4248555D01*
X17744633Y-4244900D01*
X17763367Y-4244900D01*
X17781740Y-4248555D01*
X17781740Y-4248555D01*
G37*
G36*
X17595100Y-4435100D02*
X17404900Y-4435100D01*
X17404900Y-4244900D01*
X17595100Y-4244900D01*
X17595100Y-4435100D01*
X17595100Y-4435100D01*
G37*
G36*
X18240100Y-4435100D02*
X18049900Y-4435100D01*
X18049900Y-4244900D01*
X18240100Y-4244900D01*
X18240100Y-4435100D01*
X18240100Y-4435100D01*
G37*
G36*
X15015564Y-4262698D02*
X15019313Y-4263836D01*
X15022769Y-4265683D01*
X15026275Y-4268560D01*
X15071440Y-4313725D01*
X15074317Y-4317231D01*
X15076164Y-4320687D01*
X15077302Y-4324436D01*
X15077686Y-4328336D01*
X15077302Y-4332236D01*
X15076164Y-4335986D01*
X15074317Y-4339442D01*
X15071440Y-4342948D01*
X15019204Y-4395183D01*
X15015698Y-4398061D01*
X15012242Y-4399908D01*
X15008493Y-4401046D01*
X15004593Y-4401430D01*
X15000693Y-4401046D01*
X14996943Y-4399908D01*
X14993487Y-4398061D01*
X14989981Y-4395183D01*
X14944817Y-4350019D01*
X14941939Y-4346513D01*
X14940092Y-4343057D01*
X14938954Y-4339307D01*
X14938570Y-4335407D01*
X14938954Y-4331507D01*
X14940092Y-4327758D01*
X14941939Y-4324302D01*
X14944817Y-4320796D01*
X14997052Y-4268560D01*
X15000558Y-4265683D01*
X15004014Y-4263836D01*
X15007764Y-4262698D01*
X15011664Y-4262314D01*
X15015564Y-4262698D01*
X15015564Y-4262698D01*
G37*
G36*
X21072236Y-4262698D02*
X21075986Y-4263836D01*
X21079442Y-4265683D01*
X21082948Y-4268560D01*
X21135183Y-4320796D01*
X21138061Y-4324302D01*
X21139908Y-4327758D01*
X21141046Y-4331507D01*
X21141430Y-4335407D01*
X21141046Y-4339307D01*
X21139908Y-4343057D01*
X21138061Y-4346513D01*
X21135183Y-4350019D01*
X21090019Y-4395183D01*
X21086513Y-4398061D01*
X21083057Y-4399908D01*
X21079307Y-4401046D01*
X21075407Y-4401430D01*
X21071507Y-4401046D01*
X21067758Y-4399908D01*
X21064302Y-4398061D01*
X21060796Y-4395183D01*
X21008560Y-4342948D01*
X21005683Y-4339442D01*
X21003836Y-4335986D01*
X21002698Y-4332236D01*
X21002314Y-4328336D01*
X21002698Y-4324436D01*
X21003836Y-4320687D01*
X21005683Y-4317231D01*
X21008560Y-4313725D01*
X21053725Y-4268560D01*
X21057231Y-4265683D01*
X21060687Y-4263836D01*
X21064436Y-4262698D01*
X21068336Y-4262314D01*
X21072236Y-4262698D01*
X21072236Y-4262698D01*
G37*
G36*
X18890100Y-4385100D02*
X18699900Y-4385100D01*
X18699900Y-4194900D01*
X18890100Y-4194900D01*
X18890100Y-4385100D01*
X18890100Y-4385100D01*
G37*
G36*
X19076740Y-4198555D02*
X19094047Y-4205723D01*
X19109623Y-4216131D01*
X19122869Y-4229377D01*
X19133277Y-4244953D01*
X19140445Y-4262260D01*
X19144100Y-4280633D01*
X19144100Y-4299367D01*
X19140445Y-4317740D01*
X19133277Y-4335047D01*
X19122869Y-4350623D01*
X19109623Y-4363869D01*
X19094047Y-4374277D01*
X19076740Y-4381445D01*
X19058367Y-4385100D01*
X19039633Y-4385100D01*
X19021260Y-4381445D01*
X19003953Y-4374277D01*
X18988377Y-4363869D01*
X18975131Y-4350623D01*
X18964723Y-4335047D01*
X18957555Y-4317740D01*
X18953900Y-4299367D01*
X18953900Y-4280633D01*
X18957555Y-4262260D01*
X18964723Y-4244953D01*
X18975131Y-4229377D01*
X18988377Y-4216131D01*
X19003953Y-4205723D01*
X19021260Y-4198555D01*
X19039633Y-4194900D01*
X19058367Y-4194900D01*
X19076740Y-4198555D01*
X19076740Y-4198555D01*
G37*
G36*
X17136740Y-4188555D02*
X17154047Y-4195723D01*
X17169623Y-4206131D01*
X17182869Y-4219377D01*
X17193277Y-4234953D01*
X17200445Y-4252260D01*
X17204100Y-4270633D01*
X17204100Y-4289367D01*
X17200445Y-4307740D01*
X17193277Y-4325047D01*
X17182869Y-4340623D01*
X17169623Y-4353869D01*
X17154047Y-4364277D01*
X17136740Y-4371445D01*
X17118367Y-4375100D01*
X17099633Y-4375100D01*
X17081260Y-4371445D01*
X17063953Y-4364277D01*
X17048377Y-4353869D01*
X17035131Y-4340623D01*
X17024723Y-4325047D01*
X17017555Y-4307740D01*
X17013900Y-4289367D01*
X17013900Y-4270633D01*
X17017555Y-4252260D01*
X17024723Y-4234953D01*
X17035131Y-4219377D01*
X17048377Y-4206131D01*
X17063953Y-4195723D01*
X17081260Y-4188555D01*
X17099633Y-4184900D01*
X17118367Y-4184900D01*
X17136740Y-4188555D01*
X17136740Y-4188555D01*
G37*
G36*
X16950100Y-4375100D02*
X16759900Y-4375100D01*
X16759900Y-4184900D01*
X16950100Y-4184900D01*
X16950100Y-4375100D01*
X16950100Y-4375100D01*
G37*
G36*
X16328493Y-4183954D02*
X16332242Y-4185092D01*
X16335698Y-4186939D01*
X16339204Y-4189817D01*
X16391440Y-4242052D01*
X16394317Y-4245558D01*
X16396164Y-4249014D01*
X16397302Y-4252764D01*
X16397686Y-4256664D01*
X16397302Y-4260564D01*
X16396164Y-4264313D01*
X16394317Y-4267769D01*
X16391440Y-4271276D01*
X16346275Y-4316440D01*
X16342769Y-4319317D01*
X16339313Y-4321165D01*
X16335564Y-4322302D01*
X16331664Y-4322686D01*
X16327764Y-4322302D01*
X16324014Y-4321165D01*
X16320558Y-4319317D01*
X16317052Y-4316440D01*
X16264817Y-4264205D01*
X16261939Y-4260698D01*
X16260092Y-4257242D01*
X16258954Y-4253493D01*
X16258570Y-4249593D01*
X16258954Y-4245693D01*
X16260092Y-4241943D01*
X16261939Y-4238487D01*
X16264817Y-4234981D01*
X16309981Y-4189817D01*
X16313487Y-4186939D01*
X16316943Y-4185092D01*
X16320693Y-4183954D01*
X16324593Y-4183570D01*
X16328493Y-4183954D01*
X16328493Y-4183954D01*
G37*
G36*
X20948493Y-4138954D02*
X20952242Y-4140092D01*
X20955698Y-4141939D01*
X20959205Y-4144817D01*
X21011440Y-4197052D01*
X21014317Y-4200558D01*
X21016165Y-4204014D01*
X21017302Y-4207764D01*
X21017686Y-4211664D01*
X21017302Y-4215564D01*
X21016165Y-4219313D01*
X21014317Y-4222769D01*
X21011440Y-4226276D01*
X20966276Y-4271440D01*
X20962769Y-4274317D01*
X20959313Y-4276165D01*
X20955564Y-4277302D01*
X20951664Y-4277686D01*
X20947764Y-4277302D01*
X20944014Y-4276165D01*
X20940558Y-4274317D01*
X20937052Y-4271440D01*
X20884817Y-4219205D01*
X20881939Y-4215698D01*
X20880092Y-4212242D01*
X20878955Y-4208493D01*
X20878571Y-4204593D01*
X20878955Y-4200693D01*
X20880092Y-4196943D01*
X20881939Y-4193487D01*
X20884817Y-4189981D01*
X20929981Y-4144817D01*
X20933487Y-4141939D01*
X20936943Y-4140092D01*
X20940693Y-4138954D01*
X20944593Y-4138570D01*
X20948493Y-4138954D01*
X20948493Y-4138954D01*
G37*
G36*
X15139307Y-4138954D02*
X15143057Y-4140092D01*
X15146513Y-4141939D01*
X15150019Y-4144817D01*
X15195183Y-4189981D01*
X15198061Y-4193487D01*
X15199908Y-4196943D01*
X15201045Y-4200693D01*
X15201429Y-4204593D01*
X15201045Y-4208493D01*
X15199908Y-4212242D01*
X15198061Y-4215698D01*
X15195183Y-4219205D01*
X15142948Y-4271440D01*
X15139442Y-4274317D01*
X15135986Y-4276165D01*
X15132236Y-4277302D01*
X15128336Y-4277686D01*
X15124436Y-4277302D01*
X15120687Y-4276165D01*
X15117231Y-4274317D01*
X15113724Y-4271440D01*
X15068560Y-4226276D01*
X15065683Y-4222769D01*
X15063835Y-4219313D01*
X15062698Y-4215564D01*
X15062314Y-4211664D01*
X15062698Y-4207764D01*
X15063835Y-4204014D01*
X15065683Y-4200558D01*
X15068560Y-4197052D01*
X15120795Y-4144817D01*
X15124302Y-4141939D01*
X15127758Y-4140092D01*
X15131507Y-4138954D01*
X15135407Y-4138570D01*
X15139307Y-4138954D01*
X15139307Y-4138954D01*
G37*
G36*
X16320564Y-3877698D02*
X16324313Y-3878835D01*
X16327769Y-3880683D01*
X16331275Y-3883560D01*
X16376440Y-3928724D01*
X16379317Y-3932231D01*
X16381164Y-3935687D01*
X16382302Y-3939436D01*
X16382686Y-3943336D01*
X16382302Y-3947236D01*
X16381164Y-3950986D01*
X16379317Y-3954442D01*
X16376440Y-3957948D01*
X16324204Y-4010183D01*
X16320698Y-4013061D01*
X16317242Y-4014908D01*
X16313493Y-4016045D01*
X16309593Y-4016429D01*
X16305693Y-4016045D01*
X16301943Y-4014908D01*
X16298487Y-4013061D01*
X16294981Y-4010183D01*
X16249817Y-3965019D01*
X16246939Y-3961513D01*
X16245092Y-3958057D01*
X16243954Y-3954307D01*
X16243570Y-3950407D01*
X16243954Y-3946507D01*
X16245092Y-3942758D01*
X16246939Y-3939302D01*
X16249817Y-3935795D01*
X16302052Y-3883560D01*
X16305558Y-3880683D01*
X16309014Y-3878835D01*
X16312764Y-3877698D01*
X16316664Y-3877314D01*
X16320564Y-3877698D01*
X16320564Y-3877698D01*
G37*
G36*
X16723600Y-4004600D02*
X16583400Y-4004600D01*
X16583400Y-3934400D01*
X16723600Y-3934400D01*
X16723600Y-4004600D01*
X16723600Y-4004600D01*
G37*
G36*
X17116600Y-4004600D02*
X16976400Y-4004600D01*
X16976400Y-3934400D01*
X17116600Y-3934400D01*
X17116600Y-4004600D01*
X17116600Y-4004600D01*
G37*
G36*
X17541450Y-3887844D02*
X17545199Y-3888982D01*
X17548656Y-3890829D01*
X17551685Y-3893315D01*
X17554171Y-3896344D01*
X17556018Y-3899801D01*
X17557156Y-3903550D01*
X17557600Y-3908064D01*
X17557600Y-3971936D01*
X17557156Y-3976450D01*
X17556018Y-3980199D01*
X17554171Y-3983656D01*
X17551685Y-3986685D01*
X17548656Y-3989171D01*
X17545199Y-3991018D01*
X17541450Y-3992155D01*
X17536936Y-3992600D01*
X17463064Y-3992600D01*
X17458550Y-3992155D01*
X17454801Y-3991018D01*
X17451344Y-3989171D01*
X17448315Y-3986685D01*
X17445829Y-3983656D01*
X17443982Y-3980199D01*
X17442845Y-3976450D01*
X17442400Y-3971936D01*
X17442400Y-3908064D01*
X17442845Y-3903550D01*
X17443982Y-3899801D01*
X17445829Y-3896344D01*
X17448315Y-3893315D01*
X17451344Y-3890829D01*
X17454801Y-3888982D01*
X17458550Y-3887844D01*
X17463064Y-3887400D01*
X17536936Y-3887400D01*
X17541450Y-3887844D01*
X17541450Y-3887844D01*
G37*
G36*
X17366450Y-3887844D02*
X17370200Y-3888982D01*
X17373656Y-3890829D01*
X17376685Y-3893315D01*
X17379171Y-3896344D01*
X17381018Y-3899801D01*
X17382156Y-3903550D01*
X17382600Y-3908064D01*
X17382600Y-3971936D01*
X17382156Y-3976450D01*
X17381018Y-3980199D01*
X17379171Y-3983656D01*
X17376685Y-3986685D01*
X17373656Y-3989171D01*
X17370200Y-3991018D01*
X17366450Y-3992155D01*
X17361936Y-3992600D01*
X17288064Y-3992600D01*
X17283550Y-3992155D01*
X17279801Y-3991018D01*
X17276345Y-3989171D01*
X17273316Y-3986685D01*
X17270830Y-3983656D01*
X17268982Y-3980199D01*
X17267845Y-3976450D01*
X17267400Y-3971936D01*
X17267400Y-3908064D01*
X17267845Y-3903550D01*
X17268982Y-3899801D01*
X17270830Y-3896344D01*
X17273316Y-3893315D01*
X17276345Y-3890829D01*
X17279801Y-3888982D01*
X17283550Y-3887844D01*
X17288064Y-3887400D01*
X17361936Y-3887400D01*
X17366450Y-3887844D01*
X17366450Y-3887844D01*
G37*
G36*
X19706450Y-3882844D02*
X19710199Y-3883982D01*
X19713656Y-3885829D01*
X19716685Y-3888315D01*
X19719171Y-3891344D01*
X19721018Y-3894801D01*
X19722156Y-3898550D01*
X19722600Y-3903064D01*
X19722600Y-3966936D01*
X19722156Y-3971450D01*
X19721018Y-3975199D01*
X19719171Y-3978656D01*
X19716685Y-3981685D01*
X19713656Y-3984171D01*
X19710199Y-3986018D01*
X19706450Y-3987155D01*
X19701936Y-3987600D01*
X19628064Y-3987600D01*
X19623550Y-3987155D01*
X19619801Y-3986018D01*
X19616344Y-3984171D01*
X19613315Y-3981685D01*
X19610829Y-3978656D01*
X19608982Y-3975199D01*
X19607845Y-3971450D01*
X19607400Y-3966936D01*
X19607400Y-3903064D01*
X19607845Y-3898550D01*
X19608982Y-3894801D01*
X19610829Y-3891344D01*
X19613315Y-3888315D01*
X19616344Y-3885829D01*
X19619801Y-3883982D01*
X19623550Y-3882844D01*
X19628064Y-3882400D01*
X19701936Y-3882400D01*
X19706450Y-3882844D01*
X19706450Y-3882844D01*
G37*
G36*
X19881450Y-3882844D02*
X19885199Y-3883982D01*
X19888656Y-3885829D01*
X19891685Y-3888315D01*
X19894170Y-3891344D01*
X19896018Y-3894801D01*
X19897155Y-3898550D01*
X19897600Y-3903064D01*
X19897600Y-3966936D01*
X19897155Y-3971450D01*
X19896018Y-3975199D01*
X19894170Y-3978656D01*
X19891685Y-3981685D01*
X19888656Y-3984171D01*
X19885199Y-3986018D01*
X19881450Y-3987155D01*
X19876936Y-3987600D01*
X19803064Y-3987600D01*
X19798550Y-3987155D01*
X19794801Y-3986018D01*
X19791344Y-3984171D01*
X19788315Y-3981685D01*
X19785829Y-3978656D01*
X19783982Y-3975199D01*
X19782844Y-3971450D01*
X19782400Y-3966936D01*
X19782400Y-3903064D01*
X19782844Y-3898550D01*
X19783982Y-3894801D01*
X19785829Y-3891344D01*
X19788315Y-3888315D01*
X19791344Y-3885829D01*
X19794801Y-3883982D01*
X19798550Y-3882844D01*
X19803064Y-3882400D01*
X19876936Y-3882400D01*
X19881450Y-3882844D01*
X19881450Y-3882844D01*
G37*
G36*
X19103600Y-3979600D02*
X18963400Y-3979600D01*
X18963400Y-3909400D01*
X19103600Y-3909400D01*
X19103600Y-3979600D01*
X19103600Y-3979600D01*
G37*
G36*
X19496600Y-3979600D02*
X19356400Y-3979600D01*
X19356400Y-3909400D01*
X19496600Y-3909400D01*
X19496600Y-3979600D01*
X19496600Y-3979600D01*
G37*
G36*
X18743950Y-3812844D02*
X18747699Y-3813982D01*
X18751156Y-3815829D01*
X18754185Y-3818315D01*
X18756671Y-3821344D01*
X18758518Y-3824801D01*
X18759656Y-3828550D01*
X18760100Y-3833064D01*
X18760100Y-3896936D01*
X18759656Y-3901450D01*
X18758518Y-3905199D01*
X18756671Y-3908656D01*
X18754185Y-3911685D01*
X18751156Y-3914171D01*
X18747699Y-3916018D01*
X18743950Y-3917155D01*
X18739436Y-3917600D01*
X18665564Y-3917600D01*
X18661050Y-3917155D01*
X18657301Y-3916018D01*
X18653844Y-3914171D01*
X18650815Y-3911685D01*
X18648330Y-3908656D01*
X18646482Y-3905199D01*
X18645345Y-3901450D01*
X18644900Y-3896936D01*
X18644900Y-3833064D01*
X18645345Y-3828550D01*
X18646482Y-3824801D01*
X18648330Y-3821344D01*
X18650815Y-3818315D01*
X18653844Y-3815829D01*
X18657301Y-3813982D01*
X18661050Y-3812844D01*
X18665564Y-3812400D01*
X18739436Y-3812400D01*
X18743950Y-3812844D01*
X18743950Y-3812844D01*
G37*
G36*
X18918950Y-3812844D02*
X18922699Y-3813982D01*
X18926156Y-3815829D01*
X18929185Y-3818315D01*
X18931671Y-3821344D01*
X18933518Y-3824801D01*
X18934655Y-3828550D01*
X18935100Y-3833064D01*
X18935100Y-3896936D01*
X18934655Y-3901450D01*
X18933518Y-3905199D01*
X18931671Y-3908656D01*
X18929185Y-3911685D01*
X18926156Y-3914171D01*
X18922699Y-3916018D01*
X18918950Y-3917155D01*
X18914436Y-3917600D01*
X18840564Y-3917600D01*
X18836050Y-3917155D01*
X18832301Y-3916018D01*
X18828844Y-3914171D01*
X18825815Y-3911685D01*
X18823329Y-3908656D01*
X18821482Y-3905199D01*
X18820344Y-3901450D01*
X18819900Y-3896936D01*
X18819900Y-3833064D01*
X18820344Y-3828550D01*
X18821482Y-3824801D01*
X18823329Y-3821344D01*
X18825815Y-3818315D01*
X18828844Y-3815829D01*
X18832301Y-3813982D01*
X18836050Y-3812844D01*
X18840564Y-3812400D01*
X18914436Y-3812400D01*
X18918950Y-3812844D01*
X18918950Y-3812844D01*
G37*
G36*
X16444307Y-3753954D02*
X16448057Y-3755092D01*
X16451513Y-3756939D01*
X16455019Y-3759817D01*
X16500183Y-3804981D01*
X16503061Y-3808487D01*
X16504908Y-3811943D01*
X16506045Y-3815693D01*
X16506429Y-3819593D01*
X16506045Y-3823493D01*
X16504908Y-3827242D01*
X16503061Y-3830698D01*
X16500183Y-3834204D01*
X16447948Y-3886440D01*
X16444442Y-3889317D01*
X16440986Y-3891164D01*
X16437236Y-3892302D01*
X16433336Y-3892686D01*
X16429436Y-3892302D01*
X16425687Y-3891164D01*
X16422231Y-3889317D01*
X16418724Y-3886440D01*
X16373560Y-3841275D01*
X16370683Y-3837769D01*
X16368835Y-3834313D01*
X16367698Y-3830564D01*
X16367314Y-3826664D01*
X16367698Y-3822764D01*
X16368835Y-3819014D01*
X16370683Y-3815558D01*
X16373560Y-3812052D01*
X16425795Y-3759817D01*
X16429302Y-3756939D01*
X16432758Y-3755092D01*
X16436507Y-3753954D01*
X16440407Y-3753570D01*
X16444307Y-3753954D01*
X16444307Y-3753954D01*
G37*
G36*
X17116600Y-3824600D02*
X16976400Y-3824600D01*
X16976400Y-3754400D01*
X17116600Y-3754400D01*
X17116600Y-3824600D01*
X17116600Y-3824600D01*
G37*
G36*
X16723600Y-3824600D02*
X16583400Y-3824600D01*
X16583400Y-3754400D01*
X16723600Y-3754400D01*
X16723600Y-3824600D01*
X16723600Y-3824600D01*
G37*
G36*
X19103600Y-3799600D02*
X18963400Y-3799600D01*
X18963400Y-3729400D01*
X19103600Y-3729400D01*
X19103600Y-3799600D01*
X19103600Y-3799600D01*
G37*
G36*
X19496600Y-3799600D02*
X19356400Y-3799600D01*
X19356400Y-3729400D01*
X19496600Y-3729400D01*
X19496600Y-3799600D01*
X19496600Y-3799600D01*
G37*
G36*
X18029044Y-3590552D02*
X18035663Y-3591204D01*
X18046985Y-3594638D01*
X18052647Y-3596356D01*
X18066509Y-3603765D01*
X18068299Y-3604722D01*
X18071873Y-3607655D01*
X18082019Y-3615981D01*
X18090345Y-3626127D01*
X18093278Y-3629701D01*
X18093278Y-3629701D01*
X18101644Y-3645353D01*
X18101644Y-3645353D01*
X18106796Y-3662337D01*
X18108536Y-3680000D01*
X18106796Y-3697663D01*
X18103362Y-3708985D01*
X18101644Y-3714647D01*
X18094235Y-3728509D01*
X18093278Y-3730299D01*
X18090345Y-3733873D01*
X18082019Y-3744019D01*
X18071873Y-3752345D01*
X18068299Y-3755278D01*
X18068299Y-3755278D01*
X18052647Y-3763644D01*
X18046985Y-3765362D01*
X18035663Y-3768796D01*
X18029044Y-3769448D01*
X18022426Y-3770100D01*
X18013574Y-3770100D01*
X18006956Y-3769448D01*
X18000337Y-3768796D01*
X17989015Y-3765362D01*
X17983353Y-3763644D01*
X17967701Y-3755278D01*
X17967701Y-3755278D01*
X17964127Y-3752345D01*
X17953981Y-3744019D01*
X17945655Y-3733873D01*
X17942722Y-3730299D01*
X17941765Y-3728509D01*
X17934356Y-3714647D01*
X17932638Y-3708985D01*
X17929204Y-3697663D01*
X17927464Y-3680000D01*
X17929204Y-3662337D01*
X17934356Y-3645353D01*
X17934356Y-3645353D01*
X17942722Y-3629701D01*
X17942722Y-3629701D01*
X17945655Y-3626127D01*
X17953981Y-3615981D01*
X17964127Y-3607655D01*
X17967701Y-3604722D01*
X17969491Y-3603765D01*
X17983353Y-3596356D01*
X17989015Y-3594638D01*
X18000337Y-3591204D01*
X18006956Y-3590552D01*
X18013574Y-3589900D01*
X18022426Y-3589900D01*
X18029044Y-3590552D01*
X18029044Y-3590552D01*
G37*
G36*
X17775044Y-3590552D02*
X17781663Y-3591204D01*
X17792985Y-3594638D01*
X17798647Y-3596356D01*
X17812509Y-3603765D01*
X17814299Y-3604722D01*
X17817873Y-3607655D01*
X17828019Y-3615981D01*
X17836345Y-3626127D01*
X17839278Y-3629701D01*
X17839278Y-3629701D01*
X17847644Y-3645353D01*
X17847644Y-3645353D01*
X17852796Y-3662337D01*
X17854536Y-3680000D01*
X17852796Y-3697663D01*
X17849362Y-3708985D01*
X17847644Y-3714647D01*
X17840235Y-3728509D01*
X17839278Y-3730299D01*
X17836345Y-3733873D01*
X17828019Y-3744019D01*
X17817873Y-3752345D01*
X17814299Y-3755278D01*
X17814299Y-3755278D01*
X17798647Y-3763644D01*
X17792985Y-3765362D01*
X17781663Y-3768796D01*
X17775044Y-3769448D01*
X17768426Y-3770100D01*
X17759574Y-3770100D01*
X17752956Y-3769448D01*
X17746337Y-3768796D01*
X17735015Y-3765362D01*
X17729353Y-3763644D01*
X17713701Y-3755278D01*
X17713701Y-3755278D01*
X17710127Y-3752345D01*
X17699981Y-3744019D01*
X17691655Y-3733873D01*
X17688722Y-3730299D01*
X17687765Y-3728509D01*
X17680356Y-3714647D01*
X17678638Y-3708985D01*
X17675204Y-3697663D01*
X17673464Y-3680000D01*
X17675204Y-3662337D01*
X17680356Y-3645353D01*
X17680356Y-3645353D01*
X17688722Y-3629701D01*
X17688722Y-3629701D01*
X17691655Y-3626127D01*
X17699981Y-3615981D01*
X17710127Y-3607655D01*
X17713701Y-3604722D01*
X17715491Y-3603765D01*
X17729353Y-3596356D01*
X17735015Y-3594638D01*
X17746337Y-3591204D01*
X17752956Y-3590552D01*
X17759574Y-3589900D01*
X17768426Y-3589900D01*
X17775044Y-3590552D01*
X17775044Y-3590552D01*
G37*
G36*
X17521044Y-3590552D02*
X17527663Y-3591204D01*
X17538985Y-3594638D01*
X17544647Y-3596356D01*
X17558509Y-3603765D01*
X17560299Y-3604722D01*
X17563873Y-3607655D01*
X17574019Y-3615981D01*
X17582345Y-3626127D01*
X17585278Y-3629701D01*
X17585278Y-3629701D01*
X17593644Y-3645353D01*
X17593644Y-3645353D01*
X17598796Y-3662337D01*
X17600536Y-3680000D01*
X17598796Y-3697663D01*
X17595362Y-3708985D01*
X17593644Y-3714647D01*
X17586235Y-3728509D01*
X17585278Y-3730299D01*
X17582345Y-3733873D01*
X17574019Y-3744019D01*
X17563873Y-3752345D01*
X17560299Y-3755278D01*
X17560299Y-3755278D01*
X17544647Y-3763644D01*
X17538985Y-3765362D01*
X17527663Y-3768796D01*
X17521044Y-3769448D01*
X17514426Y-3770100D01*
X17505574Y-3770100D01*
X17498956Y-3769448D01*
X17492337Y-3768796D01*
X17481015Y-3765362D01*
X17475353Y-3763644D01*
X17459701Y-3755278D01*
X17459701Y-3755278D01*
X17456127Y-3752345D01*
X17445981Y-3744019D01*
X17437655Y-3733873D01*
X17434722Y-3730299D01*
X17433765Y-3728509D01*
X17426356Y-3714647D01*
X17424638Y-3708985D01*
X17421204Y-3697663D01*
X17419464Y-3680000D01*
X17421204Y-3662337D01*
X17426356Y-3645353D01*
X17426356Y-3645353D01*
X17434722Y-3629701D01*
X17434722Y-3629701D01*
X17437655Y-3626127D01*
X17445981Y-3615981D01*
X17456127Y-3607655D01*
X17459701Y-3604722D01*
X17461491Y-3603765D01*
X17475353Y-3596356D01*
X17481015Y-3594638D01*
X17492337Y-3591204D01*
X17498956Y-3590552D01*
X17505574Y-3589900D01*
X17514426Y-3589900D01*
X17521044Y-3590552D01*
X17521044Y-3590552D01*
G37*
G36*
X17267044Y-3590552D02*
X17273663Y-3591204D01*
X17284985Y-3594638D01*
X17290647Y-3596356D01*
X17304509Y-3603765D01*
X17306299Y-3604722D01*
X17309873Y-3607655D01*
X17320019Y-3615981D01*
X17328345Y-3626127D01*
X17331278Y-3629701D01*
X17331278Y-3629701D01*
X17339644Y-3645353D01*
X17339644Y-3645353D01*
X17344796Y-3662337D01*
X17346536Y-3680000D01*
X17344796Y-3697663D01*
X17341362Y-3708985D01*
X17339644Y-3714647D01*
X17332235Y-3728509D01*
X17331278Y-3730299D01*
X17328345Y-3733873D01*
X17320019Y-3744019D01*
X17309873Y-3752345D01*
X17306299Y-3755278D01*
X17306299Y-3755278D01*
X17290647Y-3763644D01*
X17284985Y-3765362D01*
X17273663Y-3768796D01*
X17267044Y-3769448D01*
X17260426Y-3770100D01*
X17251574Y-3770100D01*
X17244956Y-3769448D01*
X17238337Y-3768796D01*
X17227015Y-3765362D01*
X17221353Y-3763644D01*
X17205701Y-3755278D01*
X17205701Y-3755278D01*
X17202127Y-3752345D01*
X17191981Y-3744019D01*
X17183655Y-3733873D01*
X17180722Y-3730299D01*
X17179765Y-3728509D01*
X17172356Y-3714647D01*
X17170638Y-3708985D01*
X17167204Y-3697663D01*
X17165464Y-3680000D01*
X17167204Y-3662337D01*
X17172356Y-3645353D01*
X17172356Y-3645353D01*
X17180722Y-3629701D01*
X17180722Y-3629701D01*
X17183655Y-3626127D01*
X17191981Y-3615981D01*
X17202127Y-3607655D01*
X17205701Y-3604722D01*
X17207491Y-3603765D01*
X17221353Y-3596356D01*
X17227015Y-3594638D01*
X17238337Y-3591204D01*
X17244956Y-3590552D01*
X17251574Y-3589900D01*
X17260426Y-3589900D01*
X17267044Y-3590552D01*
X17267044Y-3590552D01*
G37*
G36*
X18537044Y-3590552D02*
X18543663Y-3591204D01*
X18554985Y-3594638D01*
X18560647Y-3596356D01*
X18574509Y-3603765D01*
X18576299Y-3604722D01*
X18579873Y-3607655D01*
X18590019Y-3615981D01*
X18598345Y-3626127D01*
X18601278Y-3629701D01*
X18601278Y-3629701D01*
X18609644Y-3645353D01*
X18609644Y-3645353D01*
X18614796Y-3662337D01*
X18616536Y-3680000D01*
X18614796Y-3697663D01*
X18611362Y-3708985D01*
X18609644Y-3714647D01*
X18602235Y-3728509D01*
X18601278Y-3730299D01*
X18598345Y-3733873D01*
X18590019Y-3744019D01*
X18579873Y-3752345D01*
X18576299Y-3755278D01*
X18576299Y-3755278D01*
X18560647Y-3763644D01*
X18554985Y-3765362D01*
X18543663Y-3768796D01*
X18537044Y-3769448D01*
X18530426Y-3770100D01*
X18521574Y-3770100D01*
X18514956Y-3769448D01*
X18508337Y-3768796D01*
X18497015Y-3765362D01*
X18491353Y-3763644D01*
X18475701Y-3755278D01*
X18475701Y-3755278D01*
X18472127Y-3752345D01*
X18461981Y-3744019D01*
X18453655Y-3733873D01*
X18450722Y-3730299D01*
X18449765Y-3728509D01*
X18442356Y-3714647D01*
X18440638Y-3708985D01*
X18437204Y-3697663D01*
X18435464Y-3680000D01*
X18437204Y-3662337D01*
X18442356Y-3645353D01*
X18442356Y-3645353D01*
X18450722Y-3629701D01*
X18450722Y-3629701D01*
X18453655Y-3626127D01*
X18461981Y-3615981D01*
X18472127Y-3607655D01*
X18475701Y-3604722D01*
X18477491Y-3603765D01*
X18491353Y-3596356D01*
X18497015Y-3594638D01*
X18508337Y-3591204D01*
X18514956Y-3590552D01*
X18521574Y-3589900D01*
X18530426Y-3589900D01*
X18537044Y-3590552D01*
X18537044Y-3590552D01*
G37*
G36*
X18283044Y-3590552D02*
X18289663Y-3591204D01*
X18300985Y-3594638D01*
X18306647Y-3596356D01*
X18320509Y-3603765D01*
X18322299Y-3604722D01*
X18325873Y-3607655D01*
X18336019Y-3615981D01*
X18344345Y-3626127D01*
X18347278Y-3629701D01*
X18347278Y-3629701D01*
X18355644Y-3645353D01*
X18355644Y-3645353D01*
X18360796Y-3662337D01*
X18362536Y-3680000D01*
X18360796Y-3697663D01*
X18357362Y-3708985D01*
X18355644Y-3714647D01*
X18348235Y-3728509D01*
X18347278Y-3730299D01*
X18344345Y-3733873D01*
X18336019Y-3744019D01*
X18325873Y-3752345D01*
X18322299Y-3755278D01*
X18322299Y-3755278D01*
X18306647Y-3763644D01*
X18300985Y-3765362D01*
X18289663Y-3768796D01*
X18283044Y-3769448D01*
X18276426Y-3770100D01*
X18267574Y-3770100D01*
X18260956Y-3769448D01*
X18254337Y-3768796D01*
X18243015Y-3765362D01*
X18237353Y-3763644D01*
X18221701Y-3755278D01*
X18221701Y-3755278D01*
X18218127Y-3752345D01*
X18207981Y-3744019D01*
X18199655Y-3733873D01*
X18196722Y-3730299D01*
X18195765Y-3728509D01*
X18188356Y-3714647D01*
X18186638Y-3708985D01*
X18183204Y-3697663D01*
X18181464Y-3680000D01*
X18183204Y-3662337D01*
X18188356Y-3645353D01*
X18188356Y-3645353D01*
X18196722Y-3629701D01*
X18196722Y-3629701D01*
X18199655Y-3626127D01*
X18207981Y-3615981D01*
X18218127Y-3607655D01*
X18221701Y-3604722D01*
X18223491Y-3603765D01*
X18237353Y-3596356D01*
X18243015Y-3594638D01*
X18254337Y-3591204D01*
X18260956Y-3590552D01*
X18267574Y-3589900D01*
X18276426Y-3589900D01*
X18283044Y-3590552D01*
X18283044Y-3590552D01*
G37*
G36*
X18870100Y-3770100D02*
X18689900Y-3770100D01*
X18689900Y-3589900D01*
X18870100Y-3589900D01*
X18870100Y-3770100D01*
X18870100Y-3770100D01*
G37*
M02*
