M48
;DRILL file {KiCad (5.0.2)-1} date 12.04.2021 18:58:47
;FORMAT={-:-/ absolute / inch / decimal}
FMAT,2
INCH,TZ
T1C0.0118
T2C0.0157
T3C0.0197
T4C0.0295
T5C0.0315
T6C0.0354
T7C0.0394
T8C0.0433
%
G90
G05
T1
X5.7955Y-1.8274
X5.8622Y-1.6839
X6.3155Y-1.6249
X6.3787Y-2.6335
X6.6252Y-4.6319
X6.7555Y-4.1732
X6.7835Y-2.6106
X6.8508Y-2.6563
X6.9374Y-4.3949
X7.1319Y-4.0776
X7.1331Y-3.6522
X7.1331Y-3.7112
X7.1331Y-3.7959
X7.1559Y-2.2024
X7.1559Y-2.2638
X7.2061Y-4.0679
X7.2126Y-3.9884
X7.2382Y-4.4547
X7.2429Y-2.2657
X7.2512Y-2.2047
X7.2517Y-4.1135
X7.261Y-1.5413
X7.2618Y-4.4843
X7.2626Y-3.6504
X7.2717Y-3.5886
X7.2766Y-4.1328
X7.3016Y-4.1634
X7.3024Y-4.6063
X7.3368Y-4.1124
X7.3368Y-4.1124
X7.3378Y-1.689
X7.4118Y-3.8766
X7.4847Y-4.0487
X7.5Y-4.3031
X7.5063Y-4.2372
X7.5138Y-4.078
X7.5143Y-4.341
X7.5197Y-4.2736
X7.5254Y-4.0109
X7.5283Y-4.1374
X7.5446Y-4.0358
X7.5673Y-1.5378
X7.5839Y-3.911
X7.6122Y-4.374
X7.631Y-4.0462
X7.6317Y-4.0059
X7.64Y-4.21
X7.6585Y-4.0615
X7.6772Y-3.8812
X7.6772Y-3.8812
X7.689Y-4.1122
X7.7259Y-4.2101
X7.7362Y-4.2618
X7.7423Y-3.8438
X7.7476Y-3.8748
X7.7518Y-4.01
X7.755Y-3.9787
X7.7697Y-4.4724
X7.7943Y-4.5118
X7.7953Y-4.5689
X7.8268Y-4.6004
X7.8642Y-4.6319
X7.8839Y-4.0335
X7.8996Y-4.6486
X7.91Y-3.97
X7.9272Y-4.1299
X7.9291Y-4.0571
X7.9654Y-3.9858
X7.9681Y-4.1692
X7.9815Y-4.2453
X7.982Y-4.2801
X7.9862Y-4.0413
X7.99Y-4.01
X8.1197Y-4.2616
X8.161Y-1.5878
X8.2165Y-3.9094
X8.2259Y-3.8784
X8.2362Y-3.8268
X8.2697Y-4.5315
X8.2877Y-3.8277
X8.3Y-3.86
X8.3874Y-1.8583
T2
X6.2317Y-1.58
X6.2457Y-2.6957
X6.248Y-4.6189
X6.2492Y-4.6972
X6.2546Y-1.612
X6.4921Y-2.5492
X6.5492Y-4.1256
X6.5807Y-2.6201
X6.6102Y-4.2902
X6.6358Y-2.6161
X6.6555Y-2.0504
X6.6708Y-2.714
X6.6722Y-1.981
X6.6732Y-2.7638
X6.6905Y-1.8956
X6.7076Y-2.6799
X6.7213Y-3.9854
X6.752Y-3.9606
X6.7538Y-1.9411
X6.7583Y-2.0713
X6.7604Y-2.3479
X6.7763Y-2.7643
X6.7992Y-4.3451
X6.8126Y-2.7491
X6.8228Y-2.6969
X6.8248Y-2.0512
X6.8681Y-4.811
X6.874Y-2.248
X6.9173Y-4.8024
X6.9547Y-1.8366
X6.9804Y-2.3681
X6.9898Y-3.2776
X6.9921Y-2.2972
X7.0445Y-2.3386
X7.0484Y-4.813
X7.0548Y-1.5839
X7.0612Y-2.2024
X7.0666Y-4.6381
X7.0685Y-4.2838
X7.076Y-2.1659
X7.1181Y-4.3386
X7.1511Y-3.4251
X7.1547Y-3.515
X7.1942Y-3.4789
X7.2579Y-2.9272
X7.2847Y-3.9612
X7.2913Y-4.5354
X7.313Y-3.6496
X7.3273Y-3.9601
X7.3296Y-3.9044
X7.3661Y-3.8898
X7.367Y-2.5306
X7.4193Y-2.5157
X7.4205Y-3.4772
X7.4272Y-1.9843
X7.4547Y-3.1026
X7.4768Y-2.9677
X7.4783Y-1.8268
X7.4874Y-3.49
X7.5Y-4.7947
X7.5157Y-2.8327
X7.5433Y-1.7835
X7.6083Y-4.4645
X7.6366Y-3.8255
X7.6418Y-4.498
X7.687Y-4.7671
X7.6926Y-1.7374
X7.7093Y-1.8203
X7.7268Y-4.6594
X7.77Y-3.6986
X7.7846Y-3.5674
X7.7992Y-3.6344
X7.8091Y-4.7382
X7.8091Y-4.7382
X7.8091Y-4.7382
X7.8327Y-3.6024
X7.8602Y-4.7343
X7.92Y-4.54
X7.9257Y-4.4779
X7.9291Y-4.7106
X7.9744Y-3.7648
X7.9972Y-1.5614
X8.0237Y-1.7067
X8.0335Y-3.7677
X8.0453Y-3.8337
X8.0472Y-2.2992
X8.0931Y-4.7026
X8.1796Y-4.591
X8.1796Y-4.591
T3
X5.7512Y-1.7819
X5.9764Y-2.4016
X6.1205Y-1.8594
X6.2138Y-2.3866
X6.2996Y-2.2528
X6.3484Y-2.6677
X6.3504Y-1.8882
X6.3524Y-1.4567
X6.4094Y-1.9795
X6.4299Y-2.6401
X6.4461Y-4.7236
X6.4677Y-2.0559
X6.5268Y-1.7953
X6.5488Y-2.2358
X6.626Y-4.2193
X6.6272Y-1.9795
X6.6492Y-1.4866
X6.6976Y-4.0567
X6.7268Y-4.8043
X6.7636Y-4.3159
X6.8067Y-4.2841
X6.8071Y-2.4865
X6.8181Y-2.8646
X6.8445Y-3.9213
X6.915Y-1.787
X6.9862Y-3.9528
X7.0056Y-4.027
X7.0477Y-1.5295
X7.065Y-4.0824
X7.0819Y-4.6791
X7.0855Y-2.3602
X7.1176Y-3.4823
X7.1259Y-3.9712
X7.2004Y-3.2957
X7.2004Y-3.2957
X7.2083Y-4.9075
X7.2665Y-4.7091
X7.2744Y-3.5413
X7.2807Y-2.3087
X7.3679Y-4.7353
X7.3748Y-2.8236
X7.3772Y-4.6882
X7.3965Y-4.1525
X7.4133Y-2.7423
X7.4248Y-2.2457
X7.4646Y-4.2697
X7.5002Y-1.9292
X7.5386Y-2.7728
X7.5941Y-1.687
X7.7837Y-4.2435
X7.8478Y-4.944
X7.9075Y-1.563
X7.9508Y-4.6447
X7.9637Y-2.6977
X7.9921Y-1.663
X8.0705Y-4.8531
X8.0835Y-1.8673
X8.1301Y-4.6321
X8.2031Y-2.0926
X8.2445Y-2.0024
X8.2965Y-2.0134
X8.4386Y-1.8173
T4
X5.9024Y-3.9516
X6.3815Y-4.2559
X7.3809Y-4.82
X7.5862Y-3.4917
X7.8583Y-2.5394
X8.1972Y-3.713
X8.3Y-3.73
T5
X7.3661Y-3.0079
X7.3661Y-3.0866
X7.3661Y-3.1654
X7.3661Y-3.2441
X7.3661Y-3.3228
X7.3661Y-3.4016
X6.815Y-3.0039
X6.815Y-3.0827
X6.815Y-3.1614
X6.815Y-3.2402
X6.815Y-3.3189
X6.815Y-3.3976
T6
X7.3996Y-1.689
X7.4996Y-1.689
X8.1426Y-2.1506
X8.2133Y-2.2213
X6.1399Y-2.0589
X6.2106Y-1.9882
X8.3799Y-2.2913
X8.4506Y-2.362
X7.8043Y-1.7728
X7.875Y-1.8435
X5.9493Y-2.2307
X6.02Y-2.16
X6.8898Y-1.7087
X6.9898Y-1.7087
X7.9647Y-1.9726
X8.0354Y-2.0433
X7.1437Y-1.7087
X7.2437Y-1.7087
X6.2795Y-1.8406
X6.3502Y-1.7698
X5.7244Y-2.3661
X5.7951Y-2.2954
X6.6358Y-1.685
X6.7358Y-1.685
T7
X6.0476Y-4.3854
X6.3004Y-3.4969
X6.3055Y-2.9228
X6.3209Y-4.1689
X6.3815Y-4.0492
X6.4618Y-4.1689
X6.5382Y-4.7831
X7.687Y-3.4894
X8.0984Y-2.9528
X8.1256Y-3.435
X8.2043Y-2.5807
X6.7937Y-1.4488
X6.8937Y-1.4488
X6.9937Y-1.4488
X7.0937Y-1.4488
X7.1937Y-1.4488
X7.2937Y-1.4488
X7.3937Y-1.4488
X8.18Y-4.02
X8.18Y-4.12
X8.18Y-4.22
X8.18Y-4.32
X8.18Y-4.42
X8.18Y-4.52
X6.1496Y-4.5472
X6.1496Y-4.6472
X6.1496Y-4.7472
X8.72Y-3.8732
X8.72Y-3.9732
X8.72Y-4.0732
X8.72Y-4.1732
X5.6781Y-2.1467
X5.7488Y-2.076
X5.8195Y-2.0053
X5.8902Y-1.9346
X5.9609Y-1.8639
X6.0317Y-1.7932
X6.1024Y-1.7224
X6.3362Y-4.8252
X6.4362Y-4.8252
X8.58Y-3.8953
X8.58Y-3.9953
X8.58Y-4.0953
X8.58Y-4.1953
X8.58Y-4.2953
X5.5279Y-4.1521
X5.5986Y-4.0814
X5.6693Y-4.0107
X5.74Y-3.94
X8.0895Y-1.7213
X8.1602Y-1.792
X8.2309Y-1.8627
X8.3016Y-1.9335
X8.3724Y-2.0042
X8.4431Y-2.0749
X8.5138Y-2.1456
T8
X6.7748Y-2.5488
X6.7756Y-2.0008
X6.8744Y-2.5476
X6.8791Y-2.0012
X6.978Y-2.548
X6.9795Y-2.0016
X7.0772Y-2.0008
X7.0783Y-2.5484
X7.1756Y-2.0012
X7.176Y-2.5476
X7.2744Y-2.548
X7.2764Y-2.0028
T0
M30
